<svg xmlns="http://www.w3.org/2000/svg" viewBox="0 0 168.7 34.81"><defs><style>.cls-1{fill:#231815;}</style></defs><title>about</title><g id="レイヤー_2" data-name="レイヤー 2"><g id="レイヤー_1-2" data-name="レイヤー 1"><path class="cls-1" d="M33.84,34.08,32.58,34c-2.14-.11-3.72-.17-4.74-.17-1.23,0-3,.06-5.2.17l-1.52.07v-1a2.54,2.54,0,0,0,.49,0,4.11,4.11,0,0,0,2.33-.54A1.85,1.85,0,0,0,24.73,31a11.37,11.37,0,0,0-.57-2.89q-.56-1.93-2.34-6.72c-.84-.05-1.76-.08-2.74-.1s-2.06,0-3.24,0-2.26,0-3.22,0-1.8.05-2.52.1L9.38,23.2Q7,29.49,7,31a1.82,1.82,0,0,0,.79,1.62,4.11,4.11,0,0,0,2.33.54,2.91,2.91,0,0,0,.49,0l0,1c-.94-.08-1.87-.14-2.78-.18s-1.75-.06-2.5-.06-1.56,0-2.47.06S1,34,0,34.08l0-1a2.63,2.63,0,0,0,.49,0,3.37,3.37,0,0,0,2-.69,5.4,5.4,0,0,0,1.58-2q.87-1.71,3.4-8.09T16.08.23h3.37q3.38,10.13,6.23,18.4t4.09,11.6a5,5,0,0,0,1.41,2.23,3.4,3.4,0,0,0,2.17.66,2.54,2.54,0,0,0,.49,0ZM21.21,19.43,16.31,4.55,10.8,19.43c.55.08,1.33.14,2.34.19s1.91.07,2.7.07,1.68,0,2.72-.07S20.49,19.51,21.21,19.43Z"/><path class="cls-1" d="M61,24.47a8.4,8.4,0,0,1-3.5,7.08Q54,34.17,48,34.17c-1,0-2.42-.05-4.27-.16s-3.14-.17-3.89-.17-2.2.07-4.31.19c-.64,0-1.12.08-1.45.09v-1a2.11,2.11,0,0,0,.34,0H35a2.65,2.65,0,0,0,2.71-1.49q.64-1.48.64-5.94V8.16q0-4.32-.6-5.52c-.4-.81-1.31-1.21-2.75-1.21h-.45l-.28,0v-1l.28,0c2.61.16,4.52.24,5.72.24.8,0,2,0,3.6-.13s2.8-.13,3.6-.13q5.09,0,7.94,2.13a6.83,6.83,0,0,1,2.86,5.79A7.51,7.51,0,0,1,56.7,13a10.56,10.56,0,0,1-4.39,3.29,12,12,0,0,1,6.31,2.93A7,7,0,0,1,61,24.47ZM53.77,9.12A6.33,6.33,0,0,0,51.57,4a8.89,8.89,0,0,0-6-1.87c-.41,0-.83,0-1.26,0s-.93.1-1.51.18c0,1.69-.07,3.46-.08,5.32s0,4.57,0,8.13c.64,0,1.23.06,1.79.07l1.56,0q1.1,0,2.28-.06c.79,0,1.48-.09,2-.15a7.59,7.59,0,0,0,2.45-2.84A8.16,8.16,0,0,0,53.77,9.12ZM55.92,25a6.45,6.45,0,0,0-2.58-5.55q-2.58-1.9-7.5-1.9-.68,0-2.22.09l-.89.07v3.94c0,1.28,0,2.72,0,4.32s.1,3.48.19,5.64a13.34,13.34,0,0,0,2.37.52,21,21,0,0,0,2.67.16,8.05,8.05,0,0,0,5.77-2A6.93,6.93,0,0,0,55.92,25Z"/><path class="cls-1" d="M99.35,17.27a16.9,16.9,0,0,1-4.89,12.25,16,16,0,0,1-11.91,5,16.05,16.05,0,0,1-12.12-4.88,17.14,17.14,0,0,1-4.69-12.4,16.83,16.83,0,0,1,5-12.2,16.83,16.83,0,0,1,23.92-.16A17.1,17.1,0,0,1,99.35,17.27Zm-5.27,1q0-7.5-3.33-12a10.3,10.3,0,0,0-8.67-4.52,9.61,9.61,0,0,0-7.92,4Q71,9.73,71,16.31q0,7.5,3.32,12A10.33,10.33,0,0,0,83,32.74a9.63,9.63,0,0,0,7.93-4Q94.08,24.8,94.08,18.23Z"/><path class="cls-1" d="M137.74,1.48a2.42,2.42,0,0,0-.47-.05,4,4,0,0,0-1.81.36,2.35,2.35,0,0,0-1.07,1.09A8.65,8.65,0,0,0,134,5.54Q133.8,7.6,133.8,12v9.12q0,6.6-3.18,10.15c-2.13,2.35-5.19,3.54-9.19,3.54q-6.59,0-10.14-3.71t-3.55-10.45c0-1.31,0-3.31.07-6s.07-4.61.07-5.78q0-4.76-.64-6.1a2.61,2.61,0,0,0-2.62-1.35,2.91,2.91,0,0,0-.49.05v-1l3,.13c1.45.07,2.46.11,3,.11.82,0,2.26-.06,4.34-.17l2.15-.07v1a2.54,2.54,0,0,0-.49-.05c-1.47,0-2.43.38-2.89,1.14s-.69,2.3-.69,4.63V21.12q0,5.34,2.53,8.31a8.53,8.53,0,0,0,6.82,3q5.13,0,7.49-2.93t2.35-9.3q0-7.86-.16-11.85a20.13,20.13,0,0,0-.56-5,3,3,0,0,0-1.15-1.55,4.18,4.18,0,0,0-2-.37h-.44l-.26,0v-1l2.69.14c1.25.06,2.27.1,3.05.1s1.58,0,2.44-.07S137,.55,137.74.49Z"/><path class="cls-1" d="M168.7,7.43l-1,.26c-.62-2.16-1.35-3.54-2.17-4.14a7.57,7.57,0,0,0-4.3-.9h-4.71c-.06,2.39-.09,4.23-.09,5.51V25.43q0,5,.73,6.33c.48.9,1.52,1.36,3.11,1.36h.49l.47,0v1c-1.86-.1-3.3-.16-4.32-.19s-1.9,0-2.64,0-1.63,0-2.66,0-2.45.09-4.3.19v-1l.45,0h.51c1.58,0,2.61-.46,3.1-1.36s.72-3,.72-6.33V8.16c0-1.28,0-3.12-.09-5.51h-4.45a8.08,8.08,0,0,0-4.59,1,7.61,7.61,0,0,0-2.38,4l-1-.26a28.12,28.12,0,0,0,.74-3.54,26.86,26.86,0,0,0,.22-3.66,9,9,0,0,0,2.88.61c1.11.08,2.88.12,5.28.12h10.57c2.5,0,4.38,0,5.63-.13a14.41,14.41,0,0,0,3.4-.6,11.61,11.61,0,0,0-.15,2.16c0,.75,0,1.52.11,2.31S168.53,6.4,168.7,7.43Z"/></g></g></svg>