<svg xmlns="http://www.w3.org/2000/svg" viewBox="0 0 410.16 106.8"><defs><style>.cls-1{fill:#231815;}</style></defs><title>afternoontea-menu</title><g id="レイヤー_2" data-name="レイヤー 2"><g id="レイヤー_1-2" data-name="レイヤー 1"><path class="cls-1" d="M33.84,34.08,32.58,34c-2.14-.11-3.72-.17-4.74-.17-1.23,0-3,.06-5.2.17l-1.52.07v-1a2.54,2.54,0,0,0,.49,0,4.11,4.11,0,0,0,2.33-.54A1.85,1.85,0,0,0,24.73,31a11.37,11.37,0,0,0-.57-2.89q-.56-1.93-2.34-6.72c-.84-.05-1.76-.08-2.74-.1s-2.06,0-3.24,0-2.26,0-3.22,0-1.8.05-2.52.1L9.38,23.2Q7,29.49,7,31a1.82,1.82,0,0,0,.79,1.62,4.11,4.11,0,0,0,2.33.54,2.91,2.91,0,0,0,.49,0l0,1c-.94-.08-1.87-.14-2.78-.18s-1.75-.06-2.5-.06-1.56,0-2.47.06S1,34,0,34.08l0-1a2.63,2.63,0,0,0,.49,0,3.37,3.37,0,0,0,2-.69,5.4,5.4,0,0,0,1.58-2q.87-1.71,3.4-8.09T16.08.23h3.37q3.38,10.13,6.23,18.4t4.09,11.6a5,5,0,0,0,1.41,2.23,3.4,3.4,0,0,0,2.17.66,2.54,2.54,0,0,0,.49,0ZM21.21,19.43,16.31,4.55,10.8,19.43c.55.08,1.33.14,2.34.19s1.91.07,2.7.07,1.68,0,2.72-.07S20.49,19.51,21.21,19.43Z"/><path class="cls-1" d="M58.08,7.29l-1,.14c-.64-2.19-1.44-3.53-2.38-4S51.87,2.65,49,2.65l-3.22,0c-1.1,0-2.08.06-2.92.11,0,1.37,0,3-.07,4.8s0,4.66,0,8.49c.36,0,.73.08,1.11.1s.81,0,1.28,0H49a10.6,10.6,0,0,0,4.52-.68A3,3,0,0,0,55,13l.94.09c-.1.6-.17,1.24-.24,1.94s-.09,1.38-.09,2,0,1.53.09,2.38.14,1.61.24,2.28l-.94.14a3.68,3.68,0,0,0-1.45-3.05A9.24,9.24,0,0,0,49,18H45.12c-.47,0-.9,0-1.28,0s-.75.05-1.11.1q0,7.41.16,10.18a7.35,7.35,0,0,0,.8,3.6,2.69,2.69,0,0,0,1.17.92,5.57,5.57,0,0,0,1.94.28c.32,0,.64,0,1,0v1L46.41,34c-2.47-.11-4.34-.17-5.61-.17s-3.35.07-5.88.19l-.84,0v-1a2.11,2.11,0,0,0,.34,0H35a2.66,2.66,0,0,0,2.72-1.41q.63-1.41.63-6.28V8.16q0-4.32-.6-5.52c-.4-.81-1.31-1.21-2.75-1.21h-.45l-.28,0v-1l.75,0Q43.4,1,47,1c1.22,0,2.76,0,4.63-.12s3.84-.2,5.92-.35c0,1,0,2,.11,3.05S57.91,5.87,58.08,7.29Z"/><path class="cls-1" d="M88.08,7.43l-1,.26Q86.17,4.45,85,3.55a7.57,7.57,0,0,0-4.3-.9H75.94c-.06,2.39-.1,4.23-.1,5.51V25.43c0,3.31.25,5.42.73,6.33s1.52,1.36,3.12,1.36h.49l.47,0v1c-1.86-.1-3.3-.16-4.33-.19s-1.9,0-2.63,0-1.64,0-2.66,0-2.46.09-4.3.19v-1l.44,0h.52c1.58,0,2.61-.46,3.09-1.36s.73-3,.73-6.33V8.16c0-1.28,0-3.12-.1-5.51H67a8.06,8.06,0,0,0-4.58,1,7.55,7.55,0,0,0-2.38,4l-1-.26a30,30,0,0,0,.74-3.54A26.86,26.86,0,0,0,60,.23a9,9,0,0,0,2.87.61C64,.92,65.75,1,68.16,1H78.73c2.5,0,4.37,0,5.62-.13a14.41,14.41,0,0,0,3.4-.6,12.76,12.76,0,0,0-.14,2.16c0,.75,0,1.52.1,2.31S87.91,6.4,88.08,7.43Z"/><path class="cls-1" d="M116.39,27.12c-.45,1.36-.84,2.6-1.15,3.74s-.57,2.2-.77,3.22L111.89,34q-5.42-.16-8.69-.17-4.61,0-12.52.21l-.45,0v-1a2.27,2.27,0,0,0,.34,0h.63a2.63,2.63,0,0,0,2.7-1.49q.64-1.48.65-5.94V8.16q0-4.32-.6-5.52c-.4-.81-1.32-1.21-2.75-1.21h-.45l-.28,0v-1l.75,0q8.34.44,12,.44c1.21,0,2.76,0,4.62-.12s3.84-.2,5.92-.35c0,1,0,2,.12,3.05s.2,2.33.37,3.75l-1,.14q-1-3.28-2.38-4c-.94-.5-2.87-.75-5.77-.75l-3.23,0c-1.1,0-2.07.06-2.91.11,0,1.37-.06,3-.07,4.79s0,4.61,0,8.36c.38,0,.76.08,1.14.1s.8,0,1.25,0h4.32a10.82,10.82,0,0,0,4.58-.66,3,3,0,0,0,1.42-2.55l1,.09a17.89,17.89,0,0,0-.25,1.86c0,.68-.08,1.42-.08,2.22s0,1.51.08,2.25.14,1.5.25,2.3l-1,.11a3.77,3.77,0,0,0-1.42-3.07,9.48,9.48,0,0,0-4.58-.77h-4.32c-.47,0-.89,0-1.27,0s-.76.06-1.12.11q0,3.13.06,7c0,2.58.1,4.79.18,6.65,1.08.13,2.18.23,3.33.3s2.18.1,3.14.1q4.5,0,6.45-1t3.39-4.3Z"/><path class="cls-1" d="M152.16,34l-.71.1c-.62.15-1.19.27-1.7.35a9.12,9.12,0,0,1-1.44.12,9,9,0,0,1-3.93-.76,7.13,7.13,0,0,1-2.77-2.64c-.49-.73-1.16-1.78-2-3.14L139,27l-2.16-3.44c-.73-1.14-1.34-2.08-1.84-2.81s-.8-1.17-.94-1.33c-.55.08-1.17.14-1.87.19s-1.38.07-2.07.07h-1.43v5.84q0,5,.69,6.44c.46,1,1.43,1.42,2.89,1.42H133v.74c-.12,0-.31,0-.56,0q-4.17-.21-5.93-.21t-5.91.21c-.26,0-.45,0-.56,0V33.3a2.11,2.11,0,0,0,.34,0H121a2.62,2.62,0,0,0,2.71-1.51q.64-1.52.64-6.05V8.16q0-4.32-.6-5.52c-.39-.81-1.31-1.21-2.75-1.21h-.44l-.29,0v-1l.29,0c2.6.16,4.51.24,5.71.24.8,0,1.92,0,3.37-.13S132.16.47,133,.47a14.69,14.69,0,0,1,8.83,2.47,7.6,7.6,0,0,1,3.41,6.41,8.21,8.21,0,0,1-1.62,5,13.94,13.94,0,0,1-4.85,3.92L144.47,27a30.37,30.37,0,0,0,3.95,5.17,4.37,4.37,0,0,0,3,1.17h.73Zm-11.77-23.9A7.43,7.43,0,0,0,138,4.36a8.82,8.82,0,0,0-6.23-2.2c-.47,0-1,0-1.52.07s-1,.1-1.51.16q0,2.76-.07,6c0,2.15,0,5.24,0,9.29.19,0,.46,0,.82,0,1.25.09,2.25.14,3,.14l2.35,0c.51,0,.93,0,1.26-.07a8.5,8.5,0,0,0,3.22-3.19A9,9,0,0,0,140.39,10.08Z"/><path class="cls-1" d="M186.49,1.48a3.1,3.1,0,0,0-.54-.05,3.5,3.5,0,0,0-1.53.33,2.35,2.35,0,0,0-1,.89c-.4.58-.65,2-.78,4.38s-.19,5.92-.19,10.74v9.58c0,1.33.05,2.66.14,4s.21,2.32.33,3H181.2a6.14,6.14,0,0,0-.57-.86c-.28-.38-.65-.84-1.1-1.39L157.92,6.23V16.8q0,8.2.18,11.25c.11,2,.38,3.33.78,3.87a2.9,2.9,0,0,0,1.2.92,5.49,5.49,0,0,0,1.92.28c.33,0,.65,0,1,0v1L161.62,34c-2.07-.11-3.55-.17-4.42-.17-.72,0-2.08.06-4.06.17l-1.45.07v-1l.3,0h.47A3.58,3.58,0,0,0,154,32.8a2.46,2.46,0,0,0,1.07-.88c.39-.58.65-2,.77-4.38s.19-5.92.19-10.74V7.69a11.29,11.29,0,0,0-.74-4.91,3,3,0,0,0-2.85-1.35c-.17,0-.41,0-.72.05v-1l.23,0c1.85.16,3.22.24,4.13.24.43,0,1,0,1.67-.08l2.12-.18a10.61,10.61,0,0,0,1,1.88,30.08,30.08,0,0,0,1.87,2.45l17.76,21.36V17.77q0-8-.13-11.2c-.08-2.14-.28-3.45-.59-3.92a2.38,2.38,0,0,0-1.18-.95,5.68,5.68,0,0,0-1.94-.27l-.49.05v-1l3.2.2c.74,0,1.35.06,1.84.06s1.27,0,2.19-.08l3.1-.18Z"/><path class="cls-1" d="M224.65,17.27a16.9,16.9,0,0,1-4.89,12.25,17,17,0,0,1-24,.15A17.14,17.14,0,0,1,191,17.27a16.83,16.83,0,0,1,5-12.2,16.81,16.81,0,0,1,23.91-.16A17.07,17.07,0,0,1,224.65,17.27Zm-5.27,1q0-7.5-3.33-12a10.3,10.3,0,0,0-8.67-4.52,9.62,9.62,0,0,0-7.93,4q-3.1,4-3.11,10.6,0,7.5,3.31,12a10.34,10.34,0,0,0,8.69,4.46,9.64,9.64,0,0,0,7.93-4Q219.38,24.8,219.38,18.23Z"/><path class="cls-1" d="M263,17.27a16.9,16.9,0,0,1-4.89,12.25,17,17,0,0,1-24,.15,17.14,17.14,0,0,1-4.69-12.4,16.83,16.83,0,0,1,5-12.2,16.81,16.81,0,0,1,23.91-.16A17.07,17.07,0,0,1,263,17.27Zm-5.27,1q0-7.5-3.33-12a10.3,10.3,0,0,0-8.67-4.52,9.62,9.62,0,0,0-7.93,4q-3.1,4-3.11,10.6,0,7.5,3.31,12a10.34,10.34,0,0,0,8.69,4.46,9.63,9.63,0,0,0,7.93-4Q257.77,24.8,257.77,18.23Z"/><path class="cls-1" d="M302.16,1.48a3.29,3.29,0,0,0-.54-.05,3.51,3.51,0,0,0-1.54.33,2.35,2.35,0,0,0-1,.89c-.39.58-.65,2-.77,4.38s-.19,5.92-.19,10.74v9.58c0,1.33,0,2.66.14,4a25.47,25.47,0,0,0,.33,3h-1.69a5.13,5.13,0,0,0-.56-.86c-.28-.38-.65-.84-1.1-1.39L273.59,6.23V16.8c0,5.47.05,9.22.17,11.25s.38,3.33.79,3.87a2.87,2.87,0,0,0,1.19.92,5.49,5.49,0,0,0,1.92.28c.33,0,.65,0,1,0v1L277.29,34c-2.08-.11-3.56-.17-4.43-.17s-2.07.06-4.06.17l-1.45.07v-1l.31,0h.46a3.63,3.63,0,0,0,1.52-.32,2.44,2.44,0,0,0,1.06-.88q.58-.87.78-4.38t.18-10.74V7.69a11.32,11.32,0,0,0-.73-4.91,3,3,0,0,0-2.85-1.35c-.17,0-.42,0-.73.05v-1l.24,0c1.84.16,3.21.24,4.12.24.44,0,1,0,1.68-.08l2.12-.18a10.61,10.61,0,0,0,1,1.88c.43.65,1.05,1.46,1.86,2.45l17.77,21.36V17.77c0-5.32-.05-9-.13-11.2a10.21,10.21,0,0,0-.6-3.92,2.4,2.4,0,0,0-1.17-.95,5.78,5.78,0,0,0-1.95-.27l-.49.05v-1l3.2.2c.74,0,1.36.06,1.84.06s1.28,0,2.19-.08l3.11-.18Z"/><path class="cls-1" d="M348.23,7.43l-1,.26q-.93-3.24-2.16-4.14a7.61,7.61,0,0,0-4.31-.9h-4.71C336,5,336,6.88,336,8.16V25.43q0,5,.73,6.33c.48.9,1.52,1.36,3.11,1.36h.5l.46,0v1c-1.85-.1-3.3-.16-4.32-.19s-1.9,0-2.64,0-1.63,0-2.66,0-2.45.09-4.3.19v-1l.45,0h.51c1.58,0,2.61-.46,3.1-1.36s.72-3,.72-6.33V8.16c0-1.28,0-3.12-.09-5.51h-4.45a8,8,0,0,0-4.58,1,7.49,7.49,0,0,0-2.38,4l-1-.26a28,28,0,0,0,.73-3.54,26.75,26.75,0,0,0,.23-3.66A8.91,8.91,0,0,0,323,.84c1.11.08,2.88.12,5.28.12h10.57c2.5,0,4.38,0,5.63-.13a14.41,14.41,0,0,0,3.4-.6,11.78,11.78,0,0,0-.14,2.16c0,.75,0,1.52.1,2.31S348.06,6.4,348.23,7.43Z"/><path class="cls-1" d="M376.55,27.12c-.46,1.36-.84,2.6-1.15,3.74s-.57,2.2-.78,3.22L372.05,34q-5.42-.16-8.7-.17-4.59,0-12.51.21l-.45,0v-1a2.11,2.11,0,0,0,.34,0h.62a2.64,2.64,0,0,0,2.71-1.49q.65-1.48.64-5.94V8.16q0-4.32-.59-5.52c-.4-.81-1.32-1.21-2.76-1.21h-.44l-.29,0v-1l.76,0q8.34.44,12,.44c1.22,0,2.76,0,4.63-.12s3.84-.2,5.92-.35c0,1,0,2,.12,3.05s.2,2.33.37,3.75l-1,.14q-1-3.28-2.38-4t-5.78-.75l-3.22,0c-1.1,0-2.07.06-2.92.11,0,1.37-.05,3-.07,4.79s0,4.61,0,8.36c.37,0,.75.08,1.14.1s.8,0,1.25,0h4.31a10.79,10.79,0,0,0,4.58-.66,3,3,0,0,0,1.42-2.55l1,.09a15.64,15.64,0,0,0-.24,1.86c-.06.68-.08,1.42-.08,2.22s0,1.51.08,2.25.13,1.5.24,2.3l-1,.11a3.74,3.74,0,0,0-1.42-3.07c-.82-.51-2.34-.77-4.58-.77h-4.31c-.47,0-.89,0-1.28,0S359.4,18,359,18q0,3.13.06,7c0,2.58.1,4.79.17,6.65q1.62.19,3.33.3c1.14.07,2.19.1,3.14.1q4.5,0,6.46-1t3.39-4.3Z"/><path class="cls-1" d="M410.16,34.08,408.89,34c-2.14-.11-3.72-.17-4.73-.17-1.24,0-3,.06-5.21.17l-1.52.07v-1a2.63,2.63,0,0,0,.49,0,4.11,4.11,0,0,0,2.33-.54A1.82,1.82,0,0,0,401,31a11.71,11.71,0,0,0-.56-2.89q-.57-1.93-2.35-6.72c-.84-.05-1.75-.08-2.74-.1s-2.06,0-3.23,0-2.27,0-3.23,0-1.8.05-2.52.1l-.72,1.85q-2.42,6.29-2.42,7.76a1.85,1.85,0,0,0,.79,1.62,4.11,4.11,0,0,0,2.33.54,2.81,2.81,0,0,0,.49,0l0,1c-.94-.08-1.86-.14-2.78-.18s-1.74-.06-2.49-.06-1.56,0-2.48.06-1.84.1-2.77.18l0-1a2.63,2.63,0,0,0,.49,0,3.35,3.35,0,0,0,2-.69,5.4,5.4,0,0,0,1.58-2q.87-1.71,3.4-8.09T392.39.23h3.38q3.38,10.13,6.22,18.4t4.09,11.6a5,5,0,0,0,1.42,2.23,3.35,3.35,0,0,0,2.16.66,2.65,2.65,0,0,0,.5,0ZM397.52,19.43l-4.9-14.88-5.5,14.88c.54.08,1.32.14,2.33.19s1.91.07,2.71.07,1.67,0,2.72-.07S396.8,19.51,397.52,19.43Z"/><path class="cls-1" d="M172.3,106.08l-.63,0c-2.31-.12-4.1-.19-5.37-.19-1.06,0-2.82.07-5.27.19l-1,0v-1l.51,0,.45,0a3.41,3.41,0,0,0,2.4-.69,3.31,3.31,0,0,0,.71-2.43q0-3.7-.26-10.42T163.18,78l-.23.73-9.84,21.11a25.09,25.09,0,0,0-1.23,3,19.6,19.6,0,0,0-.7,2.79H150a11.16,11.16,0,0,0-.52-1.71c-.23-.63-.78-1.9-1.64-3.82L138.46,79.2l-.71-1.43-.25,3.84q-.33,4.8-.52,10c-.12,3.44-.19,6.67-.19,9.7a4.55,4.55,0,0,0,.76,3,3.89,3.89,0,0,0,2.83.8c.17,0,.41,0,.73-.05v1l-.78,0c-2.2-.12-3.79-.19-4.76-.19s-2.28.06-4.19.17l-1.08.07v-1c.33,0,.57.05.73.05a4.12,4.12,0,0,0,1.81-.33,2.43,2.43,0,0,0,1.07-1.1q.42-.87.87-7.83c0-.59.08-1,.09-1.31l.47-7.17c0-.61.18-2.42.4-5.41s.33-4.8.33-5.42A2.7,2.7,0,0,0,133,73.43a2.81,2.81,0,0,0-.49,0v-1l.63,0c1.94.14,3.25.21,3.94.21.48,0,1.1,0,1.86-.08l2.31-.18c0,.19-.06.33-.07.43a1.42,1.42,0,0,0,0,.27q0,1.31,1.92,5.46c.2.45.36.8.47,1l8.41,18.26,7.43-15.84q2.59-5.55,3.11-6.84a6.19,6.19,0,0,0,.5-2.07c0-.07,0-.17,0-.27s0-.24-.07-.43l1.35.1c1.22.11,2.16.16,2.82.16s1.24,0,2.12-.09l2.19-.17v1a2.5,2.5,0,0,0-.47,0,4,4,0,0,0-2.71.71,3.36,3.36,0,0,0-.76,2.48c0,.45,0,1.54.11,3.26s.15,3.41.24,5.08l.47,8.63c.19,3.21.33,5.51.44,6.87s.2,2.29.29,2.76a2.29,2.29,0,0,0,.81,1.48,3.16,3.16,0,0,0,1.81.42l.73-.05Z"/><path class="cls-1" d="M202.79,99.12c-.45,1.36-.83,2.6-1.15,3.74s-.57,2.2-.77,3.22l-2.58-.07c-3.61-.11-6.5-.17-8.69-.17q-4.59,0-12.52.21l-.44,0v-1a2,2,0,0,0,.34,0h.62a2.63,2.63,0,0,0,2.7-1.49q.64-1.48.65-5.94V80.16q0-4.32-.6-5.52c-.4-.81-1.31-1.21-2.75-1.21h-.45l-.28,0v-1l.75,0q8.34.44,12,.44c1.22,0,2.76,0,4.63-.12s3.84-.2,5.91-.35c0,1,0,2,.12,3.05s.2,2.33.38,3.75l-1,.14c-.64-2.19-1.44-3.53-2.38-4s-2.87-.75-5.78-.75l-3.22,0c-1.1,0-2.08.06-2.92.11,0,1.37-.06,3-.07,4.79s0,4.61,0,8.36c.37,0,.75.08,1.13.1s.8,0,1.26,0H192a10.82,10.82,0,0,0,4.58-.66A3,3,0,0,0,198,84.87l1,.09a17.89,17.89,0,0,0-.25,1.86c0,.68-.08,1.42-.08,2.22s0,1.51.08,2.25.14,1.5.25,2.3l-1,.11a3.77,3.77,0,0,0-1.42-3.07,9.48,9.48,0,0,0-4.58-.77h-4.31c-.47,0-.9,0-1.28,0s-.76.06-1.11.11c0,2.09,0,4.43.05,7s.1,4.79.18,6.65q1.62.2,3.33.3c1.14.07,2.19.1,3.14.1q4.5,0,6.46-1t3.38-4.3Z"/><path class="cls-1" d="M241.21,73.48a3.1,3.1,0,0,0-.54,0,3.54,3.54,0,0,0-1.54.33,2.35,2.35,0,0,0-1,.89c-.39.58-.65,2-.77,4.38s-.19,5.92-.19,10.74v9.58c0,1.33.05,2.66.14,4a25.47,25.47,0,0,0,.33,3h-1.69a5.13,5.13,0,0,0-.56-.86c-.28-.38-.65-.84-1.1-1.39L212.64,78.23V88.8q0,8.2.17,11.25c.12,2,.38,3.33.79,3.87a2.87,2.87,0,0,0,1.19.92,5.49,5.49,0,0,0,1.92.28c.33,0,.65,0,1-.05v1l-1.34-.07c-2.08-.11-3.55-.17-4.43-.17-.72,0-2.07.06-4,.17l-1.46.07v-1l.31,0h.47a3.62,3.62,0,0,0,1.51-.32,2.44,2.44,0,0,0,1.06-.88q.58-.87.78-4.38t.18-10.74V79.69a11.32,11.32,0,0,0-.73-4.91,3,3,0,0,0-2.85-1.35c-.17,0-.42,0-.73,0v-1l.24,0c1.84.16,3.22.24,4.12.24.44,0,1,0,1.68-.08l2.12-.18a10.61,10.61,0,0,0,1,1.88,30.16,30.16,0,0,0,1.86,2.45l17.77,21.36V89.77c0-5.32-.05-9-.13-11.2a10.21,10.21,0,0,0-.6-3.92,2.4,2.4,0,0,0-1.17-1,5.74,5.74,0,0,0-1.95-.27l-.49,0v-1l3.2.2c.74,0,1.36.06,1.84.06s1.28,0,2.19-.08l3.11-.18Z"/><path class="cls-1" d="M279.36,73.48a2.42,2.42,0,0,0-.47,0,4,4,0,0,0-1.81.36A2.4,2.4,0,0,0,276,74.88a8.65,8.65,0,0,0-.44,2.66c-.1,1.37-.14,3.52-.14,6.46v9.12q0,6.6-3.19,10.15t-9.19,3.53q-6.58,0-10.14-3.7t-3.55-10.45c0-1.31,0-3.31.07-6s.07-4.61.07-5.78q0-4.75-.64-6.1a2.6,2.6,0,0,0-2.61-1.35,3,3,0,0,0-.5,0v-1l3,.13c1.45.07,2.47.11,3,.11.82,0,2.26-.06,4.34-.17l2.16-.07v1a2.65,2.65,0,0,0-.5,0c-1.46,0-2.43.38-2.89,1.14s-.69,2.3-.69,4.63V93.12q0,5.34,2.53,8.31a8.53,8.53,0,0,0,6.82,3q5.13,0,7.49-2.93t2.35-9.3q0-7.86-.16-11.85a20.13,20.13,0,0,0-.56-5,3,3,0,0,0-1.15-1.55,4.16,4.16,0,0,0-2-.37h-.43l-.27,0v-1l2.69.14c1.25.06,2.27.1,3.05.1s1.58,0,2.44-.07,1.64-.11,2.36-.17Z"/></g></g></svg>