<svg xmlns="http://www.w3.org/2000/svg" viewBox="0 0 283.24 34.8"><defs><style>.cls-1{fill:#231815;}</style></defs><title>cafe-menu</title><g id="レイヤー_2" data-name="レイヤー 2"><g id="レイヤー_1-2" data-name="レイヤー 1"><path class="cls-1" d="M29.77,26.39a21.59,21.59,0,0,0-1.25,2.74c-.5,1.27-.88,2.35-1.14,3.26A18.89,18.89,0,0,1,22.65,34a25.68,25.68,0,0,1-5.35.57Q9.47,34.55,4.73,30T0,17.77Q0,9.84,4.92,4.92T17.77,0a30.77,30.77,0,0,1,5.42.48,29.68,29.68,0,0,1,5.24,1.44c0,.28-.05.6-.07.94s0,.67,0,1q0,1.25.12,2.73c.09,1,.2,1.92.34,2.78l-1.19.26a8.91,8.91,0,0,0-3.27-5.88,11.22,11.22,0,0,0-7-2c-3.92,0-6.91,1.28-8.94,3.84S5.3,11.85,5.3,16.8A17.59,17.59,0,0,0,8.88,28.18a11.45,11.45,0,0,0,9.38,4.47,11.28,11.28,0,0,0,6.15-1.79,12.11,12.11,0,0,0,4.39-4.94Z"/><path class="cls-1" d="M63.14,34.08,61.88,34c-2.15-.11-3.72-.17-4.74-.17-1.23,0-3,.06-5.2.17l-1.53.07v-1a2.65,2.65,0,0,0,.5,0,4.14,4.14,0,0,0,2.33-.54A1.84,1.84,0,0,0,54,31a11.25,11.25,0,0,0-.56-2.89c-.37-1.29-1.16-3.53-2.34-6.72-.85-.05-1.76-.08-2.74-.1s-2.07,0-3.24,0-2.26,0-3.22,0-1.8.05-2.52.1l-.73,1.85Q36.26,29.49,36.26,31A1.84,1.84,0,0,0,37,32.58a4.15,4.15,0,0,0,2.34.54,2.91,2.91,0,0,0,.49,0l0,1c-.93-.08-1.86-.14-2.77-.18s-1.75-.06-2.5-.06-1.56,0-2.47.06-1.84.1-2.78.18l0-1a2.54,2.54,0,0,0,.49,0,3.34,3.34,0,0,0,2-.69,5.42,5.42,0,0,0,1.59-2c.57-1.14,1.71-3.84,3.39-8.09S41.33,10.75,45.38.23h3.37Q52.13,10.36,55,18.63t4.09,11.6a5.05,5.05,0,0,0,1.42,2.23,3.4,3.4,0,0,0,2.17.66,2.63,2.63,0,0,0,.49,0ZM50.51,19.43,45.61,4.55,40.1,19.43c.55.08,1.33.14,2.33.19s1.91.07,2.71.07,1.67,0,2.72-.07S49.79,19.51,50.51,19.43Z"/><path class="cls-1" d="M87.38,7.29l-1,.14q-1-3.28-2.37-4t-5.78-.75L75,2.68c-1.11,0-2.08.06-2.92.11,0,1.37-.06,3-.07,4.8s0,4.66,0,8.49c.36,0,.73.08,1.12.1s.81,0,1.27,0h3.85a10.63,10.63,0,0,0,4.52-.68A3,3,0,0,0,84.26,13l.94.09c-.1.6-.18,1.24-.24,1.94s-.09,1.38-.09,2,0,1.53.09,2.38.14,1.61.24,2.28l-.94.14a3.69,3.69,0,0,0-1.46-3.05A9.16,9.16,0,0,0,78.26,18H74.41c-.46,0-.89,0-1.27,0s-.76.05-1.12.1q0,7.41.17,10.18a7.38,7.38,0,0,0,.79,3.6,2.78,2.78,0,0,0,1.18.92,5.49,5.49,0,0,0,1.94.28c.31,0,.63,0,1,0v1L75.7,34c-2.47-.11-4.33-.17-5.6-.17s-3.35.07-5.88.19l-.84,0v-1a2,2,0,0,0,.33,0h.63a2.65,2.65,0,0,0,2.71-1.41q.65-1.41.64-6.28V8.16q0-4.32-.6-5.52c-.4-.81-1.32-1.21-2.75-1.21h-.45l-.28,0v-1l.75,0Q72.7,1,76.34,1C77.55,1,79.1.92,81,.84S84.8.64,86.88.49c0,1,0,2,.12,3.05S87.2,5.87,87.38,7.29Z"/><path class="cls-1" d="M116.41,27.12c-.45,1.36-.83,2.6-1.14,3.74s-.57,2.2-.78,3.22L111.91,34c-3.61-.11-6.5-.17-8.69-.17q-4.59,0-12.52.21l-.44,0v-1a2.11,2.11,0,0,0,.34,0h.62a2.65,2.65,0,0,0,2.71-1.49q.64-1.48.64-5.94V8.16q0-4.32-.6-5.52c-.4-.81-1.31-1.21-2.75-1.21h-.45l-.28,0v-1l.75,0q8.34.44,12,.44c1.22,0,2.76,0,4.63-.12s3.84-.2,5.92-.35c0,1,0,2,.11,3.05s.21,2.33.38,3.75l-1,.14c-.64-2.19-1.44-3.53-2.38-4s-2.87-.75-5.78-.75l-3.22,0c-1.1,0-2.08.06-2.92.11,0,1.37,0,3-.07,4.79s0,4.61,0,8.36c.37,0,.75.08,1.13.1s.8,0,1.26,0h4.31a10.82,10.82,0,0,0,4.58-.66,3,3,0,0,0,1.42-2.55l1,.09a17.89,17.89,0,0,0-.25,1.86c0,.68-.08,1.42-.08,2.22s0,1.51.08,2.25.14,1.5.25,2.3l-1,.11a3.77,3.77,0,0,0-1.42-3.07,9.48,9.48,0,0,0-4.58-.77H101.3c-.47,0-.9,0-1.28,0s-.75.06-1.11.11q0,3.13,0,7c0,2.58.1,4.79.18,6.65q1.62.19,3.33.3c1.14.07,2.19.1,3.14.1q4.5,0,6.46-1t3.38-4.3Z"/><path class="cls-1" d="M176.18,34.08c-.13,0-.34,0-.63,0-2.32-.12-4.1-.19-5.37-.19-1.06,0-2.82.07-5.27.19l-1,0v-1l.51,0,.45,0a3.41,3.41,0,0,0,2.4-.69A3.31,3.31,0,0,0,168,30q0-3.7-.27-10.42T167.06,6l-.23.73L157,27.84a29,29,0,0,0-1.23,3,18.36,18.36,0,0,0-.69,2.79h-1.19a11.16,11.16,0,0,0-.52-1.71c-.23-.63-.78-1.9-1.64-3.82L142.34,7.2l-.71-1.43-.25,3.84c-.22,3.2-.4,6.52-.52,10s-.19,6.67-.19,9.7a4.55,4.55,0,0,0,.76,3.05,3.89,3.89,0,0,0,2.83.8c.17,0,.41,0,.72,0v1l-.77,0c-2.2-.12-3.79-.19-4.76-.19s-2.29.06-4.19.17l-1.08.07v-1c.33,0,.57,0,.73,0a4.12,4.12,0,0,0,1.81-.33,2.43,2.43,0,0,0,1.07-1.1q.42-.87.87-7.83c0-.59.07-1,.09-1.31l.47-7.17c.05-.61.18-2.42.4-5.41s.33-4.8.33-5.42a3.24,3.24,0,0,0-.75-2.37,3.24,3.24,0,0,0-2.37-.75,2.81,2.81,0,0,0-.49.05v-1l.63.05c1.94.14,3.25.21,3.94.21.48,0,1.1,0,1.86-.08l2.31-.18c0,.19-.06.33-.07.43a1.57,1.57,0,0,0,0,.27c0,.87.64,2.68,1.93,5.46.2.45.36.8.47,1l8.41,18.26,7.43-15.84c1.73-3.7,2.77-6,3.1-6.84a6,6,0,0,0,.51-2.07,1.39,1.39,0,0,0,0-.27,4.07,4.07,0,0,0-.07-.43l1.36.1c1.22.1,2.16.16,2.82.16s1.23,0,2.12-.09l2.19-.17v1a2.5,2.5,0,0,0-.47-.05,4,4,0,0,0-2.71.71,3.36,3.36,0,0,0-.76,2.48c0,.45,0,1.54.11,3.26s.15,3.41.24,5.08l.47,8.63c.19,3.21.33,5.51.44,6.87a25.72,25.72,0,0,0,.29,2.76,2.29,2.29,0,0,0,.81,1.48,3.16,3.16,0,0,0,1.81.42l.73,0Z"/><path class="cls-1" d="M206.67,27.12c-.45,1.36-.83,2.6-1.15,3.74s-.57,2.2-.77,3.22L202.17,34q-5.41-.16-8.69-.17-4.6,0-12.52.21l-.44,0v-1a2,2,0,0,0,.34,0h.62a2.63,2.63,0,0,0,2.7-1.49q.65-1.48.65-5.94V8.16q0-4.32-.6-5.52c-.4-.81-1.32-1.21-2.75-1.21H181l-.28,0v-1l.75,0q8.34.44,12,.44c1.22,0,2.76,0,4.63-.12S202,.64,204,.49c0,1,0,2,.12,3.05s.2,2.33.38,3.75l-1,.14q-1-3.28-2.37-4t-5.78-.75l-3.22,0c-1.11,0-2.08.06-2.92.11,0,1.37-.06,3-.07,4.79s0,4.61,0,8.36c.38,0,.76.08,1.14.1s.8,0,1.25,0h4.32a10.82,10.82,0,0,0,4.58-.66,3,3,0,0,0,1.42-2.55l1,.09a17.89,17.89,0,0,0-.25,1.86c-.05.68-.08,1.42-.08,2.22s0,1.51.08,2.25.14,1.5.25,2.3l-1,.11a3.77,3.77,0,0,0-1.42-3.07,9.48,9.48,0,0,0-4.58-.77h-4.32c-.46,0-.89,0-1.27,0s-.76.06-1.12.11q0,3.13.06,7c0,2.58.1,4.79.18,6.65q1.62.19,3.33.3c1.14.07,2.18.1,3.14.1q4.5,0,6.45-1t3.39-4.3Z"/><path class="cls-1" d="M245.09,1.48a3.29,3.29,0,0,0-.54-.05,3.51,3.51,0,0,0-1.54.33,2.35,2.35,0,0,0-1,.89c-.39.58-.65,2-.77,4.38S241,13,241,17.77v9.58c0,1.33,0,2.66.14,4a25.47,25.47,0,0,0,.33,3h-1.69a5.13,5.13,0,0,0-.56-.86c-.28-.38-.65-.84-1.11-1.39L216.52,6.23V16.8c0,5.47,0,9.22.17,11.25s.38,3.33.79,3.87a2.81,2.81,0,0,0,1.19.92,5.49,5.49,0,0,0,1.92.28c.33,0,.65,0,1,0v1L220.22,34c-2.08-.11-3.56-.17-4.43-.17-.72,0-2.07.06-4.06.17l-1.45.07v-1l.31,0h.46a3.63,3.63,0,0,0,1.52-.32,2.44,2.44,0,0,0,1.06-.88q.59-.87.78-4.38t.18-10.74V7.69a11.32,11.32,0,0,0-.73-4.91A3,3,0,0,0,211,1.43c-.17,0-.42,0-.73.05v-1l.24,0c1.84.16,3.21.24,4.12.24.44,0,1,0,1.68-.08l2.12-.18a10.61,10.61,0,0,0,1,1.88c.43.65,1,1.46,1.86,2.45l17.77,21.36V17.77c0-5.32-.05-9-.13-11.2a10.21,10.21,0,0,0-.6-3.92,2.4,2.4,0,0,0-1.17-.95,5.78,5.78,0,0,0-1.95-.27l-.49.05v-1l3.2.2c.74,0,1.35.06,1.84.06s1.28,0,2.19-.08l3.11-.18Z"/><path class="cls-1" d="M283.24,1.48a2.42,2.42,0,0,0-.47-.05,4,4,0,0,0-1.81.36,2.35,2.35,0,0,0-1.07,1.09,8.65,8.65,0,0,0-.44,2.66Q279.3,7.6,279.3,12v9.12q0,6.6-3.18,10.15t-9.19,3.53q-6.58,0-10.14-3.7t-3.55-10.45c0-1.31,0-3.31.07-6s.07-4.61.07-5.78q0-4.76-.64-6.1a2.61,2.61,0,0,0-2.62-1.35,2.91,2.91,0,0,0-.49.05v-1l3,.13c1.45.07,2.46.11,3,.11.82,0,2.26-.06,4.34-.17l2.15-.07v1a2.54,2.54,0,0,0-.49-.05c-1.47,0-2.43.38-2.89,1.14s-.69,2.3-.69,4.63V21.12q0,5.34,2.53,8.31a8.53,8.53,0,0,0,6.82,3q5.13,0,7.49-2.93t2.35-9.3q0-7.86-.16-11.85a20.13,20.13,0,0,0-.56-5,3,3,0,0,0-1.15-1.55,4.18,4.18,0,0,0-2-.37H273l-.26,0v-1l2.69.14c1.25.06,2.27.1,3.05.1s1.58,0,2.44-.07,1.64-.11,2.36-.17Z"/></g></g></svg>