<svg xmlns="http://www.w3.org/2000/svg" viewBox="0 0 228.75 34.55"><defs><style>.cls-1{fill:#231815;}</style></defs><title>concept</title><g id="レイヤー_2" data-name="レイヤー 2"><g id="レイヤー_1-2" data-name="レイヤー 1"><path class="cls-1" d="M29.77,26.39a21.59,21.59,0,0,0-1.25,2.74c-.5,1.27-.88,2.35-1.14,3.26A18.89,18.89,0,0,1,22.65,34a25.68,25.68,0,0,1-5.35.57Q9.47,34.55,4.73,30T0,17.77Q0,9.84,4.92,4.92T17.77,0a30.77,30.77,0,0,1,5.42.48,29.68,29.68,0,0,1,5.24,1.44c0,.28-.05.6-.07.94s0,.67,0,1q0,1.25.12,2.73c.09,1,.2,1.92.34,2.78l-1.19.26a8.91,8.91,0,0,0-3.27-5.88,11.22,11.22,0,0,0-7-2c-3.92,0-6.91,1.28-8.94,3.84S5.3,11.85,5.3,16.8A17.59,17.59,0,0,0,8.88,28.18a11.45,11.45,0,0,0,9.38,4.47,11.28,11.28,0,0,0,6.15-1.79,12.11,12.11,0,0,0,4.39-4.94Z"/><path class="cls-1" d="M67.22,17.27a16.9,16.9,0,0,1-4.89,12.25,16,16,0,0,1-11.92,5A16,16,0,0,1,38.3,29.67a17.14,17.14,0,0,1-4.69-12.4,16.83,16.83,0,0,1,5-12.2A16,16,0,0,1,50.41,0,16,16,0,0,1,62.48,4.91,17.07,17.07,0,0,1,67.22,17.27Zm-5.27,1q0-7.5-3.33-12A10.3,10.3,0,0,0,50,1.69a9.62,9.62,0,0,0-7.93,4q-3.1,4-3.11,10.6,0,7.5,3.31,12a10.34,10.34,0,0,0,8.69,4.46,9.64,9.64,0,0,0,7.93-4Q61.94,24.8,62,18.23Z"/><path class="cls-1" d="M106.34,1.48a3.29,3.29,0,0,0-.54-.05,3.51,3.51,0,0,0-1.54.33,2.35,2.35,0,0,0-1,.89c-.39.58-.65,2-.77,4.38s-.19,5.92-.19,10.74v9.58c0,1.33,0,2.66.14,4a25.47,25.47,0,0,0,.33,3H101a5.13,5.13,0,0,0-.56-.86c-.28-.38-.65-.84-1.1-1.39L77.77,6.23V16.8c0,5.47,0,9.22.17,11.25s.38,3.33.79,3.87a2.81,2.81,0,0,0,1.19.92,5.49,5.49,0,0,0,1.92.28c.33,0,.65,0,1,0v1L81.47,34c-2.08-.11-3.56-.17-4.43-.17S75,33.9,73,34l-1.45.07v-1l.31,0h.46a3.63,3.63,0,0,0,1.52-.32,2.44,2.44,0,0,0,1.06-.88q.59-.87.78-4.38t.18-10.74V7.69a11.32,11.32,0,0,0-.73-4.91,3,3,0,0,0-2.85-1.35c-.17,0-.42,0-.73.05v-1l.24,0c1.84.16,3.21.24,4.12.24.44,0,1,0,1.68-.08L79.69.47a10.61,10.61,0,0,0,1,1.88c.43.65,1.05,1.46,1.86,2.45l17.77,21.36V17.77c0-5.32,0-9-.13-11.2a10.21,10.21,0,0,0-.6-3.92,2.4,2.4,0,0,0-1.17-.95,5.78,5.78,0,0,0-2-.27L96,1.48v-1l3.2.2c.74,0,1.35.06,1.84.06s1.28,0,2.19-.08l3.11-.18Z"/><path class="cls-1" d="M140.65,26.39a21.87,21.87,0,0,0-1.24,2.74c-.5,1.27-.89,2.35-1.15,3.26A19,19,0,0,1,133.54,34a25.77,25.77,0,0,1-5.36.57q-7.83,0-12.56-4.56t-4.74-12.22q0-7.93,4.92-12.85T128.65,0a30.6,30.6,0,0,1,5.42.48,29.68,29.68,0,0,1,5.24,1.44c0,.28-.05.6-.07.94s0,.67,0,1c0,.83,0,1.74.13,2.73s.2,1.92.34,2.78l-1.2.26a8.91,8.91,0,0,0-3.27-5.88,11.2,11.2,0,0,0-7-2q-5.88,0-8.94,3.84T116.18,16.8a17.59,17.59,0,0,0,3.59,11.38,11.44,11.44,0,0,0,9.37,4.47,11.28,11.28,0,0,0,6.15-1.79,12.13,12.13,0,0,0,4.4-4.94Z"/><path class="cls-1" d="M170.18,27.12c-.45,1.36-.84,2.6-1.15,3.74s-.57,2.2-.77,3.22L165.68,34q-5.42-.16-8.7-.17-4.59,0-12.51.21l-.45,0v-1a2.11,2.11,0,0,0,.34,0H145a2.64,2.64,0,0,0,2.71-1.49q.65-1.48.65-5.94V8.16q0-4.32-.6-5.52c-.4-.81-1.32-1.21-2.76-1.21h-.44l-.28,0v-1l.75,0Q153.35,1,157,1c1.22,0,2.77,0,4.63-.12s3.84-.2,5.92-.35c0,1,0,2,.12,3.05s.2,2.33.37,3.75l-1,.14q-1-3.28-2.38-4c-.94-.5-2.87-.75-5.77-.75l-3.23,0c-1.1,0-2.07.06-2.91.11,0,1.37-.06,3-.07,4.79s0,4.61,0,8.36c.38,0,.76.08,1.14.1s.8,0,1.25,0h4.32a10.82,10.82,0,0,0,4.58-.66,3,3,0,0,0,1.42-2.55l1,.09a15.54,15.54,0,0,0-.25,1.86C166,15.5,166,16.24,166,17s0,1.51.08,2.25.14,1.5.25,2.3l-1,.11A3.77,3.77,0,0,0,164,18.63a9.48,9.48,0,0,0-4.58-.77h-4.32c-.47,0-.89,0-1.27,0s-.76.06-1.12.11q0,3.13.06,7c0,2.58.1,4.79.18,6.65,1.07.13,2.18.23,3.32.3s2.19.1,3.15.1q4.5,0,6.45-1t3.39-4.3Z"/><path class="cls-1" d="M199.48,9.84a9.12,9.12,0,0,1-3.74,7.47,14.86,14.86,0,0,1-9.48,2.94q-1.17,0-3.24-.21l-.58-.07q0,6.3.17,8.72a6.66,6.66,0,0,0,.79,3.23,2.69,2.69,0,0,0,1.17.92,5.6,5.6,0,0,0,2,.28c.31,0,.63,0,1,0v1L186.12,34c-2.47-.11-4.34-.17-5.6-.17s-3.36.07-5.89.19l-.84,0v-1a2.11,2.11,0,0,0,.34,0h.62a2.66,2.66,0,0,0,2.72-1.41q.63-1.41.63-6.28V8.16q0-4.32-.6-5.52c-.39-.81-1.31-1.21-2.75-1.21h-.45l-.28,0v-1l1.1.07c2.29.12,4.08.19,5.4.19.59,0,1.65,0,3.17-.13s2.7-.13,3.53-.13q5.63,0,8.94,2.52A8.15,8.15,0,0,1,199.48,9.84Zm-4.81.24a7.28,7.28,0,0,0-2.45-5.74,9.26,9.26,0,0,0-6.43-2.18c-.55,0-1.1,0-1.67,0s-1.09.1-1.59.18c-.05,1.88-.07,3.88-.08,6s0,5.42,0,9.82c.61.08,1.17.14,1.67.18s1,.06,1.44.06a9.31,9.31,0,0,0,6.58-2.36A7.87,7.87,0,0,0,194.67,10.08Z"/><path class="cls-1" d="M228.75,7.43l-1,.26q-.94-3.24-2.17-4.14a7.57,7.57,0,0,0-4.3-.9h-4.71c-.06,2.39-.09,4.23-.09,5.51V25.43q0,5,.72,6.33c.49.9,1.53,1.36,3.12,1.36h.49l.47,0v1c-1.86-.1-3.3-.16-4.32-.19s-1.91,0-2.64,0-1.64,0-2.66,0-2.46.09-4.3.19v-1l.44,0h.52c1.58,0,2.61-.46,3.09-1.36s.73-3,.73-6.33V8.16c0-1.28,0-3.12-.09-5.51h-4.46a8.06,8.06,0,0,0-4.58,1,7.61,7.61,0,0,0-2.38,4l-1-.26a30,30,0,0,0,.74-3.54,26.86,26.86,0,0,0,.22-3.66,9,9,0,0,0,2.87.61c1.12.08,2.88.12,5.29.12H219.4c2.5,0,4.37,0,5.62-.13a14.32,14.32,0,0,0,3.4-.6,12.76,12.76,0,0,0-.14,2.16c0,.75,0,1.52.11,2.31S228.58,6.4,228.75,7.43Z"/></g></g></svg>