<svg xmlns="http://www.w3.org/2000/svg" viewBox="0 0 321.63 34.8"><defs><style>.cls-1{fill:#231815;}</style></defs><title>fruitpicnic</title><g id="レイヤー_2" data-name="レイヤー 2"><g id="レイヤー_1-2" data-name="レイヤー 1"><path class="cls-1" d="M24,7.29l-1,.14q-1-3.28-2.38-4c-.95-.5-2.87-.75-5.78-.75l-3.22,0c-1.1,0-2.07.06-2.92.11,0,1.37-.05,3-.07,4.8s0,4.66,0,8.49c.36,0,.73.08,1.11.1s.81,0,1.28,0h3.84a10.66,10.66,0,0,0,4.53-.68A3,3,0,0,0,20.88,13l.94.09c-.09.6-.17,1.24-.23,1.94a20.38,20.38,0,0,0-.1,2c0,.73,0,1.53.1,2.38s.14,1.61.23,2.28l-.94.14a3.68,3.68,0,0,0-1.45-3.05A9.21,9.21,0,0,0,14.88,18H11c-.47,0-.9,0-1.28,0s-.75.05-1.11.1q0,7.41.16,10.18a7.35,7.35,0,0,0,.8,3.6,2.69,2.69,0,0,0,1.17.92,5.6,5.6,0,0,0,2,.28c.31,0,.63,0,1,0v1L12.33,34c-2.47-.11-4.34-.17-5.6-.17S3.38,33.91.84,34l-.84,0v-1a2.11,2.11,0,0,0,.34,0H1a2.66,2.66,0,0,0,2.72-1.41q.63-1.41.63-6.28V8.16q0-4.32-.6-5.52C3.32,1.83,2.4,1.43,1,1.43H.52l-.29,0v-1L1,.52Q9.34,1,13,1c1.22,0,2.76,0,4.63-.12s3.84-.2,5.92-.35c0,1,0,2,.11,3.05S23.83,5.87,24,7.29Z"/><path class="cls-1" d="M59,34l-.7.1c-.63.15-1.2.27-1.7.35a9.32,9.32,0,0,1-1.44.12,9,9,0,0,1-3.94-.76,7.2,7.2,0,0,1-2.77-2.64c-.48-.73-1.15-1.78-2-3.14-.28-.45-.5-.78-.64-1l-2.15-3.44c-.74-1.14-1.35-2.08-1.84-2.81s-.81-1.17-1-1.33c-.55.08-1.17.14-1.86.19s-1.39.07-2.08.07H35.53v5.84q0,5,.69,6.44c.46,1,1.43,1.42,2.9,1.42h.72v.74c-.12,0-.31,0-.56,0q-4.17-.21-5.93-.21t-5.9.21c-.27,0-.46,0-.57,0V33.3a2.11,2.11,0,0,0,.34,0h.62a2.62,2.62,0,0,0,2.71-1.51q.64-1.52.65-6.05V8.16q0-4.32-.6-5.52c-.4-.81-1.32-1.21-2.76-1.21H27.4l-.28,0v-1l.28,0c2.61.16,4.51.24,5.72.24.79,0,1.92,0,3.36-.13S39.05.47,39.84.47a14.69,14.69,0,0,1,8.83,2.47,7.6,7.6,0,0,1,3.41,6.41,8.21,8.21,0,0,1-1.62,5,13.84,13.84,0,0,1-4.85,3.92L51.35,27a30.91,30.91,0,0,0,3.95,5.17,4.37,4.37,0,0,0,3,1.17H59ZM47.27,10.08a7.39,7.39,0,0,0-2.39-5.72,8.82,8.82,0,0,0-6.23-2.2c-.47,0-1,0-1.51.07s-1,.1-1.52.16q0,2.76-.07,6c0,2.15,0,5.24,0,9.29.19,0,.46,0,.82,0,1.25.09,2.25.14,3,.14l2.36,0c.5,0,.92,0,1.25-.07a8.43,8.43,0,0,0,3.22-3.19A9,9,0,0,0,47.27,10.08Z"/><path class="cls-1" d="M92.65,1.48a2.5,2.5,0,0,0-.47-.05,4.07,4.07,0,0,0-1.82.36A2.38,2.38,0,0,0,89.3,2.88a8.55,8.55,0,0,0-.45,2.66Q88.72,7.6,88.71,12v9.12q0,6.6-3.19,10.15T76.34,34.8q-6.59,0-10.14-3.7T62.65,20.65q0-2,.07-6c.05-2.68.07-4.61.07-5.78q0-4.76-.65-6.1a2.6,2.6,0,0,0-2.61-1.35,2.91,2.91,0,0,0-.49.05v-1l3,.13c1.46.07,2.47.11,3.05.11.81,0,2.26-.06,4.34-.17L71.53.49v1A2.54,2.54,0,0,0,71,1.43c-1.47,0-2.43.38-2.9,1.14s-.69,2.3-.69,4.63V21.12c0,3.56.85,6.33,2.53,8.31a8.54,8.54,0,0,0,6.82,3c3.43,0,5.92-1,7.49-2.93s2.36-5.05,2.36-9.3q0-7.86-.17-11.85a19.14,19.14,0,0,0-.56-5A2.88,2.88,0,0,0,84.77,1.8a4.16,4.16,0,0,0-2-.37h-.43l-.27,0v-1l2.7.14c1.25.06,2.26.1,3,.1s1.58,0,2.44-.07S91.93.55,92.65.49Z"/><path class="cls-1" d="M109.69,34.08l-.52,0q-4.22-.21-6.21-.21t-6.19.21l-.51,0v-1l.29,0h.67c1.48,0,2.45-.46,2.9-1.39s.68-3,.68-6.3V8.16q0-4.36-.63-5.55c-.42-.79-1.4-1.18-3-1.18h-.45l-.28,0v-1l.47,0q4.32.24,6,.24t5.91-.21l.58-.05v1l-.28,0h-.44c-1.55,0-2.53.39-3,1.18s-.63,2.64-.63,5.55V25.43q0,4.92.68,6.3c.45.93,1.42,1.39,2.91,1.39h.66l.3,0Z"/><path class="cls-1" d="M140.41,7.43l-1,.26q-.93-3.24-2.16-4.14a7.63,7.63,0,0,0-4.31-.9h-4.71c-.06,2.39-.09,4.23-.09,5.51V25.43q0,5,.73,6.33c.48.9,1.52,1.36,3.11,1.36h.5l.46,0v1c-1.86-.1-3.3-.16-4.32-.19s-1.9,0-2.64,0-1.63,0-2.66,0-2.45.09-4.3.19v-1l.45,0H120c1.58,0,2.61-.46,3.1-1.36s.72-3,.72-6.33V8.16c0-1.28,0-3.12-.09-5.51H119.3a8.1,8.1,0,0,0-4.59,1,7.54,7.54,0,0,0-2.37,4l-1-.26a29.85,29.85,0,0,0,.73-3.54,26.75,26.75,0,0,0,.23-3.66,8.91,8.91,0,0,0,2.87.61c1.11.08,2.88.12,5.28.12h10.57c2.5,0,4.38,0,5.63-.13a14.41,14.41,0,0,0,3.4-.6A11.78,11.78,0,0,0,140,2.39c0,.75,0,1.52.1,2.31S140.24,6.4,140.41,7.43Z"/><path class="cls-1" d="M183.14,9.84a9.12,9.12,0,0,1-3.74,7.47,14.86,14.86,0,0,1-9.48,2.94c-.78,0-1.86-.07-3.23-.21L166.1,20q0,6.3.18,8.72a6.68,6.68,0,0,0,.78,3.23,2.81,2.81,0,0,0,1.17.92,5.6,5.6,0,0,0,2,.28c.31,0,.63,0,1,0v1L169.78,34c-2.47-.11-4.33-.17-5.6-.17s-3.35.07-5.88.19l-.85,0v-1a2.11,2.11,0,0,0,.34,0h.62a2.66,2.66,0,0,0,2.72-1.41c.42-.94.64-3,.64-6.28V8.16q0-4.32-.6-5.52c-.4-.81-1.32-1.21-2.76-1.21H158l-.28,0v-1l1.1.07c2.28.12,4.08.19,5.39.19.59,0,1.65,0,3.18-.13s2.69-.13,3.52-.13q5.63,0,8.94,2.52A8.12,8.12,0,0,1,183.14,9.84Zm-4.8.24a7.31,7.31,0,0,0-2.45-5.74,9.31,9.31,0,0,0-6.44-2.18c-.54,0-1.1,0-1.66,0s-1.09.1-1.59.18c0,1.88-.08,3.88-.09,6s0,5.42,0,9.82q.92.12,1.68.18t1.44.06a9.27,9.27,0,0,0,6.57-2.36A7.84,7.84,0,0,0,178.34,10.08Z"/><path class="cls-1" d="M198.49,34.08l-.51,0q-4.23-.21-6.21-.21t-6.19.21l-.52,0v-1l.3,0H186c1.49,0,2.46-.46,2.91-1.39s.68-3,.68-6.3V8.16q0-4.36-.63-5.55c-.43-.79-1.41-1.18-3-1.18h-.44l-.28,0v-1l.47,0q4.3.24,6,.24t5.9-.21l.59-.05v1l-.28,0h-.45c-1.55,0-2.53.39-2.95,1.18S194,5.25,194,8.16V25.43q0,4.92.67,6.3c.46.93,1.43,1.39,2.91,1.39h.67l.29,0Z"/><path class="cls-1" d="M232.34,26.39a21.59,21.59,0,0,0-1.25,2.74c-.5,1.27-.88,2.35-1.14,3.26A18.89,18.89,0,0,1,225.22,34a25.68,25.68,0,0,1-5.35.57Q212,34.55,207.3,30t-4.73-12.22q0-7.93,4.92-12.85T220.34,0a30.77,30.77,0,0,1,5.42.48A29.68,29.68,0,0,1,231,1.92c0,.28-.05.6-.07.94s0,.67,0,1c0,.83,0,1.74.13,2.73s.19,1.92.34,2.78l-1.2.26a8.91,8.91,0,0,0-3.27-5.88,11.22,11.22,0,0,0-7-2C216,1.69,213,3,210.93,5.53s-3.06,6.32-3.06,11.27a17.59,17.59,0,0,0,3.58,11.38,11.45,11.45,0,0,0,9.38,4.47A11.28,11.28,0,0,0,227,30.86a12.2,12.2,0,0,0,4.4-4.94Z"/><path class="cls-1" d="M270.52,1.48a3.29,3.29,0,0,0-.54-.05,3.51,3.51,0,0,0-1.54.33,2.35,2.35,0,0,0-1,.89q-.58.87-.78,4.38c-.12,2.35-.18,5.92-.18,10.74v9.58c0,1.33,0,2.66.14,4a25.47,25.47,0,0,0,.33,3h-1.69a5.87,5.87,0,0,0-.56-.86c-.28-.38-.65-.84-1.11-1.39L242,6.23V16.8c0,5.47.05,9.22.17,11.25s.38,3.33.79,3.87a2.81,2.81,0,0,0,1.19.92,5.49,5.49,0,0,0,1.92.28c.33,0,.65,0,1,0v1L245.65,34c-2.08-.11-3.56-.17-4.43-.17-.72,0-2.07.06-4.06.17l-1.45.07v-1l.31,0h.46A3.63,3.63,0,0,0,238,32.8a2.44,2.44,0,0,0,1.06-.88q.58-.87.78-4.38T240,16.8V7.69a11.32,11.32,0,0,0-.73-4.91,3,3,0,0,0-2.85-1.35c-.17,0-.42,0-.73.05v-1l.24,0c1.84.16,3.21.24,4.12.24.44,0,1,0,1.68-.08l2.12-.18a10.61,10.61,0,0,0,1,1.88c.43.65,1.05,1.46,1.86,2.45l17.77,21.36V17.77c0-5.32,0-9-.13-11.2a10.21,10.21,0,0,0-.6-3.92,2.4,2.4,0,0,0-1.17-.95,5.78,5.78,0,0,0-1.95-.27l-.49.05v-1l3.2.2c.74,0,1.35.06,1.84.06s1.28,0,2.19-.08l3.11-.18Z"/><path class="cls-1" d="M287.79,34.08l-.52,0q-4.22-.21-6.21-.21t-6.18.21l-.52,0v-1l.29,0h.67c1.48,0,2.45-.46,2.91-1.39s.68-3,.68-6.3V8.16q0-4.36-.64-5.55c-.42-.79-1.4-1.18-2.95-1.18h-.44l-.29,0v-1l.47,0q4.32.24,6,.24T287,.52l.58-.05v1l-.28,0h-.44c-1.55,0-2.53.39-2.95,1.18s-.64,2.64-.64,5.55V25.43q0,4.92.68,6.3c.46.93,1.42,1.39,2.91,1.39h.67l.29,0Z"/><path class="cls-1" d="M321.63,26.39a21.87,21.87,0,0,0-1.24,2.74c-.5,1.27-.88,2.35-1.15,3.26A18.81,18.81,0,0,1,314.52,34a25.7,25.7,0,0,1-5.36.57q-7.82,0-12.56-4.56t-4.73-12.22q0-7.93,4.92-12.85T309.63,0a30.79,30.79,0,0,1,5.43.48,29.91,29.91,0,0,1,5.24,1.44c0,.28-.06.6-.07.94s0,.67,0,1c0,.83.05,1.74.13,2.73s.2,1.92.34,2.78l-1.19.26a9,9,0,0,0-3.27-5.88,11.23,11.23,0,0,0-7-2q-5.88,0-8.94,3.84T297.16,16.8a17.59,17.59,0,0,0,3.59,11.38,11.84,11.84,0,0,0,15.53,2.68,12.18,12.18,0,0,0,4.39-4.94Z"/></g></g></svg>