<svg xmlns="http://www.w3.org/2000/svg" viewBox="0 0 207.38 34.55"><defs><style>.cls-1{fill:#231815;}</style></defs><title>gallery</title><g id="レイヤー_2" data-name="レイヤー 2"><g id="レイヤー_1-2" data-name="レイヤー 1"><path class="cls-1" d="M32.41,19.69a2.73,2.73,0,0,0-2.48,1,7.82,7.82,0,0,0-.63,3.79v3.84c0,.88,0,1.69.06,2.44s.09,1.46.15,2.13q-4.25,1-6.63,1.34a33.93,33.93,0,0,1-4.62.33Q10,34.55,5,30T0,17.77q0-8,5.17-12.88T18.73,0a30.77,30.77,0,0,1,5.42.48A27.41,27.41,0,0,1,29.3,1.92a30.26,30.26,0,0,0,.16,3.21c.11,1,.29,2.21.54,3.52l-1.2.23a9.14,9.14,0,0,0-3.55-5.59c-1.64-1.07-4.14-1.6-7.48-1.6a11.21,11.21,0,0,0-9,4.09Q5.3,9.86,5.3,16.8q0,7.2,3.81,11.52a12.78,12.78,0,0,0,10.11,4.33,16.93,16.93,0,0,0,3-.25,14.07,14.07,0,0,0,2.63-.71c0-.85.05-1.76.07-2.76s0-2.48,0-4.46-.29-3.14-.87-3.8-1.72-1-3.44-1a4.51,4.51,0,0,0-.73.09V18.73h.24q4,.22,6.25.23c1.21,0,3.11-.08,5.72-.23h.28Z"/><path class="cls-1" d="M67,34.08,65.7,34c-2.15-.11-3.72-.17-4.74-.17-1.23,0-3,.06-5.2.17l-1.53.07v-1a2.65,2.65,0,0,0,.5,0,4.11,4.11,0,0,0,2.33-.54A1.84,1.84,0,0,0,57.84,31a11.25,11.25,0,0,0-.56-2.89c-.37-1.29-1.16-3.53-2.34-6.72-.85-.05-1.76-.08-2.74-.1s-2.07,0-3.24,0-2.26,0-3.22,0-1.8.05-2.52.1l-.73,1.85Q40.08,29.49,40.08,31a1.84,1.84,0,0,0,.78,1.62,4.15,4.15,0,0,0,2.34.54,2.91,2.91,0,0,0,.49,0l0,1c-.93-.08-1.86-.14-2.77-.18s-1.75-.06-2.5-.06-1.56,0-2.47.06-1.84.1-2.78.18l0-1a2.54,2.54,0,0,0,.49,0,3.34,3.34,0,0,0,2-.69,5.42,5.42,0,0,0,1.59-2c.57-1.14,1.71-3.84,3.39-8.09S45.15,10.75,49.2.23h3.37q3.38,10.13,6.22,18.4t4.09,11.6a5.05,5.05,0,0,0,1.42,2.23,3.4,3.4,0,0,0,2.17.66,2.63,2.63,0,0,0,.49,0ZM54.33,19.43,49.43,4.55,43.92,19.43c.55.08,1.33.14,2.33.19s1.91.07,2.71.07,1.67,0,2.72-.07S53.61,19.51,54.33,19.43Z"/><path class="cls-1" d="M92.39,27c-.51,1.65-.92,3-1.21,4.1s-.52,2.08-.71,3L87.73,34q-5.2-.16-8.07-.17-4.09,0-12,.21l-.49,0v-1a2,2,0,0,0,.34,0h.62a2.67,2.67,0,0,0,2.72-1.41q.63-1.41.63-6.28V8.16q0-4.32-.6-5.52c-.4-.81-1.32-1.21-2.75-1.21h-.45l-.28,0v-1l1.15.07c2.23.12,3.93.19,5.08.19q2,0,6.19-.21l.54-.05v1a2.5,2.5,0,0,0-.47-.05c-1.73,0-2.83.44-3.29,1.32s-.69,2.69-.69,5.41q0,9.11.07,14.21t.21,9.32c1.09.12,2.12.22,3.08.28s1.89.09,2.78.09a14,14,0,0,0,5.76-.9c1.27-.6,2.46-2.11,3.59-4.51Z"/><path class="cls-1" d="M118.31,27c-.51,1.65-.92,3-1.2,4.1s-.53,2.08-.72,3L113.65,34q-5.2-.16-8.06-.17-4.11,0-12,.21l-.49,0v-1a2.11,2.11,0,0,0,.34,0h.62a2.66,2.66,0,0,0,2.72-1.41q.63-1.41.63-6.28V8.16q0-4.32-.6-5.52c-.4-.81-1.31-1.21-2.75-1.21h-.45l-.28,0v-1L94.5.54c2.23.12,3.93.19,5.09.19q2,0,6.18-.21l.54-.05v1a2.42,2.42,0,0,0-.47-.05c-1.73,0-2.83.44-3.29,1.32s-.69,2.69-.69,5.41q0,9.11.07,14.21t.21,9.32c1.09.12,2.12.22,3.08.28s1.89.09,2.78.09a14.12,14.12,0,0,0,5.77-.9c1.26-.6,2.46-2.11,3.58-4.51Z"/><path class="cls-1" d="M145.2,27.12c-.46,1.36-.84,2.6-1.15,3.74s-.57,2.2-.78,3.22L140.7,34q-5.41-.16-8.7-.17-4.59,0-12.52.21l-.44,0v-1a2.11,2.11,0,0,0,.34,0H120a2.64,2.64,0,0,0,2.71-1.49q.65-1.48.64-5.94V8.16q0-4.32-.6-5.52c-.39-.81-1.31-1.21-2.75-1.21h-.45l-.28,0v-1l.75,0Q128.38,1,132,1c1.22,0,2.76,0,4.63-.12s3.84-.2,5.92-.35c0,1,0,2,.11,3.05s.21,2.33.38,3.75l-1,.14c-.64-2.19-1.44-3.53-2.38-4s-2.87-.75-5.78-.75l-3.22,0c-1.1,0-2.08.06-2.92.11,0,1.37,0,3-.07,4.79s0,4.61,0,8.36c.37,0,.75.08,1.13.1s.8,0,1.26,0h4.31a10.82,10.82,0,0,0,4.58-.66,3,3,0,0,0,1.42-2.55l1,.09a15.64,15.64,0,0,0-.24,1.86q-.09,1-.09,2.22t.09,2.25c0,.73.13,1.5.24,2.3l-1,.11A3.74,3.74,0,0,0,139,18.63a9.48,9.48,0,0,0-4.58-.77h-4.31c-.47,0-.9,0-1.28,0s-.75.06-1.11.11q0,3.13.06,7c0,2.58.09,4.79.17,6.65q1.62.19,3.33.3c1.14.07,2.19.1,3.14.1q4.5,0,6.46-1t3.38-4.3Z"/><path class="cls-1" d="M181,34l-.7.1c-.63.15-1.19.27-1.7.35a9.32,9.32,0,0,1-1.44.12,9,9,0,0,1-3.94-.76,7.27,7.27,0,0,1-2.77-2.64c-.48-.73-1.15-1.78-2-3.14l-.63-1-2.16-3.44c-.73-1.14-1.35-2.08-1.84-2.81s-.81-1.17-1-1.33c-.55.08-1.17.14-1.86.19s-1.39.07-2.08.07h-1.43v5.84q0,5,.69,6.44a2.9,2.9,0,0,0,2.9,1.42h.73v.74c-.13,0-.32,0-.57,0-2.78-.14-4.75-.21-5.93-.21s-3.12.07-5.9.21c-.27,0-.46,0-.57,0V33.3a2.27,2.27,0,0,0,.34,0h.63a2.62,2.62,0,0,0,2.7-1.51q.65-1.52.65-6.05V8.16q0-4.32-.6-5.52c-.4-.81-1.32-1.21-2.75-1.21h-.45l-.28,0v-1l.28,0c2.61.16,4.52.24,5.72.24.8,0,1.92,0,3.36-.13S161,.47,161.77.47a14.64,14.64,0,0,1,8.82,2.47A7.6,7.6,0,0,1,174,9.35a8.21,8.21,0,0,1-1.62,5,13.84,13.84,0,0,1-4.85,3.92L173.27,27a31.48,31.48,0,0,0,3.95,5.17,4.37,4.37,0,0,0,3,1.17H181ZM169.2,10.08a7.4,7.4,0,0,0-2.4-5.72,8.82,8.82,0,0,0-6.23-2.2c-.47,0-1,0-1.51.07s-1,.1-1.51.16c0,1.84-.06,3.84-.07,6s0,5.24,0,9.29c.19,0,.46,0,.82,0,1.25.09,2.25.14,3,.14l2.36,0c.51,0,.92,0,1.25-.07a8.53,8.53,0,0,0,3.23-3.19A9.14,9.14,0,0,0,169.2,10.08Z"/><path class="cls-1" d="M207.38,1.43h-.73a3.31,3.31,0,0,0-2.38.93,26.4,26.4,0,0,0-3.13,4.37L193.45,19v6.47c0,3.31.25,5.42.73,6.33s1.52,1.36,3.12,1.36h.49l.47,0v1c-1.86-.1-3.3-.16-4.33-.19s-1.9,0-2.63,0-1.62,0-2.65,0-2.47.09-4.31.19v-1l.44,0h.52c1.58,0,2.61-.46,3.1-1.36s.74-3,.74-6.33V19.2l-7.45-13-.35-.63q-2.4-4.17-4-4.17H177l-.3,0v-1l1.45.09c1.92.11,3.36.17,4.31.17s1.82,0,2.84-.07,2.15-.11,3.4-.19v1c-.31,0-.56-.05-.73-.05a4.11,4.11,0,0,0-2,.37,1.18,1.18,0,0,0-.66,1.08,3.88,3.88,0,0,0,.31,1.41,18.41,18.41,0,0,0,1.12,2.18l5.86,10.33.37-.6q4.17-6.73,6-10a12.91,12.91,0,0,0,1-1.91,4.13,4.13,0,0,0,.26-1.44,1.23,1.23,0,0,0-.56-1.08A2.94,2.94,0,0,0,198,1.43c-.16,0-.39,0-.7.05v-1l1,.07c2,.12,3.49.19,4.52.19.79,0,2-.07,3.71-.19l.87-.07Z"/></g></g></svg>