<svg xmlns="http://www.w3.org/2000/svg" viewBox="0 0 148.55 34.55"><defs><style>.cls-1{fill:#231815;}</style></defs><title>home</title><g id="レイヤー_2" data-name="レイヤー 2"><g id="レイヤー_1-2" data-name="レイヤー 1"><path class="cls-1" d="M34.55,34.08l-.57,0q-4.17-.21-5.9-.21c-1.08,0-2.84.07-5.28.19l-1,0v-1l.27,0h.44a2.68,2.68,0,0,0,2.73-1.41q.64-1.41.64-6.28l0-7.43c-.81-.05-1.83-.08-3-.11s-3.07,0-5.59,0-4.38,0-5.59,0-2.22.06-3,.11v7.43q0,4.88.63,6.28A2.66,2.66,0,0,0,12,33.12h.45l.28,0v1l-1,0c-2.46-.12-4.22-.19-5.3-.19s-3.13.07-5.91.21l-.56,0v-1a2.11,2.11,0,0,0,.34,0H1a2.66,2.66,0,0,0,2.72-1.41q.63-1.41.63-6.28V8.16q0-4.32-.6-5.52C3.32,1.83,2.4,1.43,1,1.43H.52l-.29,0v-1L4,.67Q5.47.73,6.47.73C7.69.73,9.59.65,12.19.49h.28v1A2.5,2.5,0,0,0,12,1.43c-1.44,0-2.36.4-2.75,1.21s-.6,2.64-.6,5.52v7.78c.81,0,1.83.08,3,.1s3.08,0,5.59,0,4.36,0,5.58,0,2.24-.06,3.05-.1l0-7.78c0-2.88-.21-4.72-.61-5.52S24,1.43,22.55,1.43a2.5,2.5,0,0,0-.47.05v-1h.28c2.61.16,4.52.24,5.72.24.67,0,1.5,0,2.48-.06L34.31.49v1l-.28,0h-.42c-1.45,0-2.38.4-2.78,1.21s-.6,2.64-.6,5.52V25.43q0,4.88.65,6.28a2.68,2.68,0,0,0,2.73,1.41h.6a2.11,2.11,0,0,0,.34,0Z"/><path class="cls-1" d="M72.47,17.27a16.9,16.9,0,0,1-4.89,12.25,16,16,0,0,1-11.92,5,16,16,0,0,1-12.11-4.88,17.14,17.14,0,0,1-4.69-12.4,16.83,16.83,0,0,1,5-12.2A16,16,0,0,1,55.66,0,16,16,0,0,1,67.73,4.91,17.07,17.07,0,0,1,72.47,17.27Zm-5.27,1q0-7.5-3.33-12A10.3,10.3,0,0,0,55.2,1.69a9.62,9.62,0,0,0-7.93,4q-3.1,4-3.11,10.6,0,7.5,3.31,12a10.34,10.34,0,0,0,8.69,4.46,9.63,9.63,0,0,0,7.93-4Q67.19,24.8,67.2,18.23Z"/><path class="cls-1" d="M118.05,34.08l-.63,0c-2.31-.12-4.1-.19-5.37-.19-1.06,0-2.82.07-5.27.19l-1,0v-1l.52,0,.44,0a3.37,3.37,0,0,0,2.4-.69A3.31,3.31,0,0,0,109.9,30q0-3.7-.27-10.42T108.94,6l-.24.73L98.86,27.84a29,29,0,0,0-1.23,3,18.36,18.36,0,0,0-.69,2.79h-1.2a12.26,12.26,0,0,0-.51-1.71c-.24-.63-.78-1.9-1.64-3.82L84.21,7.2l-.7-1.43-.26,3.84q-.33,4.8-.52,10t-.18,9.7a4.49,4.49,0,0,0,.76,3.05,3.88,3.88,0,0,0,2.82.8c.17,0,.42,0,.73,0v1l-.77,0c-2.21-.12-3.79-.19-4.76-.19s-2.29.06-4.2.17l-1.08.07v-1c.33,0,.57,0,.73,0a4.17,4.17,0,0,0,1.82-.33,2.41,2.41,0,0,0,1.06-1.1c.29-.58.57-3.19.87-7.83,0-.59.08-1,.09-1.31l.47-7.17c0-.61.18-2.42.4-5.41s.33-4.8.33-5.42a3.24,3.24,0,0,0-.75-2.37,3.24,3.24,0,0,0-2.37-.75,2.91,2.91,0,0,0-.49.05v-1l.63.05c1.94.14,3.25.21,3.94.21.49,0,1.11,0,1.86-.08L87,.47c0,.19,0,.33-.07.43s0,.2,0,.27c0,.87.64,2.68,1.92,5.46.2.45.36.8.47,1l8.41,18.26,7.43-15.84c1.74-3.7,2.77-6,3.11-6.84a6,6,0,0,0,.5-2.07,1.32,1.32,0,0,0,0-.27c0-.1,0-.24-.07-.43l1.36.1c1.22.1,2.15.16,2.81.16S114,.7,114.9.64l2.19-.17v1a2.42,2.42,0,0,0-.47-.05,4,4,0,0,0-2.7.71,3.32,3.32,0,0,0-.76,2.48c0,.45,0,1.54.1,3.26s.15,3.41.25,5.08l.47,8.63c.18,3.21.33,5.51.43,6.87s.2,2.29.29,2.76a2.29,2.29,0,0,0,.81,1.48,3.2,3.2,0,0,0,1.82.42l.72,0Z"/><path class="cls-1" d="M148.55,27.12c-.46,1.36-.84,2.6-1.15,3.74s-.57,2.2-.78,3.22L144.05,34q-5.42-.16-8.7-.17-4.59,0-12.51.21l-.45,0v-1a2.11,2.11,0,0,0,.34,0h.62a2.64,2.64,0,0,0,2.71-1.49q.64-1.48.64-5.94V8.16q0-4.32-.59-5.52c-.4-.81-1.32-1.21-2.76-1.21h-.44l-.29,0v-1l.76,0q8.34.44,12,.44c1.22,0,2.76,0,4.63-.12s3.84-.2,5.92-.35c0,1,0,2,.12,3.05s.2,2.33.37,3.75l-1,.14q-1-3.28-2.38-4t-5.78-.75l-3.22,0c-1.1,0-2.07.06-2.92.11,0,1.37,0,3-.07,4.79s0,4.61,0,8.36c.37,0,.75.08,1.14.1s.8,0,1.25,0h4.31a10.79,10.79,0,0,0,4.58-.66,3,3,0,0,0,1.42-2.55l1,.09a15.64,15.64,0,0,0-.24,1.86c-.06.68-.08,1.42-.08,2.22s0,1.51.08,2.25.13,1.5.24,2.3l-1,.11a3.74,3.74,0,0,0-1.42-3.07c-.82-.51-2.34-.77-4.58-.77h-4.31c-.47,0-.89,0-1.28,0S131.4,18,131,18q0,3.13.06,7c0,2.58.1,4.79.17,6.65q1.62.19,3.33.3c1.14.07,2.19.1,3.14.1q4.5,0,6.46-1t3.39-4.3Z"/></g></g></svg>