<svg xmlns="http://www.w3.org/2000/svg" viewBox="0 0 116.88 34.55"><defs><style>.cls-1{fill:#231815;}</style></defs><title>info</title><g id="レイヤー_2" data-name="レイヤー 2"><g id="レイヤー_1-2" data-name="レイヤー 1"><path class="cls-1" d="M13.43,34.08l-.52,0q-4.21-.21-6.21-.21t-6.18.21l-.52,0v-1l.29,0H1c1.49,0,2.45-.46,2.91-1.39s.68-3,.68-6.3V8.16q0-4.36-.64-5.55C3.49,1.82,2.51,1.43,1,1.43H.52l-.29,0v-1L.7.49Q5,.73,6.7.73T12.61.52L13.2.47v1l-.29,0h-.44c-1.55,0-2.53.39-3,1.18s-.64,2.64-.64,5.55V25.43q0,4.92.68,6.3c.46.93,1.42,1.39,2.91,1.39h.67l.29,0Z"/><path class="cls-1" d="M51.84,1.48a3.1,3.1,0,0,0-.54-.05,3.5,3.5,0,0,0-1.53.33,2.35,2.35,0,0,0-1,.89Q48.15,3.52,48,7c-.12,2.35-.18,5.92-.18,10.74v9.58c0,1.33,0,2.66.14,4a28.48,28.48,0,0,0,.32,3H46.55a5.34,5.34,0,0,0-.57-.86c-.28-.38-.64-.84-1.1-1.39L23.27,6.23V16.8q0,8.2.18,11.25t.78,3.87a2.9,2.9,0,0,0,1.2.92,5.49,5.49,0,0,0,1.92.28c.33,0,.65,0,1,0v1L27,34c-2.08-.11-3.56-.17-4.43-.17s-2.07.06-4.06.17L17,34.08v-1l.3,0h.47a3.58,3.58,0,0,0,1.51-.32,2.41,2.41,0,0,0,1.07-.88c.39-.58.65-2,.77-4.38s.19-5.92.19-10.74V7.69a11.14,11.14,0,0,0-.74-4.91,2.94,2.94,0,0,0-2.84-1.35c-.18,0-.42,0-.73.05v-1l.23,0c1.85.16,3.22.24,4.13.24.44,0,1,0,1.67-.08L25.2.47a11.21,11.21,0,0,0,1,1.88A30.66,30.66,0,0,0,28.08,4.8L45.84,26.16V17.77q0-8-.13-11.2c-.08-2.14-.28-3.45-.59-3.92A2.4,2.4,0,0,0,44,1.7a5.78,5.78,0,0,0-2-.27l-.49.05v-1l3.2.2c.74,0,1.35.06,1.84.06s1.27,0,2.19-.08l3.1-.18Z"/><path class="cls-1" d="M79.92,7.29l-1,.14q-1-3.28-2.38-4T70.8,2.65l-3.22,0c-1.1,0-2.07.06-2.92.11,0,1.37,0,3-.07,4.8s0,4.66,0,8.49c.36,0,.73.08,1.11.1s.81,0,1.28,0H70.8a10.66,10.66,0,0,0,4.53-.68A3,3,0,0,0,76.8,13l.94.09c-.09.6-.17,1.24-.23,1.94s-.1,1.38-.1,2,0,1.53.1,2.38.14,1.61.23,2.28l-.94.14a3.66,3.66,0,0,0-1.45-3.05A9.21,9.21,0,0,0,70.8,18H67c-.47,0-.89,0-1.28,0s-.75.05-1.11.1q0,7.41.16,10.18a7.35,7.35,0,0,0,.8,3.6,2.69,2.69,0,0,0,1.17.92,5.6,5.6,0,0,0,2,.28c.31,0,.63,0,1,0v1L68.25,34c-2.47-.11-4.34-.17-5.6-.17s-3.35.07-5.88.19l-.85,0v-1a2.11,2.11,0,0,0,.34,0h.62a2.66,2.66,0,0,0,2.72-1.41q.63-1.41.63-6.28V8.16c0-2.88-.19-4.72-.59-5.52s-1.32-1.21-2.76-1.21h-.44l-.28,0v-1l.75,0q8.34.44,12,.44c1.22,0,2.76,0,4.63-.12s3.84-.2,5.92-.35c0,1,0,2,.12,3.05S79.75,5.87,79.92,7.29Z"/><path class="cls-1" d="M116.88,17.27A16.93,16.93,0,0,1,112,29.52a17.06,17.06,0,0,1-24,.15,17.18,17.18,0,0,1-4.69-12.4,16.87,16.87,0,0,1,5-12.2,16.83,16.83,0,0,1,23.92-.16A17.1,17.1,0,0,1,116.88,17.27Zm-5.27,1q0-7.5-3.33-12a10.3,10.3,0,0,0-8.67-4.52,9.62,9.62,0,0,0-7.92,4q-3.12,4-3.12,10.6,0,7.5,3.32,12a10.33,10.33,0,0,0,8.68,4.46,9.63,9.63,0,0,0,7.93-4Q111.6,24.8,111.61,18.23Z"/></g></g></svg>