<svg xmlns="http://www.w3.org/2000/svg" viewBox="0 0 580 580"><defs><style>.cls-1{fill:#231815;}</style></defs><title>logo01</title><g id="レイヤー_2" data-name="レイヤー 2"><g id="レイヤー_1-2" data-name="レイヤー 1"><path class="cls-1" d="M580,580H0V0H580ZM1.85,578.15h576.3V1.85H1.85Z"/><rect class="cls-1" x="270.63" y="110.81" width="38.74" height="1.85"/><rect class="cls-1" x="270.63" y="465.05" width="38.74" height="1.85"/><path class="cls-1" d="M172.14,215.84h-2.53a32.39,32.39,0,0,0-9.46-7.3,18.56,18.56,0,0,0-9.47-2.1c-6.94,0-7.37,1.23-7.37,9v12.15h5.56a16,16,0,0,0,6.65-1.09c2.89-1.23,4.19-4.84,4.26-7.73h2.46v18.86h-2.46c-.28-2.74-.57-5.35-2.89-6.87-1.59-1-2.16-1.22-7.37-1.22h-6.21V246c0,3.76.36,6.29,7.73,6.29h1v2H127v-2c7.16-.21,7.52-1.52,7.52-8.24v-29.7c0-2.67.14-5.06-1.3-6.43s-4.41-1.52-6.43-1.52v-2h41.12ZM138,215.19c0-7.09,0-9.33-5.06-8.82,1.59.51,2.75,1.66,2.75,5.57v33.24c0,5.49-.36,5.78-2.53,7.08,4.84.07,4.84-2.38,4.84-5.49Zm21.46,9.32c-.86,1.59-1.66,2.6-5,3.76,3.9,1,4.62,2.67,5,3.68Zm5-18.14h-6.58c3.47,1.08,5.71,2.17,10,5.85Z"/><path class="cls-1" d="M199.24,252.26c7.95-.21,7.88-1.73,7.88-7.66V213.89c0-3,0-4.92-.87-5.79-1.37-1.37-4.19-1.66-7-1.73v-2H226a23,23,0,0,1,10.77,2.09,12.7,12.7,0,0,1,7.37,11.13c0,4.92-3.83,11.57-13.44,13.16a90.12,90.12,0,0,1,6.07,6.86l3.4,4.12c.86,1,2.31,2.6,3.1,3.62,2.53,3.18,5.21,6.07,8.53,6.86v2h-5.42c-4.19,0-7.15-.21-13.66-8.67l-4.84-6.29c-1.66-2.16-3.47-4.33-5.35-6.43a3.49,3.49,0,0,0-3.39-1.44h-3.26v14.45c0,3.47.15,4.26,1.95,5.35,1.6.94,5.28,1.08,5.86,1.08v2H199.24Zm9-5.35c0,2.61-.36,4.27-2.38,5.35.94-.07,3.25-.07,4.19-1.81.43-.72.43-1.08.43-4.19V213.09c0-4.62-.28-6.94-5-6.72,2.74,1.23,2.74,2.53,2.74,7.08Zm7.59-17.49H220c12.94,0,14.46-6,14.46-11.56,0-4.34-1.3-6.58-2.46-8-2.1-2.53-4.55-3.47-9.76-3.47-5.85,0-6.36,2.31-6.36,7.08Zm6.36,2c.44.29.94.72,1.23.94,1.09,1,1.74,2,7.59,9.32,7.08,8.89,9,11.27,14.74,11.56-1.8-.79-3.68-1.73-7.44-6.36L230,236.58c-3.11-3.76-3.4-4.34-4.92-5.2Zm15.83-13.59c0-3.76-1-6.65-3.18-8.6a10,10,0,0,0-5.56-2.6c2.09,1.08,6.28,3.18,6.28,11.78,0,8.09-4.55,9.82-7.37,10.91C235.3,228.41,238.05,223.64,238.05,217.79Z"/><path class="cls-1" d="M271.36,204.42h23.86v2c-5.57.43-7.23.58-7.23,6.29V238.6c0,5,1.15,13.66,14.31,13.66,6.5,0,10.91-3,13-6.29,2-3.18,1.95-6.79,1.95-10.11v-14c0-10.56-1.52-15.18-8.89-15.47v-2h18.21v2c-6.79.87-7.15,7.88-7.23,9.54-.14,3.25-.07,3.61-.14,4.41v16.62c0,4.19,0,9.18-5.28,13.59-2.31,1.95-6.36,4.62-15.1,4.62-14.31,0-19.66-7.37-19.66-15.46V213.38c0-3.11,0-4.48-1.23-5.42-1.44-1.08-1.88-1.23-6.58-1.59Zm11.28,7.52c0-2.39,0-6.08-4.91-5.57,2.6,1.08,2.6,3.54,2.6,5.93V239c0,8.46,5,13.3,14.16,15-9.75-3.62-11.85-8.46-11.85-16.41Zm30.57-5.57c2.75,1.23,3.61,3.61,4.05,5.57.72-3.33,1.73-4.63,3.11-5.57Z"/><path class="cls-1" d="M376.37,206.37c-2.74.07-6.86.14-7.08,4-.15,2.31-.15,2.6-.22,3.1v31.8c0,5.86,1.59,6.8,7.3,6.94v2H352.88v-2c6.8-.21,7.38-1.73,7.38-6.94V214.68c0-5.49-.15-6.36-2.17-7.44-.65-.36-1.09-.44-5.21-.87v-2h23.49Zm-15,41c0,2.75-.57,3.69-2.89,4.84,3.4-.14,5.21-.65,5.21-4.62V212.15c0-3.32-.08-5.92-4.92-5.78,1.88.94,2.6,2.53,2.6,6.43Z"/><path class="cls-1" d="M453.77,216.05h-2.6a19.62,19.62,0,0,0-7.3-7.66c-3.32-1.88-4.84-1.88-10.84-2v38.52c0,5.56.36,7.08,7.88,7.37v2H416.19v-2c6.43-.21,8-.79,8-7.37V206.37c-3.68,0-7.08.29-10.77,2.31-3,1.66-5.85,5.21-7.37,7.37h-2.24l2.53-11.63h44.81Zm-46.61-9.68-1.38,6c2.61-3.4,3.4-4.12,7.09-6Zm20.52,4.19c0-1.59-.14-4.05-2.31-4.19v39.39c0,3.11-.15,4.91-2.53,6.5,4.55.15,4.84-1.88,4.84-7.88Zm20.45-4.19h-6.64c3.18,1,5.13,2.24,8.23,5.64Z"/><path class="cls-1" d="M126.85,375.59H101.19v-1.95c7.88-.07,7.88-1.8,7.88-7.66V338c0-8.81.07-10.33-7.88-10.33V325.8h24.28c2.32,0,8.24.51,10.41,1.23,4.05,1.37,10.12,5.13,10.12,12.36,0,5-3,10.4-10.55,12.57a39.1,39.1,0,0,1-10.7,1.09h-6.86v14.23c0,3.18,0,5.57,4.91,6.22.65.07,3.47.07,4,.14Zm-16.63-7c0,2.24-.43,4.19-2.6,5.06,4.56.08,4.92-1.44,4.92-4.55V338.16c0-2.82,0-7.09-.43-8.24-.66-1.81-2.32-2.17-4.78-2.31,2.53,1.15,2.89,2.31,2.89,8.81Zm7.67-17.49h4.26c1.66,0,5.85-.07,8.46-1.22,4.91-2.17,5.78-7.23,5.78-10.41a12.09,12.09,0,0,0-2.46-7.88c-2.09-2.67-4.48-3.83-9.83-3.83-1.88,0-4.33.29-5.35,1.88-.58.94-.86,1.52-.86,6.43Zm21.89-11.49c0-9.54-5.49-10.77-8.38-11.42a9,9,0,0,1,3.25,2.46,13.77,13.77,0,0,1,2.89,9,13.48,13.48,0,0,1-2.67,8.53,7.61,7.61,0,0,1-3.47,2.53C133.64,350.3,139.78,349.29,139.78,339.6Z"/><path class="cls-1" d="M195.43,327.75c-2.75.07-6.87.14-7.08,4.05-.15,2.31-.15,2.6-.22,3.11v31.8c0,5.85,1.59,6.79,7.3,6.93v1.95H171.94v-1.95c6.79-.21,7.37-1.73,7.37-6.93V336.06c0-5.49-.14-6.36-2.17-7.44-.65-.36-1.08-.44-5.2-.87V325.8h23.49Zm-15,41.05c0,2.75-.58,3.69-2.89,4.84,3.39-.14,5.2-.65,5.2-4.62V333.53c0-3.32-.07-5.92-4.91-5.78,1.88.94,2.6,2.53,2.6,6.43Z"/><path class="cls-1" d="M267.84,340.76h-2.09a34.78,34.78,0,0,0-5.42-8.31c-2.82-3-6.72-5.64-11.93-5.64-6,0-10,3.18-12.57,7.66s-3.62,10.27-3.62,15.47c0,12.5,6.36,23.85,18.29,23.85A20.86,20.86,0,0,0,263.29,369a25.87,25.87,0,0,0,4.55-5.06L270,365a25.59,25.59,0,0,1-7.52,7.45,26.19,26.19,0,0,1-14.88,4c-15.9,0-25.88-11.85-25.88-25.58,0-15.76,12-26.09,25.8-26.09,3.11,0,3.4.07,9.83,1.81a11.54,11.54,0,0,0,3,.43c3,0,3.9-1,4.69-2h2.82Zm-36.57-9a24.8,24.8,0,0,0-8.38,18.86c0,5.13,1.73,12.86,7.37,18.14a25,25,0,0,0,15.4,6.86c-14.17-3.68-20.46-14.52-20.46-24.79a26.57,26.57,0,0,1,4.27-14.23c3.54-5.21,7.22-7.59,10.91-9.9A28.61,28.61,0,0,0,231.27,331.73ZM263.36,328a8.18,8.18,0,0,1-3.4.72,13.32,13.32,0,0,1-1.73-.14c2.1,1.59,2.39,1.95,5.42,5.42Z"/><path class="cls-1" d="M352.61,327.75A8.39,8.39,0,0,0,346,331c-1.59,2-1.45,4.92-1.45,6.29l.65,39.39h-2.1l-36.06-42.13.51,28.32c.07,5.64.65,10.05,8.74,10.77v1.95H297.61v-1.95c2.89-.21,5.28-1.23,6.73-3.61,1.15-1.95,1.37-2.6,1.3-7.73l-.51-30.07c-1.37-1.52-4.34-4.7-8.38-4.48V325.8h14.6l31.87,37.07-.51-23.27-.14-4c-.36-3.69-1.81-5.93-5.28-7.23a8.76,8.76,0,0,0-3.54-.58V325.8h18.86ZM343.36,375c-.14-3-.14-3.33-.58-3.91a19.22,19.22,0,0,0-2.24-3l-31.8-37.08c-1.37-1.58-1.51-1.8-2.31-2.31a7.21,7.21,0,0,0-3.68-1.15,14.57,14.57,0,0,0-1.74.14c2.31.87,3,1.3,6.14,5.06Zm-34-1.38a7.15,7.15,0,0,1-3.32-5.06,7.37,7.37,0,0,1-4.12,5.06Zm29-45.89c2.39.8,3.62,1.95,4.77,4.55a6.7,6.7,0,0,1,3-4.55Z"/><path class="cls-1" d="M403.34,327.75c-2.74.07-6.86.14-7.08,4.05-.14,2.31-.14,2.6-.22,3.11v31.8c0,5.85,1.59,6.79,7.3,6.93v1.95H379.85v-1.95c6.8-.21,7.38-1.73,7.38-6.93V336.06c0-5.49-.15-6.36-2.17-7.44-.65-.36-1.09-.44-5.21-.87V325.8h23.49Zm-15,41.05c0,2.75-.57,3.69-2.89,4.84,3.4-.14,5.21-.65,5.21-4.62V333.53c0-3.32-.08-5.92-4.92-5.78,1.88.94,2.6,2.53,2.6,6.43Z"/><path class="cls-1" d="M474.31,340.76h-2.1a34.47,34.47,0,0,0-5.42-8.31,16,16,0,0,0-11.92-5.64c-6,0-10.05,3.18-12.58,7.66s-3.61,10.27-3.61,15.47c0,12.5,6.36,23.85,18.28,23.85a20.86,20.86,0,0,0,12.8-4.84,25.87,25.87,0,0,0,4.55-5.06l2.17,1.15a25.72,25.72,0,0,1-7.52,7.45,26.22,26.22,0,0,1-14.88,4c-15.9,0-25.88-11.85-25.88-25.58,0-15.76,12-26.09,25.8-26.09,3.11,0,3.4.07,9.83,1.81a11.53,11.53,0,0,0,3,.43c3,0,3.91-1,4.7-2h2.82Zm-36.57-9a24.8,24.8,0,0,0-8.38,18.86c0,5.13,1.73,12.86,7.37,18.14a25,25,0,0,0,15.39,6.86c-14.16-3.68-20.45-14.52-20.45-24.79a26.57,26.57,0,0,1,4.27-14.23c3.54-5.21,7.22-7.59,10.91-9.9A28.51,28.51,0,0,0,437.74,331.73ZM469.83,328a8.18,8.18,0,0,1-3.4.72,13.32,13.32,0,0,1-1.73-.14c2.09,1.59,2.38,1.95,5.42,5.42Z"/></g></g></svg>