<svg xmlns="http://www.w3.org/2000/svg" viewBox="0 0 580 580"><defs><style>.cls-1{fill:#fbdfdc;}.cls-2{fill:#8b6f4b;}</style></defs><title>logo01-pink</title><g id="レイヤー_2" data-name="レイヤー 2"><g id="レイヤー_1-2" data-name="レイヤー 1"><rect class="cls-1" width="580" height="580"/><path class="cls-2" d="M543.75,542.75H37.25V36.25h506.5ZM38.87,541.13H542.13V37.87H38.87Z"/><rect class="cls-2" x="273.59" y="133.02" width="33.83" height="1.62"/><rect class="cls-2" x="273.59" y="442.36" width="33.83" height="1.62"/><path class="cls-2" d="M187.58,224.73h-2.21a28.42,28.42,0,0,0-8.27-6.37,16.19,16.19,0,0,0-8.26-1.83c-6.06,0-6.44,1.07-6.44,7.83V235h4.86a14,14,0,0,0,5.8-1c2.53-1.07,3.66-4.23,3.73-6.75h2.14v16.47h-2.14c-.25-2.4-.51-4.67-2.53-6-1.39-.89-1.89-1.08-6.43-1.08H162.4v14.39c0,3.28.31,5.49,6.75,5.49H170v1.71H148.14v-1.71c6.24-.19,6.56-1.32,6.56-7.19V223.41c0-2.34.12-4.42-1.14-5.62s-3.85-1.32-5.61-1.32v-1.71h35.91Zm-29.85-.56c0-6.19,0-8.14-4.42-7.7,1.39.44,2.4,1.45,2.4,4.86v29c0,4.79-.32,5-2.21,6.18,4.23.07,4.23-2.08,4.23-4.79Zm18.74,8.14c-.75,1.39-1.45,2.27-4.35,3.28,3.41.88,4,2.33,4.35,3.22Zm4.36-15.84h-5.75c3,.94,5,1.89,8.78,5.11Z"/><path class="cls-2" d="M211.24,256.54c6.95-.19,6.88-1.51,6.88-6.69V223c0-2.59,0-4.29-.75-5.05-1.2-1.2-3.66-1.45-6.13-1.51v-1.71H234.6a20,20,0,0,1,9.4,1.83,11.1,11.1,0,0,1,6.44,9.72c0,4.29-3.35,10.1-11.74,11.49a79.56,79.56,0,0,1,5.3,6l3,3.6c.75.89,2,2.27,2.71,3.16,2.21,2.77,4.54,5.3,7.45,6v1.71h-4.74c-3.66,0-6.24-.19-11.93-7.58l-4.22-5.49c-1.46-1.89-3-3.78-4.67-5.61a3.09,3.09,0,0,0-3-1.27h-2.84v12.63c0,3,.13,3.72,1.7,4.67,1.39.82,4.61.94,5.12.94v1.71H211.24Zm7.89-4.67c0,2.27-.31,3.73-2.08,4.67.82-.06,2.84-.06,3.66-1.58.38-.63.38-.94.38-3.66v-29c0-4-.25-6.06-4.35-5.87,2.39,1.07,2.39,2.21,2.39,6.18Zm6.63-15.27h3.6c11.29,0,12.62-5.24,12.62-10.1,0-3.79-1.14-5.74-2.15-6.94-1.83-2.21-4-3-8.52-3-5.11,0-5.55,2-5.55,6.18Zm5.55,1.7c.38.26.82.63,1.08.82.94.89,1.51,1.71,6.62,8.15,6.19,7.76,7.83,9.84,12.88,10.09-1.58-.69-3.22-1.51-6.5-5.55l-7.32-9c-2.72-3.28-3-3.79-4.29-4.55Zm13.83-11.86c0-3.28-.89-5.81-2.78-7.51a8.82,8.82,0,0,0-4.86-2.27c1.83.94,5.49,2.77,5.49,10.28,0,7.07-4,8.59-6.44,9.53C242.74,235.72,245.14,231.55,245.14,226.44Z"/><path class="cls-2" d="M274.23,214.76h20.83v1.71c-4.86.38-6.32.5-6.32,5.49v22.66c0,4.35,1,11.92,12.5,11.92,5.68,0,9.53-2.58,11.36-5.49s1.7-5.93,1.7-8.83V230c0-9.21-1.32-13.25-7.76-13.5v-1.71h15.91v1.71c-5.94.75-6.25,6.88-6.32,8.33-.12,2.84-.06,3.15-.12,3.85v14.51c0,3.66,0,8-4.61,11.87-2,1.7-5.55,4-13.19,4-12.5,0-17.17-6.44-17.17-13.51v-23c0-2.72,0-3.91-1.07-4.73-1.26-1-1.64-1.08-5.74-1.39Zm9.84,6.57c0-2.09,0-5.3-4.29-4.86,2.27.94,2.27,3.09,2.27,5.17v23.29c0,7.38,4.36,11.61,12.37,13.13-8.52-3.16-10.35-7.39-10.35-14.33Zm26.7-4.86a6.3,6.3,0,0,1,3.53,4.86c.64-2.91,1.52-4,2.72-4.86Z"/><path class="cls-2" d="M365.93,216.47c-2.4.06-6,.12-6.19,3.53-.12,2-.12,2.27-.19,2.71v27.77c0,5.12,1.39,5.94,6.38,6.06v1.71H345.42v-1.71c5.93-.19,6.43-1.51,6.43-6.06V223.72c0-4.79-.12-5.55-1.89-6.5-.57-.31-.95-.37-4.54-.75v-1.71h20.51Zm-13.07,35.84c0,2.4-.5,3.22-2.52,4.23,3-.12,4.54-.57,4.54-4v-31c0-2.91-.06-5.18-4.29-5.05,1.64.82,2.27,2.21,2.27,5.61Z"/><path class="cls-2" d="M433.52,224.92h-2.27a17.09,17.09,0,0,0-6.38-6.69c-2.9-1.64-4.23-1.64-9.46-1.76v33.64c0,4.85.31,6.18,6.87,6.43v1.71H400.7v-1.71c5.62-.19,7-.69,7-6.43V216.47a18.15,18.15,0,0,0-9.41,2c-2.65,1.45-5.11,4.54-6.44,6.43h-1.95l2.21-10.16h39.13Zm-40.71-8.45-1.2,5.23c2.27-3,3-3.59,6.19-5.23Zm17.92,3.66c0-1.39-.12-3.54-2-3.66v34.39c0,2.72-.12,4.29-2.2,5.68,4,.13,4.22-1.64,4.22-6.88Zm17.86-3.66h-5.8c2.78.88,4.48,1.95,7.19,4.92Z"/><path class="cls-2" d="M148,364.25h-22.4v-1.71c6.88-.06,6.88-1.58,6.88-6.69V331.43c0-7.7.06-9-6.88-9v-1.64h21.21a43.68,43.68,0,0,1,9.08,1.07c3.54,1.2,8.84,4.49,8.84,10.8,0,4.35-2.65,9.08-9.21,11a34.25,34.25,0,0,1-9.35.95h-6V357c0,2.77,0,4.86,4.29,5.43.57.06,3,.06,3.53.12Zm-14.51-6.13c0,2-.38,3.66-2.27,4.42,4,.07,4.29-1.26,4.29-4v-27c0-2.46,0-6.18-.38-7.19-.57-1.58-2-1.9-4.17-2,2.21,1,2.53,2,2.53,7.7Zm6.69-15.27h3.72c1.45,0,5.11-.06,7.39-1.07,4.29-1.9,5.05-6.31,5.05-9.09a10.55,10.55,0,0,0-2.15-6.88c-1.83-2.34-3.91-3.35-8.58-3.35-1.64,0-3.79.26-4.67,1.65-.51.82-.76,1.32-.76,5.61Zm19.12-10c0-8.34-4.79-9.41-7.32-10a7.92,7.92,0,0,1,2.84,2.15,12.07,12.07,0,0,1,2.53,7.83,11.78,11.78,0,0,1-2.34,7.44,6.59,6.59,0,0,1-3,2.21C154,342.16,159.32,341.27,159.32,332.82Z"/><path class="cls-2" d="M207.91,322.46c-2.39.07-6,.13-6.18,3.54-.13,2-.13,2.27-.19,2.71v27.77c0,5.12,1.39,5.94,6.37,6.06v1.71H187.4v-1.71c5.94-.19,6.44-1.51,6.44-6.06V329.72c0-4.79-.13-5.55-1.89-6.5-.57-.31-.95-.38-4.55-.76v-1.7h20.51Zm-13.06,35.85c0,2.4-.5,3.22-2.52,4.23,3-.12,4.54-.57,4.54-4v-31c0-2.9-.06-5.17-4.29-5.05,1.64.83,2.27,2.21,2.27,5.62Z"/><path class="cls-2" d="M271.15,333.83h-1.83a30.34,30.34,0,0,0-4.73-7.26,14.05,14.05,0,0,0-10.42-4.93c-5.24,0-8.77,2.78-11,6.7s-3.15,9-3.15,13.5c0,10.92,5.55,20.83,16,20.83a18.15,18.15,0,0,0,11.17-4.23,22.33,22.33,0,0,0,4-4.42l1.9,1a22.53,22.53,0,0,1-6.57,6.5,22.86,22.86,0,0,1-13,3.54c-13.88,0-22.6-10.35-22.6-22.35,0-13.75,10.48-22.78,22.54-22.78,2.71,0,3,.06,8.58,1.58a9.72,9.72,0,0,0,2.59.38c2.58,0,3.41-.89,4.1-1.71h2.46Zm-31.93-7.89a21.64,21.64,0,0,0-7.33,16.47c0,4.48,1.52,11.23,6.44,15.84a21.89,21.89,0,0,0,13.45,6c-12.37-3.22-17.87-12.69-17.87-21.65a23.18,23.18,0,0,1,3.73-12.43c3.09-4.55,6.31-6.63,9.53-8.65A24.63,24.63,0,0,0,239.22,325.94Zm28-3.22a7.24,7.24,0,0,1-3,.63,10.11,10.11,0,0,1-1.51-.13c1.83,1.39,2.08,1.71,4.73,4.74Z"/><path class="cls-2" d="M345.18,322.46a7.32,7.32,0,0,0-5.74,2.85c-1.39,1.76-1.27,4.29-1.27,5.49l.57,34.39h-1.83L305.42,328.4l.44,24.74c.06,4.92.57,8.77,7.64,9.4v1.71H297.15v-1.71c2.52-.19,4.61-1.07,5.87-3.15,1-1.71,1.2-2.28,1.14-6.76l-.45-26.25c-1.2-1.33-3.78-4.1-7.32-3.92v-1.7h12.75L337,353.14l-.44-20.32-.12-3.54c-.32-3.22-1.58-5.17-4.61-6.31a7.62,7.62,0,0,0-3.09-.51v-1.7h16.47Zm-8.08,41.28c-.13-2.59-.13-2.9-.51-3.41a18.1,18.1,0,0,0-1.95-2.59l-27.77-32.37c-1.2-1.39-1.33-1.58-2-2a6.26,6.26,0,0,0-3.22-1,12.8,12.8,0,0,0-1.51.12c2,.76,2.58,1.14,5.36,4.42Zm-29.66-1.2a6.28,6.28,0,0,1-2.91-4.42,6.42,6.42,0,0,1-3.59,4.42Zm25.3-40.08a6.23,6.23,0,0,1,4.17,4,5.84,5.84,0,0,1,2.59-4Z"/><path class="cls-2" d="M389.48,322.46c-2.4.07-6,.13-6.19,3.54-.12,2-.12,2.27-.19,2.71v27.77c0,5.12,1.39,5.94,6.38,6.06v1.71H369v-1.71c5.93-.19,6.44-1.51,6.44-6.06V329.72c0-4.79-.13-5.55-1.9-6.5-.56-.31-.94-.38-4.54-.76v-1.7h20.51Zm-13.06,35.85c0,2.4-.51,3.22-2.53,4.23,3-.12,4.55-.57,4.55-4v-31c0-2.9-.07-5.17-4.3-5.05,1.65.83,2.28,2.21,2.28,5.62Z"/><path class="cls-2" d="M451.45,333.83h-1.83a30,30,0,0,0-4.73-7.26,14,14,0,0,0-10.41-4.93c-5.24,0-8.78,2.78-11,6.7s-3.16,9-3.16,13.5c0,10.92,5.55,20.83,16,20.83a18.19,18.19,0,0,0,11.17-4.23,22.54,22.54,0,0,0,4-4.42l1.9,1a22.53,22.53,0,0,1-6.57,6.5,22.86,22.86,0,0,1-13,3.54c-13.88,0-22.59-10.35-22.59-22.35,0-13.75,10.48-22.78,22.53-22.78,2.71,0,3,.06,8.58,1.58a9.79,9.79,0,0,0,2.59.38c2.59,0,3.41-.89,4.1-1.71h2.46Zm-31.93-7.89a21.67,21.67,0,0,0-7.32,16.47c0,4.48,1.51,11.23,6.44,15.84a21.85,21.85,0,0,0,13.44,6c-12.37-3.22-17.86-12.69-17.86-21.65a23.25,23.25,0,0,1,3.72-12.43c3.09-4.55,6.31-6.63,9.53-8.65A24.73,24.73,0,0,0,419.52,325.94Zm28-3.22a7.2,7.2,0,0,1-3,.63,10.23,10.23,0,0,1-1.51-.13c1.83,1.39,2.08,1.71,4.73,4.74Z"/></g></g></svg>