<svg xmlns="http://www.w3.org/2000/svg" viewBox="0 0 500 229.5"><defs><style>.cls-1{fill:#231815;}</style></defs><title>logo02</title><g id="レイヤー_2" data-name="レイヤー 2"><g id="レイヤー_1-2" data-name="レイヤー 1"><path class="cls-1" d="M94.53,15.21H91.16A43.35,43.35,0,0,0,78.55,5.49,24.77,24.77,0,0,0,65.93,2.7c-9.24,0-9.82,1.63-9.82,11.94V30.81h7.42a21.42,21.42,0,0,0,8.85-1.44c3.86-1.64,5.59-6.45,5.68-10.3h3.28V44.2H78.06c-.38-3.66-.76-7.13-3.85-9.15-2.12-1.35-2.88-1.64-9.82-1.64H56.11v22c0,5,.48,8.37,10.3,8.37h1.35v2.6H34.35v-2.6c9.53-.29,10-2,10-11V13.19c0-3.56.2-6.74-1.73-8.57s-5.87-2-8.57-2V0H88.85ZM49,14.35C49,4.91,49,1.93,42.25,2.6c2.11.67,3.65,2.22,3.65,7.42V54.31c0,7.31-.48,7.7-3.36,9.43C49,63.84,49,60.57,49,56.42ZM77.58,26.77c-1.15,2.12-2.21,3.46-6.64,5,5.2,1.35,6.16,3.57,6.64,4.92ZM84.23,2.6H75.47c4.62,1.44,7.6,2.89,13.38,7.8Z"/><path class="cls-1" d="M130.63,63.74c10.59-.29,10.5-2.31,10.5-10.2V12.61c0-3.94,0-6.54-1.16-7.7-1.83-1.83-5.58-2.21-9.34-2.31V0h35.63a30.51,30.51,0,0,1,14.35,2.79,16.93,16.93,0,0,1,9.82,14.83c0,6.55-5.1,15.41-17.91,17.52a121.55,121.55,0,0,1,8.09,9.15l4.52,5.49c1.16,1.35,3.08,3.47,4.14,4.82,3.37,4.23,6.94,8.08,11.36,9.14v2.6h-7.22c-5.58,0-9.53-.29-18.2-11.55l-6.45-8.38c-2.21-2.89-4.62-5.78-7.12-8.57-1.83-2-3.08-2-4.53-1.92h-4.33V55.17c0,4.62.19,5.69,2.6,7.13,2.12,1.25,7,1.44,7.8,1.44v2.6H130.63Zm12-7.12c0,3.46-.48,5.68-3.18,7.12,1.25-.09,4.34-.09,5.59-2.41.57-1,.57-1.44.57-5.58V11.56c0-6.17-.38-9.25-6.64-9,3.66,1.64,3.66,3.37,3.66,9.44Zm10.11-23.31h5.49c17.23,0,19.26-8,19.26-15.4,0-5.78-1.74-8.76-3.28-10.59-2.79-3.37-6.06-4.62-13-4.62-7.8,0-8.47,3.08-8.47,9.43Zm8.47,2.61c.58.38,1.26,1,1.64,1.25,1.44,1.35,2.31,2.6,10.11,12.42,9.44,11.84,11.94,15,19.64,15.4-2.4-1-4.91-2.31-9.92-8.47L171.56,42.85c-4.15-5-4.53-5.78-6.55-6.93Zm21.09-18.11c0-5-1.35-8.86-4.24-11.45a13.41,13.41,0,0,0-7.41-3.47c2.79,1.44,8.38,4.23,8.38,15.69,0,10.79-6.07,13.1-9.83,14.54C178.68,32,182.34,25.61,182.34,17.81Z"/><path class="cls-1" d="M226.72,0H258.5V2.6c-7.41.58-9.63.77-9.63,8.38V45.55c0,6.64,1.54,18.19,19.07,18.19,8.66,0,14.53-4,17.33-8.37,2.69-4.24,2.6-9.06,2.6-13.48V23.21c0-14.06-2-20.22-11.85-20.61V0h24.27V2.6c-9.05,1.16-9.53,10.5-9.63,12.71-.19,4.33-.1,4.81-.19,5.87V43.33c0,5.58,0,12.23-7,18.1-3.08,2.6-8.48,6.16-20.13,6.16-19.06,0-26.19-9.82-26.19-20.6V11.94c0-4.14,0-6-1.63-7.22-1.93-1.45-2.51-1.64-8.77-2.12Zm15,10c0-3.18,0-8.09-6.55-7.42,3.46,1.44,3.46,4.72,3.46,7.9V46c0,11.26,6.65,17.71,18.88,20-13-4.81-15.79-11.26-15.79-21.85ZM282.47,2.6c3.66,1.64,4.82,4.81,5.4,7.42,1-4.44,2.31-6.17,4.14-7.42Z"/><path class="cls-1" d="M366.63,2.6c-3.66.1-9.15.19-9.44,5.39-.19,3.08-.19,3.47-.29,4.14V54.5c0,7.8,2.12,9,9.73,9.24v2.6h-31.3v-2.6c9.06-.29,9.82-2.31,9.82-9.24V13.67c0-7.31-.19-8.47-2.88-9.91-.87-.49-1.45-.58-6.94-1.16V0h31.3ZM346.69,57.29c0,3.66-.76,4.91-3.85,6.45,4.53-.19,6.94-.86,6.94-6.16V10.3c0-4.43-.1-7.89-6.55-7.7,2.5,1.25,3.46,3.37,3.46,8.57Z"/><path class="cls-1" d="M469.75,15.5h-3.47a26,26,0,0,0-9.73-10.2c-4.42-2.51-6.45-2.51-14.44-2.7V53.92c0,7.41.48,9.44,10.5,9.82v2.6H419.68v-2.6c8.57-.29,10.68-1.06,10.68-9.82V2.6c-4.91,0-9.43.39-14.34,3.08-4,2.22-7.8,6.93-9.82,9.82h-3L406.58,0h59.7ZM407.64,2.6l-1.83,8c3.47-4.52,4.53-5.49,9.44-8ZM435,8.19c0-2.12-.2-5.4-3.08-5.59V55.08c0,4.14-.2,6.54-3.38,8.66,6.07.2,6.46-2.5,6.46-10.49ZM462.23,2.6h-8.85c4.24,1.35,6.83,3,11,7.51Z"/><path class="cls-1" d="M34.18,228.06H0v-2.6c10.49-.1,10.49-2.41,10.49-10.21V178c0-11.75.1-13.77-10.49-13.77v-2.5H32.35c3.08,0,11,.67,13.87,1.63,5.39,1.83,13.48,6.84,13.48,16.47,0,6.64-4.05,13.86-14.06,16.75C41,197.92,35.82,198,31.39,198H22.24v19c0,4.23,0,7.41,6.55,8.28.87.09,4.62.09,5.39.19ZM12,218.72c0,3-.58,5.58-3.47,6.74,6.07.1,6.55-1.93,6.55-6.07V178.18c0-3.75,0-9.43-.58-11-.87-2.41-3.08-2.89-6.35-3.08,3.37,1.53,3.85,3.08,3.85,11.74Zm10.2-23.3h5.68c2.22,0,7.8-.1,11.27-1.64,6.55-2.89,7.7-9.63,7.7-13.86,0-5.78-2-8.86-3.27-10.5-2.79-3.56-6-5.1-13.1-5.1-2.5,0-5.77.38-7.12,2.5-.77,1.25-1.16,2-1.16,8.57Zm29.18-15.31c0-12.71-7.32-14.35-11.17-15.22a11.91,11.91,0,0,1,4.33,3.28c3.08,3.66,3.85,8.28,3.85,11.94a18,18,0,0,1-3.56,11.36,10.09,10.09,0,0,1-4.62,3.37C43.23,194.36,51.42,193,51.42,180.11Z"/><path class="cls-1" d="M125.55,164.32c-3.65.09-9.14.19-9.43,5.39-.2,3.08-.2,3.47-.29,4.14v42.37c0,7.8,2.12,9.05,9.72,9.24v2.6H94.26v-2.6c9-.29,9.82-2.31,9.82-9.24V175.39c0-7.32-.19-8.47-2.89-9.92-.86-.48-1.44-.58-6.93-1.15v-2.6h31.29ZM105.62,219c0,3.66-.77,4.91-3.85,6.45,4.53-.19,6.93-.87,6.93-6.16V172c0-4.43-.09-7.89-6.55-7.7,2.51,1.25,3.47,3.37,3.47,8.57Z"/><path class="cls-1" d="M222,181.65h-2.79A46.54,46.54,0,0,0,212,170.58c-3.76-4.05-9-7.51-15.89-7.51-8,0-13.38,4.23-16.76,10.2s-4.81,13.68-4.81,20.61c0,16.65,8.47,31.77,24.36,31.77a27.72,27.72,0,0,0,17-6.45,34.58,34.58,0,0,0,6.07-6.74l2.89,1.54a34,34,0,0,1-10,9.92c-5.87,3.85-12.42,5.39-19.83,5.39-21.18,0-34.47-15.79-34.47-34.09,0-21,16-34.75,34.37-34.75,4.14,0,4.53.09,13.1,2.4a14.87,14.87,0,0,0,4,.58c3.94,0,5.2-1.35,6.26-2.6H222Zm-48.72-12c-8.47,7.22-11.17,17.43-11.17,25.13,0,6.84,2.31,17.14,9.82,24.17a33.3,33.3,0,0,0,20.51,9.15c-18.87-4.91-27.25-19.35-27.25-33a35.51,35.51,0,0,1,5.68-19c4.72-6.93,9.63-10.11,14.54-13.19A38.22,38.22,0,0,0,173.31,169.61Zm42.75-4.91a10.86,10.86,0,0,1-4.53,1,16.74,16.74,0,0,1-2.31-.19c2.8,2.12,3.18,2.6,7.23,7.22Z"/><path class="cls-1" d="M335,164.32a11.24,11.24,0,0,0-8.76,4.33c-2.12,2.7-1.93,6.55-1.93,8.38l.87,52.47h-2.79l-48.05-56.13.67,37.74c.1,7.51.87,13.39,11.65,14.35v2.6H261.7v-2.6c3.85-.29,7-1.64,8.95-4.81,1.54-2.61,1.83-3.47,1.73-10.31l-.67-40.05c-1.83-2-5.78-6.26-11.17-6v-2.6H280l42.46,49.39-.67-31-.19-5.39c-.49-4.91-2.41-7.9-7-9.63a11.59,11.59,0,0,0-4.72-.77v-2.6H335Zm-12.32,63c-.2-3.95-.2-4.43-.78-5.2a26.24,26.24,0,0,0-3-4l-42.37-49.39c-1.83-2.12-2-2.41-3.08-3.09a9.6,9.6,0,0,0-4.91-1.53,18,18,0,0,0-2.31.19c3.08,1.15,3.95,1.73,8.18,6.74Zm-45.26-1.83c-3-2.12-3.66-3.66-4.43-6.74a9.83,9.83,0,0,1-5.49,6.74ZM316,164.32c3.18,1.06,4.82,2.6,6.36,6.06a8.83,8.83,0,0,1,3.95-6.06Z"/><path class="cls-1" d="M402.56,164.32c-3.66.09-9.15.19-9.44,5.39-.19,3.08-.19,3.47-.29,4.14v42.37c0,7.8,2.12,9.05,9.73,9.24v2.6h-31.3v-2.6c9.06-.29,9.83-2.31,9.83-9.24V175.39c0-7.32-.2-8.47-2.89-9.92-.87-.48-1.45-.58-6.94-1.15v-2.6h31.3ZM382.63,219c0,3.66-.77,4.91-3.85,6.45,4.52-.19,6.93-.87,6.93-6.16V172c0-4.43-.1-7.89-6.55-7.7,2.51,1.25,3.47,3.37,3.47,8.57Z"/><path class="cls-1" d="M497.11,181.65h-2.79a46.54,46.54,0,0,0-7.22-11.07c-3.76-4.05-9-7.51-15.89-7.51-8,0-13.38,4.23-16.76,10.2s-4.81,13.68-4.81,20.61c0,16.65,8.47,31.77,24.36,31.77a27.72,27.72,0,0,0,17-6.45,34.58,34.58,0,0,0,6.07-6.74L500,214a34,34,0,0,1-10,9.92c-5.87,3.85-12.42,5.39-19.83,5.39-21.18,0-34.47-15.79-34.47-34.09,0-21,16-34.75,34.37-34.75,4.14,0,4.53.09,13.1,2.4a14.87,14.87,0,0,0,4,.58c3.94,0,5.2-1.35,6.26-2.6h3.75Zm-48.72-12c-8.47,7.22-11.17,17.43-11.17,25.13,0,6.84,2.31,17.14,9.82,24.17a33.3,33.3,0,0,0,20.51,9.15c-18.87-4.91-27.25-19.35-27.25-33a35.51,35.51,0,0,1,5.68-19c4.72-6.93,9.63-10.11,14.54-13.19A38.22,38.22,0,0,0,448.39,169.61Zm42.75-4.91a10.86,10.86,0,0,1-4.53,1,16.74,16.74,0,0,1-2.31-.19c2.8,2.12,3.18,2.6,7.23,7.22Z"/></g></g></svg>