<svg xmlns="http://www.w3.org/2000/svg" viewBox="0 0 800 54.01"><defs><style>.cls-1{fill:#231815;}</style></defs><title>logo03</title><g id="レイヤー_2" data-name="レイヤー 2"><g id="レイヤー_1-2" data-name="レイヤー 1"><path class="cls-1" d="M47.31,12.88H44.67A33.83,33.83,0,0,0,34.8,5.27a19.32,19.32,0,0,0-9.87-2.18c-7.23,0-7.68,1.28-7.68,9.34V25.08h5.8A16.74,16.74,0,0,0,30,24c3-1.28,4.37-5,4.44-8.06H37V35.55H34.42c-.3-2.86-.6-5.57-3-7.15-1.66-1.06-2.26-1.28-7.68-1.28H17.25V44.29c0,3.92.38,6.55,8.06,6.55h1.05v2H.23v-2c7.45-.22,7.83-1.58,7.83-8.58v-31c0-2.79.15-5.27-1.36-6.71S2.11,3,0,3V1H42.86ZM11.67,12.2c0-7.38,0-9.71-5.26-9.19,1.65.53,2.85,1.74,2.85,5.8V43.46c0,5.73-.37,6-2.63,7.38,5,.08,5-2.48,5-5.72Zm22.38,9.72c-.9,1.66-1.73,2.71-5.2,3.92,4.07,1.05,4.82,2.78,5.2,3.84ZM39.25,3H32.39c3.62,1.13,6,2.26,10.47,6.1Z"/><path class="cls-1" d="M75.55,50.84c8.28-.22,8.21-1.8,8.21-8v-32c0-3.09,0-5.13-.9-6C81.42,3.39,78.49,3.09,75.55,3V1h27.87a23.83,23.83,0,0,1,11.22,2.18,13.24,13.24,0,0,1,7.68,11.6c0,5.12-4,12.06-14,13.71a93.84,93.84,0,0,1,6.33,7.16l3.54,4.29c.91,1.06,2.41,2.71,3.24,3.77,2.64,3.31,5.43,6.33,8.89,7.15v2h-5.65c-4.37,0-7.46-.23-14.24-9l-5-6.55c-1.74-2.26-3.62-4.52-5.58-6.71a3.66,3.66,0,0,0-3.54-1.5H92.87V44.14c0,3.62.16,4.45,2,5.58,1.65,1,5.5,1.12,6.1,1.12v2H75.55ZM85,45.27c0,2.71-.37,4.45-2.48,5.57,1-.07,3.39-.07,4.37-1.88.45-.75.45-1.13.45-4.37V10c0-4.82-.3-7.23-5.2-7C85,4.29,85,5.65,85,10.39ZM92.87,27h4.3c13.48,0,15.06-6.25,15.06-12,0-4.52-1.35-6.86-2.56-8.29-2.18-2.63-4.74-3.61-10.17-3.61-6.1,0-6.63,2.41-6.63,7.38Zm6.63,2c.45.3,1,.75,1.28,1,1.13,1.06,1.81,2,7.91,9.72,7.38,9.27,9.34,11.75,15.37,12-1.88-.82-3.84-1.8-7.76-6.63L107.56,34.5c-3.24-3.92-3.54-4.52-5.12-5.42ZM116,14.92c0-3.92-1-6.94-3.32-9a10.49,10.49,0,0,0-5.8-2.71c2.19,1.13,6.56,3.31,6.56,12.28,0,8.43-4.75,10.24-7.69,11.37C113.13,26,116,21,116,14.92Z"/><path class="cls-1" d="M150.72,1h24.86V3c-5.8.45-7.53.61-7.53,6.56v27c0,5.19,1.2,14.23,14.91,14.23,6.78,0,11.37-3.08,13.56-6.55,2.11-3.31,2-7.08,2-10.54V19.13c0-11-1.58-15.82-9.26-16.12V1h19V3c-7.08.91-7.46,8.21-7.53,10-.16,3.38-.08,3.76-.16,4.59V34.88c0,4.36,0,9.56-5.49,14.16-2.41,2-6.63,4.82-15.75,4.82-14.91,0-20.48-7.68-20.48-16.12V10.32c0-3.24,0-4.67-1.29-5.65-1.5-1.13-1.95-1.28-6.85-1.66Zm11.75,7.83c0-2.48,0-6.32-5.12-5.8,2.71,1.13,2.71,3.69,2.71,6.18V37c0,8.82,5.2,13.86,14.76,15.67-10.17-3.76-12.35-8.81-12.35-17.1ZM194.33,3c2.87,1.28,3.77,3.77,4.22,5.8.76-3.46,1.81-4.82,3.24-5.8Z"/><path class="cls-1" d="M260.17,3c-2.87.08-7.16.15-7.39,4.22-.15,2.41-.15,2.71-.22,3.24V43.61c0,6.11,1.65,7.08,7.61,7.23v2H235.68v-2c7.08-.22,7.69-1.8,7.69-7.23V11.67c0-5.72-.15-6.62-2.26-7.75-.68-.38-1.13-.46-5.43-.91V1h24.49ZM244.57,45.8c0,2.86-.6,3.84-3,5,3.54-.15,5.42-.67,5.42-4.82V9c0-3.47-.07-6.18-5.12-6,2,1,2.71,2.64,2.71,6.71Z"/><path class="cls-1" d="M340.84,13.11h-2.71a20.39,20.39,0,0,0-7.61-8c-3.47-2-5-2-11.3-2.11V43.16c0,5.8.37,7.38,8.21,7.68v2H301.67v-2c6.7-.22,8.36-.82,8.36-7.68V3c-3.84,0-7.39.3-11.23,2.41-3.16,1.74-6.1,5.43-7.68,7.69h-2.33L291.42,1h46.71ZM292.25,3l-1.43,6.25C293.53,5.72,294.36,5,298.2,3Zm21.39,4.37c0-1.66-.15-4.22-2.41-4.37V44.06c0,3.24-.15,5.13-2.63,6.78,4.74.16,5-2,5-8.21ZM335,3H328c3.32,1.06,5.35,2.34,8.59,5.88Z"/><path class="cls-1" d="M435.59,52.88H408.85v-2c8.21-.07,8.21-1.88,8.21-8V13.71c0-9.19.07-10.77-8.21-10.77V1h25.31c2.41,0,8.59.53,10.85,1.28,4.21,1.43,10.54,5.35,10.54,12.88,0,5.2-3.16,10.85-11,13.11a40.78,40.78,0,0,1-11.14,1.13h-7.16V44.22c0,3.31,0,5.8,5.12,6.47.68.08,3.62.08,4.22.15Zm-17.33-7.31c0,2.34-.45,4.37-2.71,5.27,4.75.08,5.13-1.5,5.13-4.74V13.86c0-2.94,0-7.38-.46-8.59-.68-1.88-2.41-2.26-5-2.41,2.64,1.21,3,2.41,3,9.19Zm8-18.23h4.44c1.74,0,6.1-.07,8.82-1.28,5.12-2.26,6-7.53,6-10.84A12.66,12.66,0,0,0,443,7c-2.18-2.78-4.67-4-10.24-4-2,0-4.52.3-5.58,2-.6,1-.9,1.58-.9,6.7Zm22.82-12c0-9.95-5.72-11.23-8.73-11.91A9.33,9.33,0,0,1,443.72,6a14.38,14.38,0,0,1,3,9.34A14,14,0,0,1,444,24.25a7.87,7.87,0,0,1-3.61,2.64C442.67,26.51,449.07,25.46,449.07,15.37Z"/><path class="cls-1" d="M507.07,3c-2.86.08-7.16.15-7.38,4.22-.15,2.41-.15,2.71-.23,3.24V43.61c0,6.11,1.66,7.08,7.61,7.23v2H482.59v-2c7.08-.22,7.68-1.8,7.68-7.23V11.67c0-5.72-.15-6.62-2.26-7.75-.67-.38-1.13-.46-5.42-.91V1h24.48ZM491.48,45.8c0,2.86-.6,3.84-3,5,3.55-.15,5.43-.67,5.43-4.82V9c0-3.47-.08-6.18-5.12-6,2,1,2.71,2.64,2.71,6.71Z"/><path class="cls-1" d="M582.54,16.57h-2.18a35.93,35.93,0,0,0-5.65-8.66c-2.94-3.16-7-5.88-12.43-5.88-6.25,0-10.47,3.32-13.11,8s-3.76,10.69-3.76,16.12c0,13,6.63,24.86,19.06,24.86a21.71,21.71,0,0,0,13.33-5,26.94,26.94,0,0,0,4.74-5.27l2.27,1.2A26.77,26.77,0,0,1,577,49.64a27.36,27.36,0,0,1-15.52,4.22c-16.57,0-27-12.36-27-26.67C534.49,10.77,547,0,561.38,0c3.24,0,3.54.08,10.24,1.88a11.49,11.49,0,0,0,3.09.45c3.09,0,4.07-1,4.9-2h2.93ZM544.43,7.16a25.84,25.84,0,0,0-8.74,19.66c0,5.34,1.81,13.4,7.69,18.9a26.06,26.06,0,0,0,16,7.16C544.65,49,538.1,37.74,538.1,27a27.77,27.77,0,0,1,4.45-14.84c3.69-5.42,7.53-7.91,11.37-10.32A30,30,0,0,0,544.43,7.16Zm33.44-3.85a8.36,8.36,0,0,1-3.54.76,14.23,14.23,0,0,1-1.8-.15c2.18,1.65,2.48,2,5.64,5.65Z"/><path class="cls-1" d="M670.9,3A8.81,8.81,0,0,0,664,6.4c-1.66,2.11-1.51,5.12-1.51,6.56L663.21,54H661L623.44,10.09,624,39.62c.07,5.88.68,10.47,9.11,11.22v2h-19.5v-2c3-.22,5.49-1.28,7-3.76,1.2-2,1.43-2.71,1.36-8.06l-.53-31.34C620,6.1,616.89,2.79,612.67,3V1h15.22l33.22,38.64-.53-24.25-.15-4.22c-.38-3.84-1.89-6.18-5.5-7.53A9.13,9.13,0,0,0,651.24,3V1H670.9Zm-9.64,49.26c-.15-3.08-.15-3.46-.61-4.06a20.86,20.86,0,0,0-2.33-3.09L625.18,6.48c-1.44-1.66-1.59-1.89-2.42-2.41a7.39,7.39,0,0,0-3.84-1.21,16,16,0,0,0-1.81.15c2.41.91,3.09,1.36,6.41,5.28Zm-35.41-1.43a7.45,7.45,0,0,1-3.46-5.27,7.7,7.7,0,0,1-4.29,5.27ZM656.06,3c2.48.83,3.76,2,5,4.75A6.93,6.93,0,0,1,664.12,3Z"/><path class="cls-1" d="M723.77,3c-2.86.08-7.15.15-7.38,4.22-.15,2.41-.15,2.71-.23,3.24V43.61c0,6.11,1.66,7.08,7.61,7.23v2H699.29v-2c7.08-.22,7.68-1.8,7.68-7.23V11.67c0-5.72-.15-6.62-2.25-7.75-.68-.38-1.14-.46-5.43-.91V1h24.48ZM708.18,45.8c0,2.86-.6,3.84-3,5,3.54-.15,5.42-.67,5.42-4.82V9c0-3.47-.08-6.18-5.12-6,2,1,2.71,2.64,2.71,6.71Z"/><path class="cls-1" d="M797.74,16.57h-2.19a36.14,36.14,0,0,0-5.64-8.66C787,4.75,782.9,2,777.48,2c-6.26,0-10.48,3.32-13.11,8s-3.77,10.69-3.77,16.12c0,13,6.63,24.86,19.06,24.86A21.69,21.69,0,0,0,793,46a27.4,27.4,0,0,0,4.75-5.27l2.26,1.2a26.83,26.83,0,0,1-7.83,7.76,27.38,27.38,0,0,1-15.52,4.22c-16.57,0-27-12.36-27-26.67C749.68,10.77,762.18,0,776.57,0c3.24,0,3.54.08,10.25,1.88a11.49,11.49,0,0,0,3.09.45c3.08,0,4.06-1,4.89-2h2.94ZM759.62,7.16a25.86,25.86,0,0,0-8.73,19.66c0,5.34,1.8,13.4,7.68,18.9a26.06,26.06,0,0,0,16,7.16C759.85,49,753.3,37.74,753.3,27a27.74,27.74,0,0,1,4.44-14.84c3.69-5.42,7.53-7.91,11.37-10.32A30,30,0,0,0,759.62,7.16Zm33.45-3.85a8.4,8.4,0,0,1-3.54.76,14.4,14.4,0,0,1-1.81-.15c2.19,1.65,2.49,2,5.65,5.65Z"/></g></g></svg>