<svg xmlns="http://www.w3.org/2000/svg" viewBox="0 0 149.06 34.34"><defs><style>.cls-1{fill:#231815;}</style></defs><title>menu</title><g id="レイヤー_2" data-name="レイヤー 2"><g id="レイヤー_1-2" data-name="レイヤー 1"><path class="cls-1" d="M42,33.61l-.63,0c-2.32-.12-4.1-.18-5.37-.18-1.06,0-2.82.06-5.27.18l-1,0v-1l.51,0,.45,0a3.41,3.41,0,0,0,2.4-.69,3.3,3.3,0,0,0,.71-2.43q0-3.71-.27-10.42T32.88,5.53l-.23.73L22.8,27.38a28,28,0,0,0-1.23,3,19.62,19.62,0,0,0-.69,2.79H19.69a11.16,11.16,0,0,0-.52-1.71c-.23-.63-.78-1.9-1.64-3.82L8.16,6.73,7.45,5.3,7.2,9.14c-.22,3.2-.4,6.52-.52,10s-.19,6.67-.19,9.7a4.55,4.55,0,0,0,.76,3.05,3.89,3.89,0,0,0,2.83.8c.17,0,.41,0,.72,0v1l-.77,0c-2.2-.12-3.79-.18-4.76-.18s-2.29,0-4.19.16L0,33.61v-1c.33,0,.57,0,.73,0a4.12,4.12,0,0,0,1.81-.33,2.43,2.43,0,0,0,1.07-1.1q.42-.87.87-7.83c0-.59.07-1,.09-1.31L5,14.91c0-.61.18-2.41.4-5.41s.33-4.8.33-5.42A3.24,3.24,0,0,0,5,1.71,3.24,3.24,0,0,0,2.65,1,2.81,2.81,0,0,0,2.16,1V0l.63.05C4.73.19,6,.26,6.73.26c.48,0,1.1,0,1.86-.08L10.9,0c0,.19-.06.33-.07.43a1.58,1.58,0,0,0,0,.28c0,.86.65,2.68,1.93,5.45.2.46.36.8.47,1l8.41,18.25L29,9.61c1.73-3.7,2.77-6,3.1-6.84A6,6,0,0,0,32.65.71a1.58,1.58,0,0,0,0-.28A4.07,4.07,0,0,0,32.55,0l1.36.1c1.22.11,2.16.16,2.82.16S38,.23,38.85.17L41,0V1A2.5,2.5,0,0,0,40.57,1a4,4,0,0,0-2.71.72,3.32,3.32,0,0,0-.76,2.47c0,.45,0,1.54.11,3.26s.15,3.41.24,5.08l.47,8.63c.19,3.22.33,5.51.44,6.88a25.75,25.75,0,0,0,.29,2.75,2.26,2.26,0,0,0,.81,1.48,3.16,3.16,0,0,0,1.81.42l.73,0Z"/><path class="cls-1" d="M72.49,26.65c-.45,1.36-.83,2.6-1.15,3.74s-.57,2.2-.77,3.22L68,33.54q-5.41-.16-8.69-.16-4.61,0-12.52.21l-.44,0v-1a2,2,0,0,0,.34,0h.62A2.63,2.63,0,0,0,50,31.16q.64-1.48.65-5.94V7.69q0-4.32-.6-5.52C49.65,1.36,48.73,1,47.3,1h-.45l-.28,0V0l.75,0q8.34.44,12,.44c1.22,0,2.76,0,4.63-.12S67.77.17,69.84,0c0,1,0,2,.12,3.05s.2,2.33.38,3.75l-1,.14q-1-3.29-2.38-4t-5.78-.75L58,2.21c-1.11,0-2.08.06-2.92.11,0,1.38-.06,3-.07,4.79s0,4.61,0,8.36c.38,0,.76.08,1.14.1s.8,0,1.26,0h4.31A10.82,10.82,0,0,0,66.27,15a3,3,0,0,0,1.42-2.55l1,.09a18.1,18.1,0,0,0-.25,1.87c-.05.68-.08,1.41-.08,2.21s0,1.52.08,2.25.14,1.5.25,2.3l-1,.11a3.77,3.77,0,0,0-1.42-3.07,9.48,9.48,0,0,0-4.58-.77H57.38c-.47,0-.9,0-1.28,0s-.76.05-1.12.1q0,3.13.06,7t.18,6.66c1.08.12,2.19.22,3.33.29s2.18.1,3.14.1q4.5,0,6.45-1t3.39-4.3Z"/><path class="cls-1" d="M110.91,1a3.29,3.29,0,0,0-.54-.05,3.51,3.51,0,0,0-1.54.33,2.35,2.35,0,0,0-1,.89c-.39.58-.65,2-.77,4.38s-.19,5.92-.19,10.74v9.58c0,1.33,0,2.66.14,4a25.2,25.2,0,0,0,.33,3h-1.69a5.13,5.13,0,0,0-.56-.86c-.28-.38-.65-.84-1.1-1.39L82.34,5.77V16.34c0,5.46,0,9.21.17,11.25s.38,3.32.79,3.86a2.73,2.73,0,0,0,1.19.92,5.49,5.49,0,0,0,1.92.28c.33,0,.65,0,1,0v1L86,33.54c-2.08-.11-3.56-.16-4.43-.16-.72,0-2.07,0-4.06.16l-1.45.07v-1l.31,0h.47a3.62,3.62,0,0,0,1.51-.32,2.44,2.44,0,0,0,1.06-.88c.39-.57.65-2,.78-4.38s.18-5.92.18-10.73V7.22a11.32,11.32,0,0,0-.73-4.91A3,3,0,0,0,76.83,1c-.17,0-.42,0-.73.05V0a.76.76,0,0,0,.24,0c1.84.16,3.21.24,4.12.24.44,0,1,0,1.68-.08L84.26,0a11,11,0,0,0,1,1.89c.43.64,1,1.46,1.86,2.45l17.77,21.35V17.3c0-5.32,0-9-.13-11.19s-.29-3.46-.6-3.93a2.4,2.4,0,0,0-1.17-1,5.74,5.74,0,0,0-2-.27l-.49.05V0l3.2.2c.74,0,1.35.06,1.84.06s1.28,0,2.19-.08L110.91,0Z"/><path class="cls-1" d="M149.06,1a2.42,2.42,0,0,0-.47-.05,4,4,0,0,0-1.81.36,2.4,2.4,0,0,0-1.07,1.09,8.65,8.65,0,0,0-.44,2.66q-.15,2.05-.15,6.46v9.12q0,6.6-3.18,10.15t-9.19,3.54q-6.58,0-10.14-3.71t-3.55-10.45c0-1.31,0-3.31.07-6s.07-4.6.07-5.78q0-4.75-.64-6.1A2.6,2.6,0,0,0,116,1a2.92,2.92,0,0,0-.5.05V0l3,.13c1.45.07,2.47.11,3,.11.82,0,2.26-.06,4.34-.17L128,0V1a2.73,2.73,0,0,0-.5-.05C126,1,125,1.34,124.56,2.1s-.69,2.3-.69,4.63V20.65q0,5.34,2.53,8.31a8.53,8.53,0,0,0,6.82,3c3.42,0,5.92-1,7.49-2.93s2.35-5,2.35-9.3q0-7.86-.16-11.85a20.21,20.21,0,0,0-.56-5,3,3,0,0,0-1.15-1.54,4.17,4.17,0,0,0-2-.38h-.43l-.27,0V0l2.69.14c1.25.07,2.27.1,3,.1s1.58,0,2.44-.07,1.64-.1,2.36-.17Z"/></g></g></svg>