<svg xmlns="http://www.w3.org/2000/svg" viewBox="0 0 279.12 34.31"><defs><style>.cls-1{fill:#231815;}</style></defs><title>party</title><g id="レイヤー_2" data-name="レイヤー 2"><g id="レイヤー_1-2" data-name="レイヤー 1"><path class="cls-1" d="M25.69,9.61A9.11,9.11,0,0,1,22,17.07,14.81,14.81,0,0,1,12.47,20a31.63,31.63,0,0,1-3.24-.22l-.58-.07c0,4.21.06,7.11.17,8.72a6.74,6.74,0,0,0,.79,3.24,2.67,2.67,0,0,0,1.17.91,5.37,5.37,0,0,0,2,.28c.31,0,.63,0,1,0v1l-1.36-.07c-2.47-.11-4.34-.16-5.6-.16s-3.35.06-5.89.19l-.84,0v-1l.34,0H1a2.67,2.67,0,0,0,2.72-1.4q.63-1.41.63-6.28V7.92q0-4.3-.6-5.52C3.32,1.6,2.4,1.2,1,1.2H.52a2.85,2.85,0,0,0-.29,0v-1L1.34.3C3.62.43,5.41.49,6.73.49c.59,0,1.65,0,3.17-.13S12.6.23,13.43.23q5.63,0,8.94,2.52A8.16,8.16,0,0,1,25.69,9.61Zm-4.81.23A7.29,7.29,0,0,0,18.43,4.1,9.31,9.31,0,0,0,12,1.92c-.55,0-1.1,0-1.66.06s-1.1.1-1.6.18q-.06,2.81-.08,6t0,9.82c.61.08,1.17.14,1.67.18s1,.05,1.45.05a9.3,9.3,0,0,0,6.57-2.35A7.84,7.84,0,0,0,20.88,9.84Z"/><path class="cls-1" d="M57.84,33.84l-1.26-.07c-2.14-.11-3.72-.16-4.74-.16-1.23,0-3,0-5.2.16l-1.52.07v-1a2.56,2.56,0,0,0,.49,0,4.11,4.11,0,0,0,2.33-.54,1.83,1.83,0,0,0,.79-1.61,11.43,11.43,0,0,0-.57-2.9q-.55-1.93-2.34-6.71C45,21.07,44.06,21,43.08,21S41,21,39.84,21s-2.26,0-3.22,0-1.8.06-2.52.11L33.38,23C31.77,27.16,31,29.74,31,30.73a1.81,1.81,0,0,0,.79,1.61,4.11,4.11,0,0,0,2.33.54,2.85,2.85,0,0,0,.49,0l0,1c-.94-.07-1.87-.13-2.78-.17s-1.75-.06-2.5-.06-1.56,0-2.47.06-1.84.1-2.78.17l0-1a2.63,2.63,0,0,0,.49,0,3.37,3.37,0,0,0,2-.69,5.24,5.24,0,0,0,1.58-2q.87-1.71,3.4-8.08T40.08,0h3.37q3.38,10.13,6.23,18.4T53.77,30a5,5,0,0,0,1.41,2.23,3.46,3.46,0,0,0,2.17.65,2.56,2.56,0,0,0,.49,0ZM45.21,19.2,40.31,4.31,34.8,19.2c.55.07,1.33.14,2.34.18s1.91.07,2.7.07,1.68,0,2.72-.07S44.49,19.27,45.21,19.2Z"/><path class="cls-1" d="M90.23,33.75l-.7.09c-.62.16-1.19.28-1.7.36a10.66,10.66,0,0,1-1.44.11,8.9,8.9,0,0,1-3.94-.76,7.18,7.18,0,0,1-2.76-2.64c-.49-.73-1.16-1.77-2-3.14l-.63-1-2.16-3.43c-.73-1.14-1.34-2.08-1.84-2.81a15.4,15.4,0,0,0-1-1.33c-.54.07-1.16.14-1.86.18s-1.39.07-2.07.07H66.73V25.3c0,3.35.23,5.49.69,6.44a2.89,2.89,0,0,0,2.89,1.42H71v.75l-.56,0q-4.17-.21-5.93-.21t-5.91.21l-.56,0v-.82a2.36,2.36,0,0,0,.34,0l.62,0a2.64,2.64,0,0,0,2.71-1.52q.64-1.52.64-6V7.92q0-4.3-.6-5.52c-.4-.8-1.31-1.2-2.75-1.2h-.45l-.28,0v-1l.28,0c2.61.15,4.52.23,5.72.23.8,0,1.92,0,3.37-.13S70.24.23,71,.23a14.64,14.64,0,0,1,8.82,2.48,7.57,7.57,0,0,1,3.41,6.41,8.21,8.21,0,0,1-1.61,5A13.9,13.9,0,0,1,76.8,18l5.75,8.77a30.58,30.58,0,0,0,4,5.18,4.35,4.35,0,0,0,3,1.17h.72ZM78.47,9.84a7.44,7.44,0,0,0-2.39-5.72,8.89,8.89,0,0,0-6.24-2.2c-.46,0-1,0-1.51.07s-1,.1-1.51.17c0,1.84,0,3.84-.07,6s0,5.25,0,9.3c.18,0,.46,0,.82,0,1.25.1,2.25.14,3,.14,1.06,0,1.84,0,2.35,0s.93,0,1.26-.07a8.5,8.5,0,0,0,3.22-3.19A9,9,0,0,0,78.47,9.84Z"/><path class="cls-1" d="M116.88,7.2l-1,.25c-.62-2.15-1.35-3.53-2.17-4.13s-2.25-.91-4.3-.91h-4.71c-.06,2.39-.09,4.23-.09,5.51V25.2q0,5,.73,6.32c.48.91,1.52,1.36,3.11,1.36H109l.47,0v1q-2.79-.14-4.32-.18c-1,0-1.9,0-2.64,0s-1.63,0-2.66,0-2.45.09-4.3.18v-1l.45,0h.51c1.58,0,2.61-.45,3.1-1.36s.72-3,.72-6.32V7.92c0-1.28,0-3.12-.09-5.51H95.77a8.08,8.08,0,0,0-4.59,1,7.61,7.61,0,0,0-2.38,4l-1-.25a28.87,28.87,0,0,0,.74-3.54A26.86,26.86,0,0,0,88.8,0a9.31,9.31,0,0,0,2.88.61Q93.35.73,97,.73h10.57c2.5,0,4.38,0,5.63-.13a15.31,15.31,0,0,0,3.39-.6,12.6,12.6,0,0,0-.14,2.16c0,.75,0,1.52.11,2.3S116.71,6.16,116.88,7.2Z"/><path class="cls-1" d="M145.92,1.2h-.72a3.29,3.29,0,0,0-2.38.92,26.72,26.72,0,0,0-3.13,4.37L132,18.73V25.2q0,5,.73,6.32c.48.91,1.52,1.36,3.11,1.36h.5l.46,0v1c-1.85-.09-3.3-.15-4.32-.18s-1.9,0-2.64,0-1.61,0-2.64,0-2.47.09-4.32.18v-1l.45,0h.51c1.58,0,2.62-.45,3.11-1.36s.74-3,.74-6.32V19L120.23,6l-.35-.63q-2.38-4.17-4-4.17h-.42l-.3,0v-1l1.45.1c1.92.11,3.36.16,4.31.16s1.82,0,2.84-.06,2.15-.11,3.4-.2v1c-.32,0-.56,0-.73,0a4.11,4.11,0,0,0-2,.37,1.19,1.19,0,0,0-.67,1.08,3.91,3.91,0,0,0,.32,1.4,17.33,17.33,0,0,0,1.11,2.18l5.86,10.34.38-.61q4.17-6.72,6-10a13.42,13.42,0,0,0,1-1.91,4.13,4.13,0,0,0,.26-1.44,1.22,1.22,0,0,0-.57-1.08,2.88,2.88,0,0,0-1.61-.37c-.16,0-.39,0-.71,0v-1l1,.07c2,.13,3.49.19,4.52.19.78,0,2-.06,3.7-.19l.87-.07Z"/><path class="cls-1" d="M186,9.61a9.11,9.11,0,0,1-3.74,7.46A14.81,14.81,0,0,1,172.78,20a31.3,31.3,0,0,1-3.23-.22l-.59-.07c0,4.21.06,7.11.18,8.72a6.77,6.77,0,0,0,.78,3.24,2.67,2.67,0,0,0,1.17.91,5.37,5.37,0,0,0,1.95.28c.31,0,.63,0,1,0v1l-1.36-.07c-2.47-.11-4.34-.16-5.6-.16s-3.35.06-5.88.19l-.85,0v-1l.34,0h.62a2.67,2.67,0,0,0,2.72-1.4q.63-1.41.63-6.28V7.92c0-2.87-.19-4.71-.59-5.52s-1.32-1.2-2.76-1.2h-.44a2.4,2.4,0,0,0-.28,0v-1l1.1.07c2.28.13,4.08.19,5.39.19.59,0,1.65,0,3.17-.13s2.7-.13,3.53-.13q5.63,0,8.94,2.52A8.16,8.16,0,0,1,186,9.61Zm-4.8.23a7.32,7.32,0,0,0-2.45-5.74,9.35,9.35,0,0,0-6.44-2.18c-.54,0-1.1,0-1.66.06s-1.1.1-1.6.18Q169,5,169,8.18T169,18q.91.12,1.68.18c.5,0,1,.05,1.44.05a9.27,9.27,0,0,0,6.57-2.35A7.85,7.85,0,0,0,181.2,9.84Z"/><path class="cls-1" d="M213.35,26.74c-.51,1.66-.92,3-1.21,4.1s-.52,2.08-.71,3l-2.74-.07q-5.2-.17-8.07-.16-4.1,0-12,.21l-.49,0v-1l.34,0h.62a2.68,2.68,0,0,0,2.72-1.4q.63-1.41.63-6.28V7.92q0-4.3-.6-5.52c-.4-.8-1.32-1.2-2.75-1.2h-.45l-.28,0v-1l1.15.07c2.23.13,3.93.19,5.08.19q2,0,6.19-.21a4.54,4.54,0,0,0,.54-.05v1a2.42,2.42,0,0,0-.47,0c-1.73,0-2.83.44-3.29,1.32s-.69,2.68-.69,5.4q0,9.12.07,14.22t.21,9.31c1.09.13,2.12.22,3.08.28s1.89.1,2.78.1a14,14,0,0,0,5.76-.9c1.27-.61,2.47-2.11,3.59-4.52Z"/><path class="cls-1" d="M244.08,33.84l-1.27-.07c-2.14-.11-3.72-.16-4.73-.16-1.24,0-3,0-5.2.16l-1.53.07v-1a2.63,2.63,0,0,0,.49,0,4.15,4.15,0,0,0,2.34-.54,1.82,1.82,0,0,0,.78-1.61,11.77,11.77,0,0,0-.56-2.9q-.57-1.93-2.35-6.71c-.84-.05-1.75-.08-2.74-.11s-2.06,0-3.23,0-2.26,0-3.22,0-1.81.06-2.52.11c-.18.43-.42,1.05-.73,1.85-1.61,4.19-2.41,6.77-2.41,7.76a1.82,1.82,0,0,0,.78,1.61,4.11,4.11,0,0,0,2.33.54,2.77,2.77,0,0,0,.49,0l0,1c-.94-.07-1.86-.13-2.78-.17s-1.74-.06-2.49-.06-1.56,0-2.47.06-1.84.1-2.78.17l0-1a2.67,2.67,0,0,0,.5,0,3.34,3.34,0,0,0,2-.69,5.24,5.24,0,0,0,1.58-2q.87-1.71,3.4-8.08T226.31,0h3.38q3.38,10.13,6.22,18.4T240,30a5,5,0,0,0,1.42,2.23,3.44,3.44,0,0,0,2.17.65,2.63,2.63,0,0,0,.49,0ZM231.45,19.2l-4.9-14.89L221,19.2c.55.07,1.32.14,2.33.18s1.91.07,2.71.07,1.67,0,2.72-.07S230.73,19.27,231.45,19.2Z"/><path class="cls-1" d="M279.12,1.24a3.12,3.12,0,0,0-.54,0,3.54,3.54,0,0,0-1.54.32,2.42,2.42,0,0,0-1,.89c-.39.58-.65,2-.77,4.39S275,12.72,275,17.53v9.59c0,1.33,0,2.65.14,4a25.7,25.7,0,0,0,.33,3h-1.69a5.54,5.54,0,0,0-.56-.87c-.28-.37-.65-.83-1.1-1.38L250.55,6V16.57q0,8.2.17,11.25c.12,2,.38,3.32.79,3.87a2.84,2.84,0,0,0,1.19.91,5.26,5.26,0,0,0,1.92.28c.33,0,.65,0,1,0v1l-1.34-.07c-2.08-.11-3.55-.16-4.43-.16-.72,0-2.07,0-4,.16l-1.46.07v-1l.31,0h.47a3.61,3.61,0,0,0,1.51-.31,2.51,2.51,0,0,0,1.06-.88c.39-.58.65-2,.78-4.39s.18-5.92.18-10.73V7.45a11.35,11.35,0,0,0-.73-4.91A3,3,0,0,0,245,1.2c-.17,0-.42,0-.73,0v-1a.7.7,0,0,0,.24,0c1.84.15,3.22.23,4.12.23.44,0,1,0,1.68-.07l2.12-.19a10.34,10.34,0,0,0,1,1.89c.43.64,1,1.46,1.86,2.45l17.77,21.35V17.53c0-5.31-.05-9-.13-11.19s-.29-3.46-.6-3.93a2.4,2.4,0,0,0-1.17-1,6,6,0,0,0-2-.26l-.49,0v-1c1.39.1,2.46.16,3.2.2s1.36.06,1.84.06,1.28,0,2.19-.07l3.11-.19Z"/></g></g></svg>