<svg xmlns="http://www.w3.org/2000/svg" viewBox="0 0 139.1 34.95"><defs><style>.cls-1{fill:#231815;}</style></defs><title>price</title><g id="レイヤー_2" data-name="レイヤー 2"><g id="レイヤー_1-2" data-name="レイヤー 1"><path class="cls-1" d="M0,32.65l.36,0,.55,0a2.62,2.62,0,0,0,2.55-1.28q.66-1.28.66-5.69c0-.43,0-1.24,0-2.41s0-2.12,0-2.84V5.81a4,4,0,0,0-.73-2.76A3.65,3.65,0,0,0,.7,2.3H.52V.66C1.58.73,2.64.79,3.69.82s2.1.05,3.13.05S9.36.83,11,.76s2.63-.1,3.1-.1a12.46,12.46,0,0,1,8.21,2.55,8.35,8.35,0,0,1,3.07,6.73A9.42,9.42,0,0,1,22,17.64q-3.36,2.74-9.5,2.75c-.41,0-1,0-1.65-.07l-2.48-.21v7.05c0,2.41.25,3.92.74,4.54s1.48.92,3,.92a1.3,1.3,0,0,0,.24,0l.27,0h.18l.1,0,0,1.55c-1.14-.06-2.29-.11-3.45-.14S7.12,34,6,34c-.55,0-1.35,0-2.4.05s-2.26.08-3.6.14ZM8.34,18c.66.1,1.25.17,1.78.21s1.06.07,1.58.07q4.4,0,6.69-1.95a7.15,7.15,0,0,0,2.28-5.73,6.92,6.92,0,0,0-2.25-5.42,8.81,8.81,0,0,0-6.09-2c-.71,0-1.37,0-2,.08s-1.25.14-1.86.25Q8.39,6.6,8.37,9.83T8.34,18Z"/><path class="cls-1" d="M28.27,32.65l.31,0,.46,0c2.08,0,3.13-2.93,3.16-8.77,0-1.47,0-2.62,0-3.45l.09-6.39c0-1.38,0-2.71,0-4s0-2.7,0-4.22a4,4,0,0,0-.75-2.79A3.64,3.64,0,0,0,29,2.3h-.19V.66c1,.07,2.08.13,3.11.16s2,.05,3,.05,2.34,0,3.9-.11,2.59-.1,3.1-.1a12,12,0,0,1,7.88,2.53,7.91,7.91,0,0,1,3.07,6.35,8.62,8.62,0,0,1-1.54,5.05,12.21,12.21,0,0,1-4.6,3.79L51.07,25l.7,1.08Q56.32,33,59.23,33h.23v1.34l-1,.09c-1,.1-1.76.14-2.23.14a9.64,9.64,0,0,1-3.93-.66,7.81,7.81,0,0,1-2.84-2.59q-.24-.32-2.59-4.18t-4.75-7.28c-.59.06-1.23.1-1.9.14s-1.41,0-2.22,0H36.61v7.2c0,2.34.24,3.82.73,4.44s1.44.92,2.88.92a.72.72,0,0,0,.19,0l.18,0,.16,0,.08,0v1.55c-1.11-.06-2.21-.11-3.31-.14S35.34,34,34.27,34c-.58,0-1.39,0-2.44.05s-2.24.08-3.56.14Zm8.34-15c.75.08,1.46.13,2.12.16s1.25.05,1.77.05.94,0,1.5,0,1.17-.06,1.83-.12a9.23,9.23,0,0,0,3.3-3.16,8.2,8.2,0,0,0,1.06-4.27A6.82,6.82,0,0,0,46.08,5a8,8,0,0,0-5.67-2c-.64,0-1.27,0-1.88.08s-1.21.14-1.8.25q-.07,2.91-.1,6T36.61,17.65Z"/><path class="cls-1" d="M62,.73c1.09.06,2.18.11,3.25.14s2.14,0,3.17,0c.87,0,1.85,0,2.93,0S73.59.79,74.79.73V2.32h-.4a5.74,5.74,0,0,0-2.28.35A2,2,0,0,0,71,3.84a7,7,0,0,0-.27,1.75c-.06.81-.08,2.12-.08,3.93V25.87a38.24,38.24,0,0,0,.13,3.89,4.86,4.86,0,0,0,.41,1.67,1.74,1.74,0,0,0,1.09.84,7.12,7.12,0,0,0,2.21.26H75v1.64c-1.34-.06-2.58-.11-3.72-.14S69.2,34,68.44,34s-1.93,0-3.07.05-2.34.08-3.59.14V32.53h.47a7.17,7.17,0,0,0,2.23-.26,1.76,1.76,0,0,0,1.07-.84A5.84,5.84,0,0,0,66,29.35c.09-1,.13-2.7.13-5.22V11.26q0-3.69-.09-5.25a9.7,9.7,0,0,0-.31-2.17,2,2,0,0,0-1-1.17,5.65,5.65,0,0,0-2.28-.35H62Z"/><path class="cls-1" d="M107.32,1.78v.8c0,1.09,0,2.23.12,3.41s.19,2.42.35,3.71l-1.71.28a7.36,7.36,0,0,0-3.19-5.26,12.19,12.19,0,0,0-7.1-1.88q-5.83,0-9,3.57T83.6,16.55q0,7,3.65,11.33A12.61,12.61,0,0,0,103,30.52a11.22,11.22,0,0,0,4.19-4.95l1.57.77c-.5,1-1,2.05-1.36,3.11s-.77,2.11-1.08,3.17a26.13,26.13,0,0,1-5.16,1.74,24.12,24.12,0,0,1-5.27.59q-7.79,0-12.6-4.82T78.52,17.46A16.66,16.66,0,0,1,83.6,4.86Q88.69,0,96.75,0a30.32,30.32,0,0,1,5,.45A41.53,41.53,0,0,1,107.32,1.78Z"/><path class="cls-1" d="M112.78.73c2.74.09,5.18.16,7.34.21s4,.07,5.58.07c1.73,0,3.48,0,5.26-.07s3.57-.12,5.4-.21c0,1.17.06,2.37.14,3.59s.17,2.46.28,3.7l-1.57.14c-.12-1.88-.7-3.15-1.73-3.81s-3.26-1-6.68-1c-.88,0-2.48,0-4.81.07l-1,0q0,2.81-.14,6.89c-.06,2.71-.1,4.48-.12,5.29h.73c.92,0,2.07,0,3.46,0l2.77,0c2.27,0,3.77-.21,4.49-.63a2.66,2.66,0,0,0,1.19-2.34l1.47.14c-.11,1-.19,1.86-.24,2.69s-.09,1.6-.09,2.3c0,.41,0,1.28.12,2.62,0,.49.06.86.07,1.11l-1.52,0v-.18a2.91,2.91,0,0,0-1.16-2.7c-.78-.47-2.58-.7-5.43-.7H120.7c0,.76,0,1.82,0,3.17s0,2.33,0,2.92c0,1,0,2.11,0,3.22s0,2.43.09,3.93c.78.09,1.67.16,2.66.21s2.09.07,3.27.07c3.92,0,6.51-.38,7.75-1.14a7.77,7.77,0,0,0,3-4.37l1.69.56c-.47,1.3-.88,2.58-1.24,3.83s-.67,2.49-.94,3.72q-3.67-.14-6.84-.21c-2.11-.05-4-.07-5.72-.07q-3.49,0-11.25.26l-.84,0V32.65l.31,0,.46,0c2.08,0,3.13-2.93,3.16-8.77,0-1.47,0-2.62,0-3.45l.09-6.39c0-1.38,0-2.71,0-4s0-2.7,0-4.22a4,4,0,0,0-.75-2.79A3.64,3.64,0,0,0,113,2.3h-.19Z"/></g></g></svg>