<svg xmlns="http://www.w3.org/2000/svg" viewBox="0 0 208.59 34.81"><defs><style>.cls-1{fill:#231815;}</style></defs><title>recruit</title><g id="レイヤー_2" data-name="レイヤー 2"><g id="レイヤー_1-2" data-name="レイヤー 1"><path class="cls-1" d="M32.16,34l-.71.1c-.62.16-1.19.27-1.7.35a9.12,9.12,0,0,1-1.44.12,9,9,0,0,1-3.93-.76,7.13,7.13,0,0,1-2.77-2.64c-.49-.73-1.16-1.78-2-3.14L19,27,16.8,23.57c-.73-1.14-1.34-2.08-1.84-2.81s-.8-1.17-.94-1.33c-.55.08-1.17.14-1.87.19s-1.38.07-2.07.07H8.65v5.84q0,5,.69,6.44c.46,1,1.43,1.42,2.89,1.42H13v.74c-.12,0-.31,0-.56,0q-4.17-.21-5.93-.21T.56,34.1c-.26,0-.45,0-.56,0V33.3a2.11,2.11,0,0,0,.34,0H1a2.62,2.62,0,0,0,2.71-1.51q.64-1.52.64-6.05V8.16q0-4.32-.6-5.52C3.32,1.83,2.4,1.43,1,1.43H.52l-.29,0v-1l.29,0C3.12.65,5,.73,6.23.73,7,.73,8.15.68,9.6.6S12.16.47,13,.47a14.69,14.69,0,0,1,8.83,2.47A7.6,7.6,0,0,1,25.2,9.35a8.21,8.21,0,0,1-1.62,5,13.94,13.94,0,0,1-4.85,3.92L24.47,27a30.37,30.37,0,0,0,4,5.17,4.37,4.37,0,0,0,3,1.17h.73ZM20.39,10.08A7.43,7.43,0,0,0,18,4.36a8.82,8.82,0,0,0-6.23-2.2c-.47,0-1,0-1.52.07s-1,.1-1.51.16q0,2.76-.07,6c0,2.15,0,5.24,0,9.29.19,0,.46,0,.82,0,1.25.09,2.25.14,3,.14l2.35,0c.51,0,.93,0,1.26-.07a8.5,8.5,0,0,0,3.22-3.19A9,9,0,0,0,20.39,10.08Z"/><path class="cls-1" d="M57.84,27.12c-.45,1.36-.83,2.6-1.14,3.74s-.58,2.2-.78,3.22L53.34,34c-3.61-.11-6.5-.17-8.69-.17q-4.59,0-12.52.21l-.44,0v-1a2.11,2.11,0,0,0,.34,0h.62a2.65,2.65,0,0,0,2.71-1.49q.64-1.48.64-5.94V8.16q0-4.32-.6-5.52c-.4-.81-1.31-1.21-2.75-1.21H32.2l-.28,0v-1l.75,0Q41,1,44.65,1c1.22,0,2.76,0,4.63-.12S53.12.64,55.2.49c0,1,0,2,.11,3.05s.21,2.33.38,3.75l-1,.14c-.64-2.19-1.44-3.53-2.38-4s-2.87-.75-5.78-.75l-3.22,0c-1.1,0-2.08.06-2.92.11,0,1.37,0,3-.07,4.79s0,4.61,0,8.36c.37,0,.75.08,1.13.1s.8,0,1.26,0H47a10.82,10.82,0,0,0,4.58-.66A3,3,0,0,0,53,12.87L54,13a17.89,17.89,0,0,0-.25,1.86c0,.68-.08,1.42-.08,2.22s0,1.51.08,2.25.14,1.5.25,2.3l-1,.11a3.77,3.77,0,0,0-1.42-3.07A9.48,9.48,0,0,0,47,17.86H42.73c-.47,0-.9,0-1.28,0s-.75.06-1.11.11q0,3.13,0,7c0,2.58.1,4.79.18,6.65q1.62.19,3.33.3c1.14.07,2.19.1,3.14.1q4.5,0,6.46-1t3.38-4.3Z"/><path class="cls-1" d="M91.69,26.39a21.87,21.87,0,0,0-1.24,2.74c-.5,1.27-.89,2.35-1.15,3.26A18.89,18.89,0,0,1,84.57,34a25.61,25.61,0,0,1-5.35.57q-7.83,0-12.56-4.56T61.92,17.77q0-7.93,4.92-12.85T79.69,0a30.68,30.68,0,0,1,5.42.48,29.68,29.68,0,0,1,5.24,1.44c0,.28,0,.6-.07.94s0,.67,0,1c0,.83,0,1.74.13,2.73s.2,1.92.34,2.78l-1.2.26a8.91,8.91,0,0,0-3.27-5.88,11.2,11.2,0,0,0-7-2q-5.88,0-8.94,3.84T67.22,16.8A17.59,17.59,0,0,0,70.8,28.18a11.47,11.47,0,0,0,9.38,4.47,11.28,11.28,0,0,0,6.15-1.79,12.2,12.2,0,0,0,4.4-4.94Z"/><path class="cls-1" d="M127.22,34l-.7.1c-.63.16-1.2.27-1.7.35a9.32,9.32,0,0,1-1.44.12,9,9,0,0,1-3.94-.76,7.2,7.2,0,0,1-2.77-2.64c-.48-.73-1.15-1.78-2-3.14-.28-.45-.5-.78-.64-1l-2.15-3.44c-.74-1.14-1.35-2.08-1.84-2.81s-.81-1.17-1-1.33c-.55.08-1.17.14-1.87.19s-1.38.07-2.07.07h-1.43v5.84q0,5,.69,6.44c.46,1,1.43,1.42,2.9,1.42H108v.74c-.12,0-.31,0-.56,0q-4.17-.21-5.93-.21t-5.91.21c-.26,0-.45,0-.56,0V33.3a2.11,2.11,0,0,0,.34,0H96a2.62,2.62,0,0,0,2.71-1.51q.64-1.52.65-6.05V8.16q0-4.32-.6-5.52c-.4-.81-1.32-1.21-2.76-1.21h-.44l-.28,0v-1l.28,0c2.61.16,4.51.24,5.72.24.79,0,1.91,0,3.36-.13S107.23.47,108,.47a14.69,14.69,0,0,1,8.83,2.47,7.6,7.6,0,0,1,3.41,6.41,8.21,8.21,0,0,1-1.62,5,13.84,13.84,0,0,1-4.85,3.92L119.53,27a30.91,30.91,0,0,0,4,5.17,4.37,4.37,0,0,0,3,1.17h.73Zm-11.77-23.9a7.39,7.39,0,0,0-2.39-5.72,8.82,8.82,0,0,0-6.23-2.2c-.47,0-1,0-1.51.07s-1,.1-1.52.16q0,2.76-.07,6c0,2.15,0,5.24,0,9.29.19,0,.46,0,.82,0,1.25.09,2.25.14,3,.14l2.36,0c.5,0,.92,0,1.25-.07a8.43,8.43,0,0,0,3.22-3.19A9,9,0,0,0,115.45,10.08Z"/><path class="cls-1" d="M160.83,1.48a2.5,2.5,0,0,0-.47-.05,4,4,0,0,0-1.82.36,2.38,2.38,0,0,0-1.06,1.09A8.25,8.25,0,0,0,157,5.54q-.14,2.06-.14,6.46v9.12q0,6.6-3.19,10.15c-2.12,2.35-5.18,3.54-9.18,3.54-4.4,0-7.77-1.24-10.14-3.71s-3.55-6-3.55-10.45q0-2,.07-6c0-2.68.07-4.61.07-5.78q0-4.76-.65-6.1a2.6,2.6,0,0,0-2.61-1.35,2.81,2.81,0,0,0-.49.05v-1l2.95.13c1.45.07,2.47.11,3.05.11.81,0,2.26-.06,4.33-.17l2.16-.07v1a2.63,2.63,0,0,0-.49-.05c-1.47,0-2.43.38-2.9,1.14s-.69,2.3-.69,4.63V21.12c0,3.56.85,6.33,2.53,8.31a8.53,8.53,0,0,0,6.82,3c3.43,0,5.92-1,7.49-2.93s2.36-5.05,2.36-9.3q0-7.86-.17-11.85a19.62,19.62,0,0,0-.56-5A2.88,2.88,0,0,0,153,1.8a4.16,4.16,0,0,0-2-.37h-.43l-.27,0v-1l2.7.14c1.25.06,2.26.1,3,.1s1.58,0,2.44-.07,1.65-.11,2.37-.17Z"/><path class="cls-1" d="M177.87,34.08l-.52,0q-4.22-.21-6.21-.21t-6.19.21l-.51,0v-1l.29,0h.67c1.48,0,2.45-.46,2.9-1.39s.68-3,.68-6.3V8.16q0-4.36-.63-5.55c-.42-.79-1.4-1.18-2.95-1.18H165l-.28,0v-1l.47,0q4.32.24,6,.24t5.91-.21l.58-.05v1l-.28,0h-.44c-1.55,0-2.53.39-3,1.18s-.63,2.64-.63,5.55V25.43q0,4.92.68,6.3c.45.93,1.42,1.39,2.91,1.39h.66l.3,0Z"/><path class="cls-1" d="M208.59,7.43l-1,.26q-.93-3.24-2.17-4.14a7.57,7.57,0,0,0-4.3-.9h-4.71c-.06,2.39-.09,4.23-.09,5.51V25.43q0,5,.73,6.33c.48.9,1.52,1.36,3.11,1.36h.5l.46,0v1c-1.86-.1-3.3-.16-4.32-.19s-1.9,0-2.64,0-1.63,0-2.66,0-2.45.09-4.3.19v-1l.45,0h.51c1.58,0,2.61-.46,3.1-1.36s.72-3,.72-6.33V8.16c0-1.28,0-3.12-.09-5.51h-4.45a8.1,8.1,0,0,0-4.59,1,7.54,7.54,0,0,0-2.37,4l-1-.26a28.12,28.12,0,0,0,.74-3.54,26.75,26.75,0,0,0,.23-3.66,8.91,8.91,0,0,0,2.87.61c1.11.08,2.88.12,5.28.12h10.57c2.5,0,4.38,0,5.63-.13a14.41,14.41,0,0,0,3.4-.6,11.61,11.61,0,0,0-.15,2.16c0,.75,0,1.52.11,2.31S208.42,6.4,208.59,7.43Z"/></g></g></svg>