<svg xmlns="http://www.w3.org/2000/svg" viewBox="0 0 242.16 106.8"><defs><style>.cls-1{fill:#231815;}</style></defs><title>takeout-menu</title><g id="レイヤー_2" data-name="レイヤー 2"><g id="レイヤー_1-2" data-name="レイヤー 1"><path class="cls-1" d="M29,7.43l-1,.26q-.95-3.24-2.17-4.14a7.57,7.57,0,0,0-4.3-.9H16.9c-.06,2.39-.1,4.23-.1,5.51V25.43c0,3.31.25,5.42.73,6.33s1.52,1.36,3.12,1.36h.49l.47,0v1c-1.86-.1-3.3-.16-4.32-.19s-1.91,0-2.64,0-1.64,0-2.66,0-2.46.09-4.3.19v-1l.44,0h.52c1.58,0,2.61-.46,3.09-1.36s.73-3,.73-6.33V8.16c0-1.28,0-3.12-.09-5.51H7.92a8.06,8.06,0,0,0-4.58,1A7.61,7.61,0,0,0,1,7.69L0,7.43A30,30,0,0,0,.74,3.89,26.86,26.86,0,0,0,1,.23,9,9,0,0,0,3.83.84C5,.92,6.71,1,9.12,1H19.69c2.5,0,4.37,0,5.62-.13a14.32,14.32,0,0,0,3.4-.6,12.76,12.76,0,0,0-.14,2.16c0,.75,0,1.52.11,2.31S28.87,6.4,29,7.43Z"/><path class="cls-1" d="M61.2,34.08,59.93,34c-2.14-.11-3.72-.17-4.73-.17-1.24,0-3,.06-5.21.17l-1.52.07v-1a2.54,2.54,0,0,0,.49,0,4.11,4.11,0,0,0,2.33-.54A1.82,1.82,0,0,0,52.08,31a11.71,11.71,0,0,0-.56-2.89q-.57-1.93-2.35-6.72c-.84-.05-1.76-.08-2.74-.1s-2.06,0-3.23,0-2.27,0-3.23,0-1.8.05-2.52.1l-.72,1.85Q34.32,29.49,34.31,31a1.82,1.82,0,0,0,.79,1.62,4.11,4.11,0,0,0,2.33.54,2.81,2.81,0,0,0,.49,0l0,1C37,34,36,33.94,35.12,33.9s-1.74-.06-2.5-.06-1.55,0-2.47.06-1.84.1-2.77.18l0-1a2.63,2.63,0,0,0,.49,0,3.37,3.37,0,0,0,2-.69,5.4,5.4,0,0,0,1.58-2q.87-1.71,3.4-8.09T43.43.23H46.8Q50.18,10.36,53,18.63t4.09,11.6a5,5,0,0,0,1.42,2.23,3.35,3.35,0,0,0,2.16.66,2.65,2.65,0,0,0,.5,0ZM48.56,19.43,43.66,4.55l-5.5,14.88c.54.08,1.32.14,2.33.19s1.91.07,2.71.07,1.67,0,2.71-.07S47.84,19.51,48.56,19.43Z"/><path class="cls-1" d="M74.16,34.08l-1,0c-2.46-.12-4.22-.19-5.3-.19s-3.13.07-5.91.21l-.56,0v-1a2.11,2.11,0,0,0,.34,0h.62a2.66,2.66,0,0,0,2.72-1.41q.63-1.41.63-6.28V8.16q0-4.32-.6-5.52c-.39-.81-1.31-1.21-2.75-1.21H62l-.29,0v-1l3.75.18Q66.9.73,67.9.73C69.12.73,71,.65,73.62.49h.28v1a2.5,2.5,0,0,0-.47-.05c-1.44,0-2.36.4-2.75,1.21s-.6,2.64-.6,5.52V25.43q0,4.88.63,6.28a2.66,2.66,0,0,0,2.72,1.41h.45l.28,0Zm20.15,0-.51,0c-1.6-.12-3-.19-4.06-.19s-2.63.07-4.47.21l-.43,0s0,0,0,0a1.54,1.54,0,0,0,.07-.42q0-1-3.71-4.71c-.84-.83-1.52-1.5-2-2l-9.12-9.11L78.7,9.12q3.85-3.85,4.56-4.78A2.91,2.91,0,0,0,84,2.65a1,1,0,0,0-.57-.9,3.26,3.26,0,0,0-1.59-.32c-.16,0-.39,0-.7.05v-1l1.45.09q2.87.15,4.29.15c1,0,2.36-.06,4.12-.17L92.16.49v1a3,3,0,0,0-.5-.05,5.38,5.38,0,0,0-3,1.07,42.29,42.29,0,0,0-4.63,4l-9.59,9.14L87.59,28.8a34.34,34.34,0,0,0,3.85,3.46,4.54,4.54,0,0,0,2.64.86c.15,0,.23,0,.23,0Z"/><path class="cls-1" d="M120.23,27.12c-.45,1.36-.83,2.6-1.14,3.74s-.57,2.2-.78,3.22L115.73,34c-3.61-.11-6.5-.17-8.69-.17q-4.59,0-12.52.21l-.44,0v-1a2.11,2.11,0,0,0,.34,0H95a2.65,2.65,0,0,0,2.71-1.49q.65-1.48.64-5.94V8.16q0-4.32-.6-5.52c-.4-.81-1.31-1.21-2.75-1.21h-.45l-.28,0v-1l.75,0Q103.4,1,107,1c1.22,0,2.76,0,4.63-.12s3.84-.2,5.92-.35c0,1,0,2,.11,3.05s.21,2.33.38,3.75l-1,.14c-.64-2.19-1.44-3.53-2.38-4s-2.87-.75-5.78-.75l-3.22,0c-1.1,0-2.08.06-2.92.11,0,1.37,0,3-.07,4.79s0,4.61,0,8.36c.37,0,.75.08,1.13.1s.8,0,1.26,0h4.31a10.82,10.82,0,0,0,4.58-.66,3,3,0,0,0,1.42-2.55l1,.09a17.89,17.89,0,0,0-.25,1.86c0,.68-.08,1.42-.08,2.22s0,1.51.08,2.25.14,1.5.25,2.3l-1,.11A3.77,3.77,0,0,0,114,18.63a9.48,9.48,0,0,0-4.58-.77h-4.31c-.47,0-.9,0-1.28,0s-.75.06-1.11.11q0,3.13.06,7c0,2.58.09,4.79.17,6.65q1.62.19,3.33.3c1.14.07,2.19.1,3.14.1q4.5,0,6.46-1t3.38-4.3Z"/><path class="cls-1" d="M172.8,17.27a16.89,16.89,0,0,1-4.88,12.25,17.06,17.06,0,0,1-24,.15,17.17,17.17,0,0,1-4.68-12.4,16.86,16.86,0,0,1,5-12.2,16.83,16.83,0,0,1,23.92-.16A17.06,17.06,0,0,1,172.8,17.27Zm-5.27,1q0-7.5-3.33-12a10.3,10.3,0,0,0-8.67-4.52,9.62,9.62,0,0,0-7.92,4q-3.12,4-3.12,10.6,0,7.5,3.32,12a10.33,10.33,0,0,0,8.68,4.46,9.65,9.65,0,0,0,7.94-4Q167.54,24.8,167.53,18.23Z"/><path class="cls-1" d="M211.2,1.48a2.59,2.59,0,0,0-.47-.05,4,4,0,0,0-1.82.36,2.4,2.4,0,0,0-1.07,1.09,8.65,8.65,0,0,0-.44,2.66c-.1,1.37-.14,3.52-.14,6.46v9.12q0,6.6-3.19,10.15t-9.19,3.53q-6.58,0-10.13-3.7T181.2,20.65q0-2,.07-6c0-2.68.07-4.61.07-5.78q0-4.76-.65-6.1a2.6,2.6,0,0,0-2.61-1.35,2.81,2.81,0,0,0-.49.05v-1l2.95.13c1.45.07,2.47.11,3.05.11.81,0,2.25-.06,4.33-.17l2.16-.07v1a2.63,2.63,0,0,0-.49-.05c-1.47,0-2.44.38-2.9,1.14S186,4.87,186,7.2V21.12q0,5.34,2.53,8.31a8.53,8.53,0,0,0,6.82,3q5.13,0,7.49-2.93t2.36-9.3q0-7.86-.17-11.85a20.13,20.13,0,0,0-.56-5,2.93,2.93,0,0,0-1.15-1.55,4.16,4.16,0,0,0-2-.37h-.43l-.27,0v-1l2.69.14c1.25.06,2.27.1,3,.1s1.58,0,2.44-.07,1.65-.11,2.37-.17Z"/><path class="cls-1" d="M242.16,7.43l-1,.26q-.94-3.24-2.17-4.14a7.59,7.59,0,0,0-4.3-.9H230c-.07,2.39-.1,4.23-.1,5.51V25.43q0,5,.73,6.33c.48.9,1.52,1.36,3.12,1.36h.49l.47,0v1c-1.86-.1-3.3-.16-4.33-.19s-1.9,0-2.63,0-1.64,0-2.66,0-2.46.09-4.31.19v-1l.45,0h.52c1.57,0,2.61-.46,3.09-1.36s.73-3,.73-6.33V8.16c0-1.28,0-3.12-.1-5.51H221a8.06,8.06,0,0,0-4.58,1,7.55,7.55,0,0,0-2.38,4l-1-.26a30,30,0,0,0,.74-3.54,28.57,28.57,0,0,0,.22-3.66A9,9,0,0,0,217,.84q1.68.12,5.28.12H232.8c2.5,0,4.38,0,5.63-.13a14.41,14.41,0,0,0,3.4-.6,11.78,11.78,0,0,0-.14,2.16c0,.75,0,1.52.1,2.31S242,6.4,242.16,7.43Z"/><path class="cls-1" d="M88.3,106.08l-.63,0c-2.31-.12-4.1-.19-5.37-.19-1.06,0-2.82.07-5.27.19l-1,0v-1l.51,0,.45,0a3.41,3.41,0,0,0,2.4-.69,3.31,3.31,0,0,0,.71-2.43q0-3.7-.26-10.42T79.18,78l-.23.73L69.11,99.84a25.09,25.09,0,0,0-1.23,3,19.6,19.6,0,0,0-.7,2.79H66a11.16,11.16,0,0,0-.52-1.71c-.23-.63-.78-1.9-1.64-3.82L54.46,79.2l-.71-1.43-.25,3.84q-.33,4.8-.52,10c-.12,3.44-.19,6.67-.19,9.7a4.55,4.55,0,0,0,.76,3,3.89,3.89,0,0,0,2.83.8c.17,0,.41,0,.73-.05v1l-.78,0c-2.2-.12-3.79-.19-4.76-.19s-2.28.06-4.19.17l-1.08.07v-1c.33,0,.57.05.73.05a4.12,4.12,0,0,0,1.81-.33,2.43,2.43,0,0,0,1.07-1.1q.42-.87.87-7.83c0-.59.08-1,.09-1.31l.47-7.17c0-.61.18-2.42.4-5.41s.33-4.8.33-5.42A2.7,2.7,0,0,0,49,73.43a2.81,2.81,0,0,0-.49,0v-1l.63,0c1.94.14,3.25.21,3.94.21.48,0,1.1,0,1.86-.08l2.31-.18c0,.19-.06.33-.07.43a1.42,1.42,0,0,0,0,.27q0,1.31,1.92,5.46c.2.45.36.8.47,1l8.41,18.26,7.43-15.84q2.59-5.55,3.11-6.84a6.19,6.19,0,0,0,.5-2.07c0-.07,0-.17,0-.27s0-.24-.07-.43l1.35.1c1.22.11,2.16.16,2.82.16s1.24,0,2.12-.09l2.19-.17v1a2.5,2.5,0,0,0-.47,0,4,4,0,0,0-2.71.71,3.36,3.36,0,0,0-.76,2.48c0,.45,0,1.54.11,3.26s.15,3.41.24,5.08l.47,8.63c.19,3.21.33,5.51.44,6.87s.2,2.29.29,2.76a2.29,2.29,0,0,0,.81,1.48,3.16,3.16,0,0,0,1.81.42l.73-.05Z"/><path class="cls-1" d="M118.79,99.12c-.45,1.36-.83,2.6-1.15,3.74s-.57,2.2-.77,3.22l-2.58-.07c-3.61-.11-6.5-.17-8.69-.17q-4.59,0-12.52.21l-.44,0v-1a2,2,0,0,0,.34,0h.62a2.63,2.63,0,0,0,2.7-1.49q.65-1.48.65-5.94V80.16q0-4.32-.6-5.52c-.4-.81-1.31-1.21-2.75-1.21h-.45l-.28,0v-1l.75,0q8.34.44,12,.44c1.22,0,2.76,0,4.63-.12s3.84-.2,5.91-.35c0,1,0,2,.12,3.05s.2,2.33.38,3.75l-1,.14c-.64-2.19-1.44-3.53-2.38-4s-2.87-.75-5.78-.75l-3.22,0c-1.1,0-2.08.06-2.92.11,0,1.37-.06,3-.07,4.79s0,4.61,0,8.36c.37,0,.75.08,1.13.1s.8,0,1.26,0H108a10.82,10.82,0,0,0,4.58-.66A3,3,0,0,0,114,84.87l1,.09a17.89,17.89,0,0,0-.25,1.86c0,.68-.08,1.42-.08,2.22s0,1.51.08,2.25.14,1.5.25,2.3l-1,.11a3.77,3.77,0,0,0-1.42-3.07,9.48,9.48,0,0,0-4.58-.77h-4.31c-.47,0-.9,0-1.28,0s-.76.06-1.11.11c0,2.09,0,4.43,0,7s.1,4.79.18,6.65q1.62.2,3.33.3c1.14.07,2.19.1,3.14.1q4.5,0,6.46-1t3.38-4.3Z"/><path class="cls-1" d="M157.21,73.48a3.1,3.1,0,0,0-.54,0,3.54,3.54,0,0,0-1.54.33,2.35,2.35,0,0,0-1,.89c-.39.58-.65,2-.77,4.38s-.19,5.92-.19,10.74v9.58c0,1.33.05,2.66.14,4a25.47,25.47,0,0,0,.33,3h-1.69a5.13,5.13,0,0,0-.56-.86c-.28-.38-.65-.84-1.1-1.39L128.64,78.23V88.8q0,8.2.17,11.25c.12,2,.38,3.33.79,3.87a2.87,2.87,0,0,0,1.19.92,5.49,5.49,0,0,0,1.92.28c.33,0,.65,0,1-.05v1l-1.34-.07c-2.08-.11-3.55-.17-4.43-.17-.72,0-2.07.06-4,.17l-1.46.07v-1l.31,0h.47a3.62,3.62,0,0,0,1.51-.32,2.44,2.44,0,0,0,1.06-.88q.59-.87.78-4.38t.18-10.74V79.69a11.32,11.32,0,0,0-.73-4.91,3,3,0,0,0-2.85-1.35c-.17,0-.42,0-.73,0v-1l.24,0c1.84.16,3.22.24,4.12.24.44,0,1,0,1.68-.08l2.12-.18a10.61,10.61,0,0,0,1,1.88,30.16,30.16,0,0,0,1.86,2.45l17.77,21.36V89.77c0-5.32-.05-9-.13-11.2a10.21,10.21,0,0,0-.6-3.92,2.4,2.4,0,0,0-1.17-1,5.74,5.74,0,0,0-1.95-.27l-.49,0v-1l3.2.2c.74,0,1.36.06,1.84.06s1.28,0,2.19-.08l3.11-.18Z"/><path class="cls-1" d="M195.36,73.48a2.42,2.42,0,0,0-.47,0,4,4,0,0,0-1.81.36A2.4,2.4,0,0,0,192,74.88a8.65,8.65,0,0,0-.44,2.66c-.1,1.37-.14,3.52-.14,6.46v9.12q0,6.6-3.19,10.15t-9.19,3.53q-6.59,0-10.14-3.7t-3.55-10.45c0-1.31,0-3.31.07-6s.07-4.61.07-5.78q0-4.75-.64-6.1a2.6,2.6,0,0,0-2.61-1.35,3,3,0,0,0-.5,0v-1l3,.13c1.45.07,2.47.11,3,.11.82,0,2.26-.06,4.34-.17l2.16-.07v1a2.65,2.65,0,0,0-.5,0c-1.46,0-2.43.38-2.89,1.14s-.69,2.3-.69,4.63V93.12q0,5.34,2.53,8.31a8.53,8.53,0,0,0,6.82,3q5.13,0,7.49-2.93t2.35-9.3q0-7.86-.16-11.85a20.13,20.13,0,0,0-.56-5,3,3,0,0,0-1.15-1.55,4.16,4.16,0,0,0-2-.37h-.43l-.27,0v-1l2.69.14c1.25.06,2.27.1,3.05.1s1.58,0,2.44-.07,1.64-.11,2.36-.17Z"/></g></g></svg>