<svg xmlns="http://www.w3.org/2000/svg" viewBox="0 0 735.91 34.8"><defs><style>.cls-1{fill:#231815;}</style></defs><title>welcome</title><g id="レイヤー_2" data-name="レイヤー 2"><g id="レイヤー_1-2" data-name="レイヤー 1"><path class="cls-1" d="M49.45,1.48A2.54,2.54,0,0,0,49,1.43a3.4,3.4,0,0,0-2.1.67,4.78,4.78,0,0,0-1.48,2c-.4.86-1.93,5.21-4.62,13s-4.67,13.57-6,17.19H32.65Q30.9,29,29.09,23.92T25.22,13.2l-1.81,4.45Q19.36,27.78,16.8,34.31H14.65q-2.67-8-5.44-15.86T4.08,4.31A4.91,4.91,0,0,0,2.67,2.1,3.38,3.38,0,0,0,.49,1.43,2.91,2.91,0,0,0,0,1.48v-1l.28,0C2.89.65,4.8.73,6,.73q2.3,0,6.26-.24l.23,0v1A2.54,2.54,0,0,0,12,1.43a4.65,4.65,0,0,0-2.37.46,1.58,1.58,0,0,0-.75,1.46,10.22,10.22,0,0,0,.6,2.42Q10.08,7.59,12,13l5.3,14.88q1.77-4.34,5.22-13l1.74-4.33c-.33-1.07-.69-2.19-1.08-3.38S22.42,5,22.08,4.08A5.15,5.15,0,0,0,20.85,2a3.3,3.3,0,0,0-2.12-.56c-.16,0-.4,0-.73.05v-1l1.24.07C21.41.66,23,.73,24,.73q2.54,0,6.52-.24l.21,0v1A4.18,4.18,0,0,0,30,1.43a5,5,0,0,0-2.34.42,1.36,1.36,0,0,0-.78,1.27A25.74,25.74,0,0,0,28.22,8c.69,2.06,1.28,3.88,1.78,5.44.38,1.12,1.14,3.27,2.29,6.42s2.06,5.74,2.75,7.76c.44-1.2.91-2.55,1.42-4s1.31-3.91,2.42-7.27C40.34,12,41.3,9,41.78,7.24a16.39,16.39,0,0,0,.71-3.63A1.86,1.86,0,0,0,41.71,2a4.14,4.14,0,0,0-2.33-.54,2.65,2.65,0,0,0-.5.05v-1c.86.08,1.8.14,2.83.19s1.92.07,2.7.07,1.41,0,2.21-.07S48.36.55,49.45.47Z"/><path class="cls-1" d="M75.84,27.12c-.45,1.36-.83,2.6-1.14,3.74s-.58,2.2-.78,3.22L71.34,34c-3.61-.11-6.5-.17-8.69-.17q-4.59,0-12.52.21l-.44,0v-1a2.11,2.11,0,0,0,.34,0h.62a2.65,2.65,0,0,0,2.71-1.49q.64-1.48.64-5.94V8.16q0-4.32-.6-5.52c-.4-.81-1.31-1.21-2.75-1.21H50.2l-.28,0v-1l.75,0Q59,1,62.65,1c1.22,0,2.76,0,4.63-.12S71.12.64,73.2.49c0,1,0,2,.11,3.05s.21,2.33.38,3.75l-1,.14c-.64-2.19-1.44-3.53-2.38-4s-2.87-.75-5.78-.75l-3.22,0c-1.1,0-2.08.06-2.92.11,0,1.37,0,3-.07,4.79s0,4.61,0,8.36c.37,0,.75.08,1.13.1s.8,0,1.26,0H65a10.82,10.82,0,0,0,4.58-.66A3,3,0,0,0,71,12.87L72,13a17.89,17.89,0,0,0-.25,1.86c0,.68-.08,1.42-.08,2.22s0,1.51.08,2.25.14,1.5.25,2.3l-1,.11a3.77,3.77,0,0,0-1.42-3.07A9.48,9.48,0,0,0,65,17.86H60.73c-.47,0-.9,0-1.28,0s-.75.06-1.11.11q0,3.13,0,7c0,2.58.1,4.79.18,6.65q1.62.19,3.33.3c1.14.07,2.19.1,3.14.1q4.5,0,6.46-1t3.38-4.3Z"/><path class="cls-1" d="M104.65,27c-.52,1.65-.92,3-1.21,4.1s-.53,2.08-.71,3L100,34q-5.19-.16-8.06-.17-4.1,0-12,.21l-.5,0v-1a2.11,2.11,0,0,0,.34,0h.62a2.66,2.66,0,0,0,2.72-1.41c.42-.94.64-3,.64-6.28V8.16q0-4.32-.6-5.52c-.4-.81-1.32-1.21-2.76-1.21H80l-.28,0v-1l1.15.07c2.23.12,3.93.19,5.08.19,1.31,0,3.38-.07,6.19-.21l.54-.05v1a2.5,2.5,0,0,0-.47-.05c-1.73,0-2.83.44-3.29,1.32s-.69,2.69-.69,5.41q0,9.11.07,14.21t.21,9.32c1.09.12,2.12.22,3.08.28s1.89.09,2.78.09a14.07,14.07,0,0,0,5.76-.9c1.27-.6,2.46-2.11,3.59-4.51Z"/><path class="cls-1" d="M135.61,26.39a21.87,21.87,0,0,0-1.24,2.74c-.5,1.27-.89,2.35-1.15,3.26A18.81,18.81,0,0,1,128.5,34a25.77,25.77,0,0,1-5.36.57q-7.83,0-12.56-4.56t-4.74-12.22q0-7.93,4.93-12.85T123.61,0A30.79,30.79,0,0,1,129,.48a29.81,29.81,0,0,1,5.23,1.44c0,.28-.05.6-.07.94s0,.67,0,1c0,.83,0,1.74.13,2.73s.2,1.92.34,2.78l-1.2.26a8.91,8.91,0,0,0-3.27-5.88,11.18,11.18,0,0,0-7-2q-5.88,0-8.94,3.84T111.14,16.8a17.59,17.59,0,0,0,3.59,11.38,11.44,11.44,0,0,0,9.37,4.47,11.28,11.28,0,0,0,6.15-1.79,12.13,12.13,0,0,0,4.4-4.94Z"/><path class="cls-1" d="M173.06,17.27a16.93,16.93,0,0,1-4.88,12.25,17.06,17.06,0,0,1-24,.15,17.18,17.18,0,0,1-4.69-12.4,16.87,16.87,0,0,1,5-12.2,16.83,16.83,0,0,1,23.92-.16A17.1,17.1,0,0,1,173.06,17.27Zm-5.27,1q0-7.5-3.33-12a10.3,10.3,0,0,0-8.67-4.52,9.62,9.62,0,0,0-7.92,4q-3.12,4-3.12,10.6,0,7.5,3.32,12a10.33,10.33,0,0,0,8.68,4.46,9.63,9.63,0,0,0,7.93-4Q167.79,24.8,167.79,18.23Z"/><path class="cls-1" d="M218.65,34.08c-.13,0-.34,0-.63,0-2.32-.12-4.11-.19-5.37-.19-1.06,0-2.82.07-5.27.19l-1,0v-1l.52,0,.45,0a3.41,3.41,0,0,0,2.4-.69,3.36,3.36,0,0,0,.71-2.43q0-3.7-.27-10.42T209.53,6l-.23.73-9.85,21.11a29,29,0,0,0-1.23,3,18.36,18.36,0,0,0-.69,2.79h-1.19a12.4,12.4,0,0,0-.52-1.71c-.23-.63-.78-1.9-1.64-3.82L184.8,7.2l-.7-1.43-.26,3.84q-.33,4.8-.51,10t-.19,9.7a4.49,4.49,0,0,0,.76,3.05,3.89,3.89,0,0,0,2.83.8c.17,0,.41,0,.72,0v1l-.77,0c-2.2-.12-3.79-.19-4.76-.19s-2.29.06-4.19.17l-1.08.07v-1c.33,0,.57,0,.73,0a4.12,4.12,0,0,0,1.81-.33,2.43,2.43,0,0,0,1.07-1.1q.42-.87.86-7.83c0-.59.08-1,.1-1.31l.47-7.17c0-.61.18-2.42.4-5.41s.32-4.8.32-5.42a3.24,3.24,0,0,0-.75-2.37,3.21,3.21,0,0,0-2.36-.75,3,3,0,0,0-.5.05v-1l.64.05c1.94.14,3.25.21,3.94.21.48,0,1.1,0,1.86-.08l2.31-.18c0,.19-.06.33-.07.43a1.57,1.57,0,0,0,0,.27c0,.87.64,2.68,1.93,5.46.2.45.35.8.46,1l8.42,18.26,7.43-15.84c1.73-3.7,2.77-6,3.1-6.84a6,6,0,0,0,.51-2.07,1.39,1.39,0,0,0,0-.27c0-.1,0-.24-.07-.43l1.36.1c1.22.1,2.16.16,2.82.16s1.23,0,2.12-.09l2.19-.17v1a2.5,2.5,0,0,0-.47-.05,4,4,0,0,0-2.71.71,3.32,3.32,0,0,0-.76,2.48c0,.45,0,1.54.11,3.26s.15,3.41.24,5.08l.47,8.63c.19,3.21.33,5.51.43,6.87a27.72,27.72,0,0,0,.3,2.76,2.29,2.29,0,0,0,.81,1.48,3.14,3.14,0,0,0,1.81.42l.73,0Z"/><path class="cls-1" d="M249.14,27.12c-.45,1.36-.84,2.6-1.15,3.74s-.57,2.2-.77,3.22L244.64,34q-5.41-.16-8.69-.17-4.6,0-12.52.21l-.45,0v-1a2.27,2.27,0,0,0,.34,0H224a2.63,2.63,0,0,0,2.7-1.49q.65-1.48.65-5.94V8.16q0-4.32-.6-5.52c-.4-.81-1.32-1.21-2.75-1.21h-.45l-.28,0v-1l.75,0Q232.31,1,236,1c1.21,0,2.76,0,4.62-.12s3.84-.2,5.92-.35c0,1,0,2,.12,3.05s.2,2.33.37,3.75l-1,.14q-1-3.28-2.38-4c-.94-.5-2.87-.75-5.77-.75l-3.23,0c-1.1,0-2.07.06-2.91.11,0,1.37-.06,3-.07,4.79s0,4.61,0,8.36c.38,0,.76.08,1.14.1s.8,0,1.25,0h4.32a10.82,10.82,0,0,0,4.58-.66,3,3,0,0,0,1.42-2.55l1,.09a17.89,17.89,0,0,0-.25,1.86C245,15.5,245,16.24,245,17s0,1.51.08,2.25.14,1.5.25,2.3l-1,.11a3.77,3.77,0,0,0-1.42-3.07,9.48,9.48,0,0,0-4.58-.77H234c-.47,0-.89,0-1.27,0s-.76.06-1.12.11q0,3.13.06,7c0,2.58.1,4.79.18,6.65,1.08.13,2.18.23,3.33.3s2.18.1,3.14.1q4.5,0,6.45-1t3.39-4.3Z"/><path class="cls-1" d="M294.75,7.43l-1,.26q-.94-3.24-2.17-4.14a7.57,7.57,0,0,0-4.3-.9h-4.71c-.06,2.39-.09,4.23-.09,5.51V25.43q0,5,.72,6.33c.49.9,1.53,1.36,3.12,1.36h.49l.47,0v1c-1.86-.1-3.3-.16-4.32-.19s-1.91,0-2.64,0-1.64,0-2.66,0-2.46.09-4.3.19v-1l.44,0h.52c1.58,0,2.61-.46,3.09-1.36s.73-3,.73-6.33V8.16c0-1.28,0-3.12-.09-5.51h-4.46a8.06,8.06,0,0,0-4.58,1,7.61,7.61,0,0,0-2.38,4l-1-.26a30,30,0,0,0,.74-3.54,26.86,26.86,0,0,0,.22-3.66,9,9,0,0,0,2.87.61c1.12.08,2.88.12,5.29.12H285.4c2.5,0,4.37,0,5.62-.13a14.32,14.32,0,0,0,3.4-.6,12.76,12.76,0,0,0-.14,2.16c0,.75,0,1.52.11,2.31S294.58,6.4,294.75,7.43Z"/><path class="cls-1" d="M331,17.27a16.89,16.89,0,0,1-4.88,12.25,17.06,17.06,0,0,1-24,.15,17.17,17.17,0,0,1-4.68-12.4,16.86,16.86,0,0,1,4.95-12.2,16.83,16.83,0,0,1,23.92-.16A17.06,17.06,0,0,1,331,17.27Zm-5.27,1q0-7.5-3.33-12a10.3,10.3,0,0,0-8.67-4.52,9.62,9.62,0,0,0-7.92,4q-3.12,4-3.12,10.6,0,7.5,3.32,12a10.33,10.33,0,0,0,8.68,4.46,9.65,9.65,0,0,0,7.94-4Q325.72,24.8,325.71,18.23Z"/><path class="cls-1" d="M374.18,7.29l-1,.14q-1-3.28-2.38-4c-.95-.5-2.87-.75-5.78-.75l-3.22,0c-1.1,0-2.07.06-2.92.11,0,1.37-.05,3-.07,4.8s0,4.66,0,8.49c.36,0,.73.08,1.11.1s.81,0,1.28,0h3.84a10.66,10.66,0,0,0,4.53-.68A3,3,0,0,0,371.06,13l.94.09c-.09.6-.17,1.24-.23,1.94a20.38,20.38,0,0,0-.1,2c0,.73,0,1.53.1,2.38s.14,1.61.23,2.28l-.94.14a3.68,3.68,0,0,0-1.45-3.05,9.21,9.21,0,0,0-4.55-.79h-3.84c-.47,0-.9,0-1.28,0s-.75.05-1.11.1q0,7.41.16,10.18a7.35,7.35,0,0,0,.8,3.6,2.69,2.69,0,0,0,1.17.92,5.6,5.6,0,0,0,2,.28c.31,0,.63,0,1,0v1L362.51,34c-2.47-.11-4.34-.17-5.6-.17s-3.36.07-5.89.19l-.84,0v-1a2.11,2.11,0,0,0,.34,0h.62a2.66,2.66,0,0,0,2.72-1.41q.63-1.41.63-6.28V8.16q0-4.32-.6-5.52c-.39-.81-1.31-1.21-2.75-1.21h-.44l-.29,0v-1l.75,0q8.35.44,12,.44c1.22,0,2.76,0,4.63-.12s3.84-.2,5.92-.35c0,1,0,2,.11,3.05S374,5.87,374.18,7.29Z"/><path class="cls-1" d="M409.22,34l-.7.1c-.63.15-1.2.27-1.7.35a9.32,9.32,0,0,1-1.44.12,9,9,0,0,1-3.94-.76,7.2,7.2,0,0,1-2.77-2.64c-.48-.73-1.15-1.78-2-3.14-.28-.45-.5-.78-.64-1l-2.15-3.44c-.74-1.14-1.35-2.08-1.84-2.81s-.81-1.17-.95-1.33c-.55.08-1.17.14-1.87.19s-1.38.07-2.07.07h-1.43v5.84q0,5,.69,6.44c.46,1,1.43,1.42,2.9,1.42H390v.74c-.12,0-.31,0-.56,0q-4.17-.21-5.93-.21t-5.91.21c-.26,0-.45,0-.56,0V33.3a2.11,2.11,0,0,0,.34,0H378a2.62,2.62,0,0,0,2.71-1.51q.64-1.52.65-6.05V8.16q0-4.32-.6-5.52c-.4-.81-1.32-1.21-2.76-1.21h-.44l-.28,0v-1l.28,0c2.61.16,4.51.24,5.72.24.79,0,1.91,0,3.36-.13S389.23.47,390,.47a14.69,14.69,0,0,1,8.83,2.47,7.6,7.6,0,0,1,3.41,6.41,8.21,8.21,0,0,1-1.62,5,13.84,13.84,0,0,1-4.85,3.92L401.53,27a30.91,30.91,0,0,0,4,5.17,4.37,4.37,0,0,0,3,1.17h.73Zm-11.77-23.9a7.39,7.39,0,0,0-2.39-5.72,8.82,8.82,0,0,0-6.23-2.2c-.47,0-1,0-1.51.07s-1.05.1-1.52.16q0,2.76-.07,6c0,2.15,0,5.24,0,9.29.19,0,.46,0,.82,0,1.25.09,2.25.14,3,.14l2.36,0c.5,0,.92,0,1.25-.07a8.43,8.43,0,0,0,3.22-3.19A9,9,0,0,0,397.45,10.08Z"/><path class="cls-1" d="M442.83,1.48a2.5,2.5,0,0,0-.47-.05,4,4,0,0,0-1.82.36,2.38,2.38,0,0,0-1.06,1.09A8.25,8.25,0,0,0,439,5.54q-.13,2.06-.14,6.46v9.12q0,6.6-3.19,10.15t-9.18,3.53c-4.4,0-7.77-1.23-10.14-3.7s-3.55-6-3.55-10.45q0-2,.07-6c.05-2.68.07-4.61.07-5.78q0-4.76-.65-6.1a2.6,2.6,0,0,0-2.61-1.35,2.81,2.81,0,0,0-.49.05v-1l2.95.13c1.45.07,2.47.11,3.05.11.81,0,2.26-.06,4.33-.17l2.16-.07v1a2.63,2.63,0,0,0-.49-.05c-1.47,0-2.43.38-2.9,1.14s-.69,2.3-.69,4.63V21.12c0,3.56.85,6.33,2.53,8.31a8.53,8.53,0,0,0,6.82,3c3.43,0,5.92-1,7.49-2.93s2.36-5.05,2.36-9.3q0-7.86-.17-11.85a19.62,19.62,0,0,0-.56-5A2.88,2.88,0,0,0,435,1.8a4.16,4.16,0,0,0-2-.37h-.43l-.27,0v-1l2.7.14c1.25.06,2.26.1,3,.1s1.58,0,2.44-.07,1.65-.11,2.37-.17Z"/><path class="cls-1" d="M459.87,34.08l-.52,0q-4.22-.21-6.21-.21t-6.19.21l-.51,0v-1l.29,0h.67c1.48,0,2.45-.46,2.9-1.39s.68-3,.68-6.3V8.16q0-4.36-.63-5.55c-.42-.79-1.4-1.18-3-1.18H447l-.28,0v-1l.47,0q4.32.24,6,.24t5.91-.21l.58-.05v1l-.28,0h-.44c-1.55,0-2.53.39-3,1.18s-.63,2.64-.63,5.55V25.43q0,4.92.68,6.3c.45.93,1.42,1.39,2.91,1.39h.66l.3,0Z"/><path class="cls-1" d="M490.59,7.43l-1,.26q-.93-3.24-2.17-4.14a7.57,7.57,0,0,0-4.3-.9h-4.71c-.06,2.39-.09,4.23-.09,5.51V25.43q0,5,.73,6.33c.48.9,1.52,1.36,3.11,1.36h.5l.46,0v1c-1.86-.1-3.3-.16-4.32-.19s-1.9,0-2.64,0-1.63,0-2.66,0-2.45.09-4.3.19v-1l.45,0h.51c1.58,0,2.61-.46,3.1-1.36s.72-3,.72-6.33V8.16c0-1.28,0-3.12-.09-5.51h-4.45a8.1,8.1,0,0,0-4.59,1,7.54,7.54,0,0,0-2.37,4l-1-.26a28.12,28.12,0,0,0,.74-3.54,26.75,26.75,0,0,0,.23-3.66,8.91,8.91,0,0,0,2.87.61c1.11.08,2.88.12,5.28.12h10.57c2.5,0,4.38,0,5.63-.13a14.41,14.41,0,0,0,3.4-.6,11.61,11.61,0,0,0-.15,2.16c0,.75,0,1.52.11,2.31S490.42,6.4,490.59,7.43Z"/><path class="cls-1" d="M515.79,24.23a9.09,9.09,0,0,1-3.67,7.38,14.37,14.37,0,0,1-9.29,2.94,21.39,21.39,0,0,1-3.93-.4,40.06,40.06,0,0,1-4.72-1.27V32.2q0-1.76-.21-4a21.32,21.32,0,0,0-.49-3.25l1.29-.33c.46,2.83,1.43,4.89,2.88,6.18a8.93,8.93,0,0,0,6.14,1.93,8.27,8.27,0,0,0,5.67-2,6.2,6.2,0,0,0,2.25-4.84,5.44,5.44,0,0,0-1.7-4A14.3,14.3,0,0,0,504.52,19l-1.46-.49q-4.63-1.54-6.51-3.66a7.89,7.89,0,0,1-1.88-5.46A8.23,8.23,0,0,1,498,2.7,12.58,12.58,0,0,1,506.18,0,24.8,24.8,0,0,1,510,.32a28.35,28.35,0,0,1,3.92.88A26,26,0,0,0,514,4c.1.91.29,2.05.57,3.41l-1.1.35a8.48,8.48,0,0,0-2.76-4.65,8.45,8.45,0,0,0-5.25-1.44,7.44,7.44,0,0,0-5.09,1.64,5.5,5.5,0,0,0-1.87,4.36,4.92,4.92,0,0,0,1.57,3.69,14.5,14.5,0,0,0,5.39,2.78l1.43.49q5,1.63,6.92,3.87A8.3,8.3,0,0,1,515.79,24.23Z"/><path class="cls-1" d="M561.16,9.84a9.11,9.11,0,0,1-3.73,7.47A14.9,14.9,0,0,1,548,20.25c-.79,0-1.86-.07-3.24-.21l-.59-.07q0,6.3.18,8.72a6.66,6.66,0,0,0,.79,3.23,2.69,2.69,0,0,0,1.17.92,5.57,5.57,0,0,0,1.94.28c.32,0,.64,0,1,0v1L547.8,34c-2.46-.11-4.33-.17-5.6-.17s-3.35.07-5.88.19l-.84,0v-1a2,2,0,0,0,.34,0h.62a2.67,2.67,0,0,0,2.72-1.41q.63-1.41.63-6.28V8.16q0-4.32-.6-5.52c-.4-.81-1.31-1.21-2.75-1.21H536l-.28,0v-1l1.1.07c2.28.12,4.08.19,5.39.19.6,0,1.66,0,3.18-.13s2.7-.13,3.53-.13q5.63,0,8.94,2.52A8.14,8.14,0,0,1,561.16,9.84Zm-4.8.24a7.31,7.31,0,0,0-2.45-5.74,9.28,9.28,0,0,0-6.43-2.18c-.55,0-1.1,0-1.67,0s-1.09.1-1.59.18c-.05,1.88-.08,3.88-.08,6s0,5.42,0,9.82q.92.12,1.68.18t1.44.06a9.31,9.31,0,0,0,6.58-2.36A7.87,7.87,0,0,0,556.36,10.08Z"/><path class="cls-1" d="M576.52,34.08l-.52,0q-4.21-.21-6.21-.21c-1.31,0-3.38.07-6.19.21l-.51,0v-1a1.68,1.68,0,0,0,.29,0h.67c1.48,0,2.45-.46,2.9-1.39s.68-3,.68-6.3V8.16q0-4.36-.63-5.55c-.42-.79-1.41-1.18-3-1.18h-.45l-.28,0v-1l.47,0q4.31.24,6,.24c1.16,0,3.12-.07,5.91-.21l.58-.05v1l-.28,0h-.45c-1.54,0-2.53.39-2.95,1.18S572,5.25,572,8.16V25.43q0,4.92.68,6.3c.45.93,1.42,1.39,2.9,1.39h.67l.3,0Z"/><path class="cls-1" d="M610.36,26.39a21.87,21.87,0,0,0-1.24,2.74c-.5,1.27-.89,2.35-1.15,3.26A18.81,18.81,0,0,1,603.25,34a25.77,25.77,0,0,1-5.36.57q-7.83,0-12.56-4.56t-4.74-12.22q0-7.93,4.93-12.85T598.36,0a30.79,30.79,0,0,1,5.43.48A29.81,29.81,0,0,1,609,1.92c0,.28,0,.6-.07.94s0,.67,0,1c0,.83,0,1.74.13,2.73s.2,1.92.34,2.78l-1.2.26a8.91,8.91,0,0,0-3.27-5.88,11.18,11.18,0,0,0-7-2Q592,1.69,589,5.53T585.89,16.8a17.59,17.59,0,0,0,3.59,11.38,11.44,11.44,0,0,0,9.37,4.47A11.28,11.28,0,0,0,605,30.86a12.13,12.13,0,0,0,4.4-4.94Z"/><path class="cls-1" d="M648.54,1.48a3.1,3.1,0,0,0-.54-.05,3.58,3.58,0,0,0-1.54.33,2.41,2.41,0,0,0-1,.89c-.39.58-.65,2-.77,4.38s-.19,5.92-.19,10.74v9.58c0,1.33,0,2.66.14,4a27.9,27.9,0,0,0,.33,3h-1.69a5.13,5.13,0,0,0-.56-.86c-.28-.38-.65-.84-1.1-1.39L620,6.23V16.8q0,8.2.17,11.25c.12,2,.38,3.33.79,3.87a2.93,2.93,0,0,0,1.19.92,5.51,5.51,0,0,0,1.93.28c.33,0,.65,0,1,0v1L623.67,34c-2.08-.11-3.55-.17-4.43-.17-.72,0-2.07.06-4,.17l-1.46.07v-1l.31,0h.47A3.62,3.62,0,0,0,616,32.8a2.46,2.46,0,0,0,1.07-.88c.39-.58.64-2,.77-4.38s.19-5.92.19-10.74V7.69a11.29,11.29,0,0,0-.74-4.91,3,3,0,0,0-2.85-1.35c-.17,0-.41,0-.73.05v-1l.24,0c1.84.16,3.22.24,4.12.24.44,0,1,0,1.68-.08l2.12-.18a10.61,10.61,0,0,0,1,1.88c.43.65,1.05,1.46,1.86,2.45l17.77,21.36V17.77q0-8-.13-11.2a10.21,10.21,0,0,0-.6-3.92,2.36,2.36,0,0,0-1.17-.95,5.68,5.68,0,0,0-1.94-.27l-.5.05v-1l3.2.2c.74,0,1.36.06,1.84.06s1.28,0,2.19-.08l3.11-.18Z"/><path class="cls-1" d="M665.81,34.08l-.51,0q-4.23-.21-6.21-.21t-6.19.21l-.52,0v-1l.3,0h.66c1.49,0,2.46-.46,2.91-1.39s.68-3,.68-6.3V8.16q0-4.36-.63-5.55c-.42-.79-1.41-1.18-3-1.18h-.44l-.28,0v-1l.47,0q4.3.24,6,.24T665,.52l.59-.05v1l-.28,0h-.45c-1.55,0-2.53.39-3,1.18s-.63,2.64-.63,5.55V25.43c0,3.28.22,5.38.68,6.3s1.42,1.39,2.9,1.39h.67l.29,0Z"/><path class="cls-1" d="M699.66,26.39a21.59,21.59,0,0,0-1.25,2.74c-.5,1.27-.88,2.35-1.14,3.26A18.89,18.89,0,0,1,692.54,34a25.68,25.68,0,0,1-5.35.57q-7.83,0-12.57-4.56t-4.73-12.22q0-7.93,4.92-12.85T687.66,0a30.77,30.77,0,0,1,5.42.48,29.68,29.68,0,0,1,5.24,1.44c0,.28-.05.6-.07.94s0,.67,0,1c0,.83,0,1.74.13,2.73s.19,1.92.34,2.78l-1.2.26a8.91,8.91,0,0,0-3.27-5.88,11.22,11.22,0,0,0-7-2q-5.88,0-8.94,3.84T675.19,16.8a17.59,17.59,0,0,0,3.58,11.38,11.45,11.45,0,0,0,9.38,4.47,11.28,11.28,0,0,0,6.15-1.79,12.2,12.2,0,0,0,4.4-4.94Z"/><path class="cls-1" d="M715.76,34.08l-1,0c-2.46-.12-4.22-.19-5.3-.19s-3.12.07-5.91.21l-.56,0v-1a2.11,2.11,0,0,0,.34,0H704a2.66,2.66,0,0,0,2.72-1.41q.63-1.41.63-6.28V8.16q0-4.32-.59-5.52c-.4-.81-1.32-1.21-2.76-1.21h-.44l-.28,0v-1L707,.67c1,0,1.81.06,2.48.06,1.22,0,3.12-.08,5.72-.24h.28v1a2.5,2.5,0,0,0-.47-.05c-1.44,0-2.35.4-2.75,1.21s-.6,2.64-.6,5.52V25.43q0,4.88.63,6.28A2.66,2.66,0,0,0,715,33.12h.45l.28,0Zm20.15,0-.51,0c-1.6-.12-2.95-.19-4.06-.19s-2.63.07-4.47.21l-.42,0s0,0,0,0a1.23,1.23,0,0,0,.07-.42c0-.67-1.24-2.24-3.7-4.71-.85-.83-1.53-1.5-2-2l-9.12-9.11,8.62-8.65q3.86-3.85,4.56-4.78a2.91,2.91,0,0,0,.72-1.69,1,1,0,0,0-.56-.9,3.33,3.33,0,0,0-1.6-.32c-.15,0-.39,0-.7.05v-1l1.45.09q2.87.15,4.29.15c1,0,2.36-.06,4.13-.17l1.17-.07v1a2.91,2.91,0,0,0-.49-.05,5.43,5.43,0,0,0-3.06,1.07,42.29,42.29,0,0,0-4.63,4L716,15.61l13.2,13.19A34.34,34.34,0,0,0,733,32.26a4.54,4.54,0,0,0,2.64.86c.16,0,.23,0,.23,0Z"/></g></g></svg>